<svg width="50" height="50" viewBox="0 0 50 50" fill="none" xmlns="http://www.w3.org/2000/svg">
<g filter="url(#filter0_d_486_10719)">
<path d="M7.5 43V10.0625V9H41.5V32.375L31.197 43H7.5Z" fill="url(#paint0_linear_486_10719)"/>
<path d="M27 23H31C32.1046 23 33 23.8954 33 25C33 26.1046 32.1046 27 31 27H27V31C27 32.1046 26.1046 33 25 33C23.8954 33 23 32.1046 23 31V27H19C17.8954 27 17 26.1046 17 25C17 23.8954 17.8954 23 19 23H23V19C23 17.8954 23.8954 17 25 17C26.1046 17 27 17.8954 27 19V23ZM45 12V32.1716C45 32.702 44.7893 33.2107 44.4142 33.5858L33.5858 44.4142C33.2107 44.7893 32.702 45 32.1716 45H12C8.2 45 5 41.8 5 38V12C5 8.2 8.2 5 12 5H38C41.8 5 45 8.2 45 12ZM41 12.6C41 10.6 39.4 9 37.4 9H12.6C10.6 9 9 10.6 9 12.6V37.6C9 39.6 10.6 41.2 12.6 41.2H29C30.1046 41.2 31 40.3046 31 39.2V38.2C31 34.4 34.2 31.2 38 31.2H39C40.1046 31.2 41 30.3046 41 29.2V12.6Z" fill="url(#paint1_linear_486_10719)"/>
</g>
<defs>
<filter id="filter0_d_486_10719" x="0" y="0" width="50" height="50" filterUnits="userSpaceOnUse" color-interpolation-filters="sRGB">
<feFlood flood-opacity="0" result="BackgroundImageFix"/>
<feColorMatrix in="SourceAlpha" type="matrix" values="0 0 0 0 0 0 0 0 0 0 0 0 0 0 0 0 0 0 127 0" result="hardAlpha"/>
<feOffset/>
<feGaussianBlur stdDeviation="2.5"/>
<feComposite in2="hardAlpha" operator="out"/>
<feColorMatrix type="matrix" values="0 0 0 0 1 0 0 0 0 1 0 0 0 0 1 0 0 0 0.8 0"/>
<feBlend mode="normal" in2="BackgroundImageFix" result="effect1_dropShadow_486_10719"/>
<feBlend mode="normal" in="SourceGraphic" in2="effect1_dropShadow_486_10719" result="shape"/>
</filter>
<linearGradient id="paint0_linear_486_10719" x1="24.5" y1="9" x2="24.5" y2="43" gradientUnits="userSpaceOnUse">
<stop stop-color="#EAEDFF"/>
<stop offset="1" stop-color="#B4BFFF"/>
</linearGradient>
<linearGradient id="paint1_linear_486_10719" x1="25" y1="5" x2="25" y2="45" gradientUnits="userSpaceOnUse">
<stop stop-color="#B4BFFF"/>
<stop offset="1" stop-color="#7E8DF5"/>
</linearGradient>
</defs>
</svg>
