<svg width="1110" height="1110" viewBox="0 0 1110 1110" fill="none" xmlns="http://www.w3.org/2000/svg">
<path d="M470.951 181.252L470.114 125.159C469.837 106.634 454.741 91.7604 436.213 91.7604H426.923C348.329 91.7604 284.616 155.474 284.616 234.068L284.616 555.987C284.616 625.768 341.185 682.337 410.967 682.337H483.846C499.565 682.337 512.308 695.08 512.308 710.799V725.03C512.308 740.749 525.05 753.491 540.769 753.491H583.462C599.181 753.491 611.923 740.749 611.923 725.03V710.799C611.923 695.08 624.666 682.337 640.385 682.337H747.116C770.694 682.337 789.808 663.223 789.808 639.645V607.046C789.808 581.355 767.247 561.545 741.696 564.223C637.516 575.14 568.854 574.117 487.203 566.685C443.783 562.733 411.175 525.614 411.45 482.015L412.692 284.871C414.604 248.234 422.07 229.064 446.87 216.467C460.602 209.492 471.181 196.652 470.951 181.252Z" fill="#B4BFFF"/>
<path d="M470.951 181.252L470.114 125.159C469.837 106.634 454.741 91.7604 436.213 91.7604H426.923C348.329 91.7604 284.616 155.474 284.616 234.068L284.616 555.987C284.616 625.768 341.185 682.337 410.967 682.337H483.846C499.565 682.337 512.308 695.08 512.308 710.799V725.03C512.308 740.749 525.05 753.491 540.769 753.491H583.462C599.181 753.491 611.923 740.749 611.923 725.03V710.799C611.923 695.08 624.666 682.337 640.385 682.337H747.116C770.694 682.337 789.808 663.223 789.808 639.645V607.046C789.808 581.355 767.247 561.545 741.696 564.223C637.516 575.14 568.854 574.117 487.203 566.685C443.783 562.733 411.175 525.614 411.45 482.015L412.692 284.871C414.604 248.234 422.07 229.064 446.87 216.467C460.602 209.492 471.181 196.652 470.951 181.252Z" fill="url(#paint0_linear_106_9989)" fill-opacity="0.3"/>
<path d="M503.877 156.62V110.742C503.877 93.7404 516.484 79.3072 533.384 77.4511C591.713 71.0449 639.941 70.0299 693.093 72.1583C767.184 75.1251 824.07 138.163 824.07 212.314V225.488C824.07 239.278 815.745 251.737 802.593 255.881C773.703 264.983 725.525 275.829 722.147 248.295C718.55 218.984 717.339 209.115 688.877 194.884C665.827 183.359 600.397 185.118 542.637 190.98C522.125 193.061 503.877 177.237 503.877 156.62Z" fill="#B4BFFF"/>
<path d="M503.877 156.62V110.742C503.877 93.7404 516.484 79.3072 533.384 77.4511C591.713 71.0449 639.941 70.0299 693.093 72.1583C767.184 75.1251 824.07 138.163 824.07 212.314V225.488C824.07 239.278 815.745 251.737 802.593 255.881C773.703 264.983 725.525 275.829 722.147 248.295C718.55 218.984 717.339 209.115 688.877 194.884C665.827 183.359 600.397 185.118 542.637 190.98C522.125 193.061 503.877 177.237 503.877 156.62Z" fill="url(#paint1_linear_106_9989)" fill-opacity="0.3"/>
<path d="M638.296 1024.96C639.563 1036.29 633.947 1047.28 624.024 1052.89L576.128 1079.98C567.434 1084.9 556.797 1084.9 548.103 1079.98L500.207 1052.89C490.284 1047.28 484.668 1036.29 485.935 1024.96L509.479 814.363C511.09 799.958 523.27 789.064 537.765 789.064L586.466 789.064C600.962 789.064 613.141 799.958 614.752 814.363L638.296 1024.96Z" fill="#B4BFFF"/>
<path d="M638.296 1024.96C639.563 1036.29 633.947 1047.28 624.024 1052.89L576.128 1079.98C567.434 1084.9 556.797 1084.9 548.103 1079.98L500.207 1052.89C490.284 1047.28 484.668 1036.29 485.935 1024.96L509.479 814.363C511.09 799.958 523.27 789.064 537.765 789.064L586.466 789.064C600.962 789.064 613.141 799.958 614.752 814.363L638.296 1024.96Z" fill="url(#paint2_linear_106_9989)" fill-opacity="0.3"/>
<rect x="498.077" y="333.68" width="42.6923" height="85.3846" rx="14.2308" fill="#B4BFFF"/>
<rect x="498.077" y="333.68" width="42.6923" height="85.3846" rx="14.2308" fill="url(#paint3_linear_106_9989)" fill-opacity="0.3"/>
<rect x="626.154" y="333.68" width="42.6923" height="85.3846" rx="14.2308" fill="#B4BFFF"/>
<rect x="626.154" y="333.68" width="42.6923" height="85.3846" rx="14.2308" fill="url(#paint4_linear_106_9989)" fill-opacity="0.3"/>
<rect x="498.077" y="376.372" width="42.6923" height="42.6923" rx="14.2308" fill="#B4BFFF"/>
<rect x="498.077" y="376.372" width="42.6923" height="42.6923" rx="14.2308" fill="url(#paint5_linear_106_9989)" fill-opacity="0.6"/>
<rect x="626.154" y="376.372" width="42.6923" height="42.6923" rx="14.2308" fill="#B4BFFF"/>
<rect x="626.154" y="376.372" width="42.6923" height="42.6923" rx="14.2308" fill="url(#paint6_linear_106_9989)" fill-opacity="0.6"/>
<defs>
<linearGradient id="paint0_linear_106_9989" x1="516.259" y1="91.7565" x2="518.025" y2="602.006" gradientUnits="userSpaceOnUse">
<stop stop-color="#778BFF" stop-opacity="0"/>
<stop offset="1" stop-color="#4B34FF"/>
</linearGradient>
<linearGradient id="paint1_linear_106_9989" x1="516.259" y1="91.7565" x2="518.025" y2="602.006" gradientUnits="userSpaceOnUse">
<stop stop-color="#778BFF" stop-opacity="0"/>
<stop offset="1" stop-color="#4B34FF"/>
</linearGradient>
<linearGradient id="paint2_linear_106_9989" x1="570.952" y1="1043.64" x2="570.08" y2="847.342" gradientUnits="userSpaceOnUse">
<stop stop-color="#4B34FF"/>
<stop offset="1" stop-color="#778BFF" stop-opacity="0"/>
</linearGradient>
<linearGradient id="paint3_linear_106_9989" x1="517.013" y1="333.68" x2="517.373" y2="399.517" gradientUnits="userSpaceOnUse">
<stop stop-color="#778BFF" stop-opacity="0"/>
<stop offset="1" stop-color="#4B34FF"/>
</linearGradient>
<linearGradient id="paint4_linear_106_9989" x1="645.09" y1="333.68" x2="645.45" y2="399.517" gradientUnits="userSpaceOnUse">
<stop stop-color="#778BFF" stop-opacity="0"/>
<stop offset="1" stop-color="#4B34FF"/>
</linearGradient>
<linearGradient id="paint5_linear_106_9989" x1="517.013" y1="376.372" x2="517.103" y2="409.291" gradientUnits="userSpaceOnUse">
<stop stop-color="white" stop-opacity="0"/>
<stop offset="1" stop-color="white"/>
</linearGradient>
<linearGradient id="paint6_linear_106_9989" x1="645.09" y1="376.372" x2="645.18" y2="409.291" gradientUnits="userSpaceOnUse">
<stop stop-color="white" stop-opacity="0"/>
<stop offset="1" stop-color="white"/>
</linearGradient>
</defs>
</svg>
