<svg width="100" height="78" viewBox="0 0 100 78" fill="none" xmlns="http://www.w3.org/2000/svg">
<path d="M33.0939 12.7367L33.035 8.79498C33.0156 7.49317 31.9547 6.44803 30.6528 6.44803H30C24.4772 6.44803 20 10.9252 20 16.448L20 39.0693C20.0001 43.9729 23.9752 47.948 28.8788 47.948H34C35.1046 47.948 36 48.8435 36 49.948V50.948C36 52.0526 36.8954 52.948 38 52.948H41C42.1046 52.948 43 52.0526 43 50.948V49.948C43 48.8435 43.8954 47.948 45 47.948H52.5C54.1569 47.948 55.5 46.6049 55.5 44.948V42.6573C55.5 40.852 53.9146 39.4599 52.1192 39.6481C44.7984 40.4152 39.9735 40.3434 34.2359 39.8211C31.1847 39.5434 28.8934 36.935 28.9127 33.8714L29 20.018C29.1343 17.4435 29.6589 16.0964 31.4017 15.2112C32.3666 14.7211 33.11 13.8188 33.0939 12.7367Z" fill="#B4BFFF"/>
<path d="M33.0939 12.7367L33.035 8.79498C33.0156 7.49317 31.9547 6.44803 30.6528 6.44803H30C24.4772 6.44803 20 10.9252 20 16.448L20 39.0693C20.0001 43.9729 23.9752 47.948 28.8788 47.948H34C35.1046 47.948 36 48.8435 36 49.948V50.948C36 52.0526 36.8954 52.948 38 52.948H41C42.1046 52.948 43 52.0526 43 50.948V49.948C43 48.8435 43.8954 47.948 45 47.948H52.5C54.1569 47.948 55.5 46.6049 55.5 44.948V42.6573C55.5 40.852 53.9146 39.4599 52.1192 39.6481C44.7984 40.4152 39.9735 40.3434 34.2359 39.8211C31.1847 39.5434 28.8934 36.935 28.9127 33.8714L29 20.018C29.1343 17.4435 29.6589 16.0964 31.4017 15.2112C32.3666 14.7211 33.11 13.8188 33.0939 12.7367Z" fill="url(#paint0_linear_227_1970)" fill-opacity="0.3"/>
<path d="M35.4076 11.0058V7.78188C35.4076 6.58717 36.2935 5.57294 37.481 5.44251C41.5798 4.99235 44.9688 4.92102 48.7038 5.07058C53.9102 5.27907 57.9076 9.70878 57.9076 14.9194V15.8451C57.9076 16.8141 57.3226 17.6896 56.3984 17.9808C54.3683 18.6205 50.9829 19.3826 50.7454 17.4478C50.4927 15.3881 50.4076 14.6946 48.4076 13.6946C46.7878 12.8847 42.19 13.0083 38.1312 13.4202C36.6899 13.5665 35.4076 12.4545 35.4076 11.0058Z" fill="#B4BFFF"/>
<path d="M35.4076 11.0058V7.78188C35.4076 6.58717 36.2935 5.57294 37.481 5.44251C41.5798 4.99235 44.9688 4.92102 48.7038 5.07058C53.9102 5.27907 57.9076 9.70878 57.9076 14.9194V15.8451C57.9076 16.8141 57.3226 17.6896 56.3984 17.9808C54.3683 18.6205 50.9829 19.3826 50.7454 17.4478C50.4927 15.3881 50.4076 14.6946 48.4076 13.6946C46.7878 12.8847 42.19 13.0083 38.1312 13.4202C36.6899 13.5665 35.4076 12.4545 35.4076 11.0058Z" fill="url(#paint1_linear_227_1970)" fill-opacity="0.3"/>
<path d="M44.8532 72.024C44.9423 72.8201 44.5476 73.5925 43.8503 73.987L40.4847 75.8908C39.8737 76.2364 39.1263 76.2364 38.5153 75.8908L35.1497 73.987C34.4524 73.5925 34.0577 72.8201 34.1468 72.024L35.8012 57.2255C35.9144 56.2133 36.7703 55.4478 37.7889 55.4478L41.2111 55.4478C42.2297 55.4478 43.0856 56.2133 43.1988 57.2255L44.8532 72.024Z" fill="#B4BFFF"/>
<path d="M44.8532 72.024C44.9423 72.8201 44.5476 73.5925 43.8503 73.987L40.4847 75.8908C39.8737 76.2364 39.1263 76.2364 38.5153 75.8908L35.1497 73.987C34.4524 73.5925 34.0577 72.8201 34.1468 72.024L35.8012 57.2255C35.9144 56.2133 36.7703 55.4478 37.7889 55.4478L41.2111 55.4478C42.2297 55.4478 43.0856 56.2133 43.1988 57.2255L44.8532 72.024Z" fill="url(#paint2_linear_227_1970)" fill-opacity="0.3"/>
<rect x="35" y="23.4478" width="3" height="6" rx="1" fill="#B4BFFF"/>
<rect x="35" y="23.4478" width="3" height="6" rx="1" fill="url(#paint3_linear_227_1970)" fill-opacity="0.3"/>
<rect x="44" y="23.4478" width="3" height="6" rx="1" fill="#B4BFFF"/>
<rect x="44" y="23.4478" width="3" height="6" rx="1" fill="url(#paint4_linear_227_1970)" fill-opacity="0.3"/>
<rect x="35" y="26.4478" width="3" height="3" rx="1" fill="#B4BFFF"/>
<rect x="35" y="26.4478" width="3" height="3" rx="1" fill="url(#paint5_linear_227_1970)" fill-opacity="0.6"/>
<rect x="44" y="26.4478" width="3" height="3" rx="1" fill="#B4BFFF"/>
<rect x="44" y="26.4478" width="3" height="3" rx="1" fill="url(#paint6_linear_227_1970)" fill-opacity="0.6"/>
<mask id="path-7-inside-1_227_1970" fill="white">
<path d="M65.792 28.1699H97.2071V54.0001C97.2071 56.3135 95.3318 58.1888 93.0184 58.1888H69.9807C67.6673 58.1888 65.792 56.3135 65.792 54.0001V28.1699Z"/>
</mask>
<path d="M65.792 28.1699H97.2071H65.792ZM99.3014 54.0001C99.3014 57.4701 96.4884 60.2831 93.0184 60.2831H69.9807C66.5107 60.2831 63.6977 57.4701 63.6977 54.0001L67.8863 54.0001C67.8863 55.1568 68.824 56.0944 69.9807 56.0944H93.0184C94.1751 56.0944 95.1127 55.1568 95.1127 54.0001L99.3014 54.0001ZM69.9807 60.2831C66.5107 60.2831 63.6977 57.4701 63.6977 54.0001V28.1699H67.8863V54.0001C67.8863 55.1568 68.824 56.0944 69.9807 56.0944L69.9807 60.2831ZM99.3014 28.1699V54.0001C99.3014 57.4701 96.4884 60.2831 93.0184 60.2831L93.0184 56.0944C94.1751 56.0944 95.1127 55.1568 95.1127 54.0001V28.1699H99.3014Z" fill="url(#paint7_linear_227_1970)" mask="url(#path-7-inside-1_227_1970)"/>
<path d="M81.1634 35.1509C82.0381 35.1509 82.8651 35.4413 83.3794 35.958C83.8984 36.4747 84.0624 37.1753 83.9184 37.9059C83.8916 38.0437 83.8649 38.1816 83.8381 38.3194C83.356 40.7988 82.8737 43.2782 82.3916 45.7576C82.3648 45.8954 82.3381 46.0333 82.3113 46.171C82.2618 46.422 82.0975 46.6626 81.8831 46.8401C81.667 47.0175 81.4183 47.1172 81.1634 47.1172C80.9084 47.1172 80.6598 47.0175 80.4437 46.8401C80.2292 46.6626 80.0649 46.422 80.0154 46.171C79.9886 46.0333 79.9619 45.8954 79.9352 45.7576C79.453 43.2782 78.9707 40.7988 78.4886 38.3194C78.4618 38.1816 78.4351 38.0437 78.4083 37.9059C78.2643 37.1753 78.4283 36.4747 78.9473 35.958C79.4616 35.4413 80.2886 35.1509 81.1634 35.1509Z" fill="#B0BBFF"/>
<path d="M79.7861 50.1481V49.5971C79.7861 48.9885 80.4029 48.4951 81.1637 48.4951C81.9244 48.4951 82.5412 48.9885 82.5412 49.5971V50.1481C82.5412 50.7568 81.9244 51.2502 81.1637 51.2502C80.4029 51.2502 79.7861 50.7568 79.7861 50.1481Z" fill="#B0BBFF"/>
<rect x="66.8392" y="22.9339" width="29.3208" height="8.37736" rx="3.14151" stroke="#B4BFFF" stroke-width="2.09434" stroke-linejoin="round"/>
<path d="M74.1699 19.7925L74.1699 24.6793" stroke="#B0BBFF" stroke-width="2.79245" stroke-linecap="round" stroke-linejoin="round"/>
<path d="M74.1699 19.7925L74.1699 24.6793" stroke="url(#paint8_linear_227_1970)" stroke-width="2.79245" stroke-linecap="round" stroke-linejoin="round"/>
<path d="M88.8301 19.7925L88.8301 24.6793" stroke="#B0BBFF" stroke-width="2.79245" stroke-linecap="round" stroke-linejoin="round"/>
<path d="M88.8301 19.7925L88.8301 24.6793" stroke="url(#paint9_linear_227_1970)" stroke-width="2.79245" stroke-linecap="round" stroke-linejoin="round"/>
<defs>
<linearGradient id="paint0_linear_227_1970" x1="36.2776" y1="6.44775" x2="36.4018" y2="42.3031" gradientUnits="userSpaceOnUse">
<stop stop-color="#778BFF" stop-opacity="0"/>
<stop offset="1" stop-color="#4B34FF"/>
</linearGradient>
<linearGradient id="paint1_linear_227_1970" x1="36.2776" y1="6.44775" x2="36.4018" y2="42.3031" gradientUnits="userSpaceOnUse">
<stop stop-color="#778BFF" stop-opacity="0"/>
<stop offset="1" stop-color="#4B34FF"/>
</linearGradient>
<linearGradient id="paint2_linear_227_1970" x1="40.121" y1="73.3366" x2="40.0597" y2="59.543" gradientUnits="userSpaceOnUse">
<stop stop-color="#4B34FF"/>
<stop offset="1" stop-color="#778BFF" stop-opacity="0"/>
</linearGradient>
<linearGradient id="paint3_linear_227_1970" x1="36.3306" y1="23.4478" x2="36.3559" y2="28.0742" gradientUnits="userSpaceOnUse">
<stop stop-color="#778BFF" stop-opacity="0"/>
<stop offset="1" stop-color="#4B34FF"/>
</linearGradient>
<linearGradient id="paint4_linear_227_1970" x1="45.3306" y1="23.4478" x2="45.3559" y2="28.0742" gradientUnits="userSpaceOnUse">
<stop stop-color="#778BFF" stop-opacity="0"/>
<stop offset="1" stop-color="#4B34FF"/>
</linearGradient>
<linearGradient id="paint5_linear_227_1970" x1="36.3306" y1="26.4478" x2="36.337" y2="28.761" gradientUnits="userSpaceOnUse">
<stop stop-color="white" stop-opacity="0"/>
<stop offset="1" stop-color="white"/>
</linearGradient>
<linearGradient id="paint6_linear_227_1970" x1="45.3306" y1="26.4478" x2="45.337" y2="28.761" gradientUnits="userSpaceOnUse">
<stop stop-color="white" stop-opacity="0"/>
<stop offset="1" stop-color="white"/>
</linearGradient>
<linearGradient id="paint7_linear_227_1970" x1="81.4995" y1="28.1699" x2="81.4995" y2="58.1888" gradientUnits="userSpaceOnUse">
<stop stop-color="#B4BFFF"/>
<stop offset="1" stop-color="#7E8DF5"/>
</linearGradient>
<linearGradient id="paint8_linear_227_1970" x1="74.6699" y1="19.7925" x2="74.6699" y2="24.6793" gradientUnits="userSpaceOnUse">
<stop stop-color="#B4BFFF"/>
<stop offset="1" stop-color="#7E8DF5"/>
</linearGradient>
<linearGradient id="paint9_linear_227_1970" x1="89.3301" y1="19.7925" x2="89.3301" y2="24.6793" gradientUnits="userSpaceOnUse">
<stop stop-color="#B4BFFF"/>
<stop offset="1" stop-color="#7E8DF5"/>
</linearGradient>
</defs>
</svg>
