<svg width="38" height="38" viewBox="0 0 38 38" fill="none" xmlns="http://www.w3.org/2000/svg">
<path d="M28.6484 29.6875C31.9883 26.5703 33.4727 21.375 32.582 16.4023H19.2969V21.8945H26.8672C26.5703 23.6758 25.5312 25.1602 24.0469 26.125L28.6484 29.6875Z" fill="#4285F4"/>
<path d="M6.67969 25.3086C7.65604 27.2319 9.05625 28.9085 10.7748 30.2119C12.4933 31.5154 14.4853 32.4117 16.6006 32.8333C18.7159 33.2549 20.8994 33.1909 22.9863 32.646C25.0733 32.101 27.0093 31.0895 28.6484 29.6875L24.0469 26.125C20.1133 28.7227 13.582 27.7578 11.3555 21.6719L6.67969 25.3086Z" fill="#34A853"/>
<path d="M11.3555 21.6719C10.7617 19.8164 10.7617 18.1094 11.3555 16.2539L6.67972 12.6172C4.97269 16.0312 4.45316 20.8555 6.67972 25.3086L11.3555 21.6719Z" fill="#FBBC02"/>
<path d="M11.3555 16.2539C12.9883 11.1328 19.9648 8.16404 24.6406 12.543L28.7227 8.53514C22.9336 2.96873 11.6523 3.19139 6.67969 12.6172L11.3555 16.2539Z" fill="#EA4335"/>
</svg>
