<svg width="183" height="80" viewBox="0 0 183 80" fill="none" xmlns="http://www.w3.org/2000/svg">
<path d="M99.7804 41.9628H107.737C109.053 41.9628 110.12 43.0295 110.12 44.3453L110.12 58.341C110.12 59.3936 110.973 60.247 112.026 60.247H112.925C113.978 60.247 114.831 59.3936 114.831 58.341V39.3391C114.831 36.0495 112.165 33.3828 108.875 33.3828H97.1111C93.8215 33.3828 91.1548 36.0495 91.1548 39.3391V58.341C91.1548 59.3936 92.0081 60.247 93.0608 60.247H95.4919C96.5445 60.247 97.3979 59.3936 97.3979 58.341L97.3979 44.3453C97.3979 43.0295 98.4646 41.9628 99.7804 41.9628Z" fill="#B4BFFF"/>
<path d="M99.7804 41.9628H107.737C109.053 41.9628 110.12 43.0295 110.12 44.3453L110.12 58.341C110.12 59.3936 110.973 60.247 112.026 60.247H112.925C113.978 60.247 114.831 59.3936 114.831 58.341V39.3391C114.831 36.0495 112.165 33.3828 108.875 33.3828H97.1111C93.8215 33.3828 91.1548 36.0495 91.1548 39.3391V58.341C91.1548 59.3936 92.0081 60.247 93.0608 60.247H95.4919C96.5445 60.247 97.3979 59.3936 97.3979 58.341L97.3979 44.3453C97.3979 43.0295 98.4646 41.9628 99.7804 41.9628Z" fill="url(#paint0_linear_105_4862)" fill-opacity="0.2"/>
<path d="M16.8104 5.67248V2.38251C16.8104 1.06669 15.7437 0 14.4279 0H5.95629C2.66672 0 4.7817e-06 2.66672 1.06802e-05 5.95629L4.65218e-05 25.9449C5.24203e-05 29.2345 2.66676 31.9012 5.95632 31.9012H8.87876H36.0919C37.4078 31.9012 38.4744 30.8345 38.4744 29.5187V29.1661C38.4744 25.8766 35.8077 23.2098 32.5182 23.2098H11.2613C9.94543 23.2098 8.87875 22.1432 8.87874 20.8273L8.87873 11.6288C8.87872 9.65503 10.4788 8.055 12.4525 8.055H14.4279C15.7437 8.055 16.8104 6.98831 16.8104 5.67248Z" fill="#B4BFFF"/>
<path d="M16.8104 5.67248V2.38251C16.8104 1.06669 15.7437 0 14.4279 0H5.95629C2.66672 0 4.7817e-06 2.66672 1.06802e-05 5.95629L4.65218e-05 25.9449C5.24203e-05 29.2345 2.66676 31.9012 5.95632 31.9012H8.87876H36.0919C37.4078 31.9012 38.4744 30.8345 38.4744 29.5187V29.1661C38.4744 25.8766 35.8077 23.2098 32.5182 23.2098H11.2613C9.94543 23.2098 8.87875 22.1432 8.87874 20.8273L8.87873 11.6288C8.87872 9.65503 10.4788 8.055 12.4525 8.055H14.4279C15.7437 8.055 16.8104 6.98831 16.8104 5.67248Z" fill="url(#paint1_linear_105_4862)" fill-opacity="0.2"/>
<path d="M22.1376 5.67248V2.38251C22.1376 1.06669 23.2043 0 24.5201 0H30.7424C34.032 0 36.6987 2.66672 36.6987 5.95628V9.37056C36.6987 10.6864 35.632 11.7531 34.3162 11.7531H31.3856C30.3644 11.7531 29.5365 10.9252 29.5365 9.90403C29.5365 8.88284 28.7087 8.055 27.6875 8.055H24.5201C23.2043 8.055 22.1376 6.98831 22.1376 5.67248Z" fill="#B4BFFF"/>
<path d="M22.1376 5.67248V2.38251C22.1376 1.06669 23.2043 0 24.5201 0H30.7424C34.032 0 36.6987 2.66672 36.6987 5.95628V9.37056C36.6987 10.6864 35.632 11.7531 34.3162 11.7531H31.3856C30.3644 11.7531 29.5365 10.9252 29.5365 9.90403C29.5365 8.88284 28.7087 8.055 27.6875 8.055H24.5201C23.2043 8.055 22.1376 6.98831 22.1376 5.67248Z" fill="url(#paint2_linear_105_4862)" fill-opacity="0.2"/>
<path d="M19.5335 55.6019V58.8919C19.5335 60.2077 20.6002 61.2744 21.916 61.2744H32.6961C35.9856 61.2744 38.6523 58.6077 38.6523 55.3181V36.7533C38.6523 35.4374 37.5857 34.3707 36.2698 34.3707H31.9495C30.622 34.3707 29.5505 35.4558 29.5672 36.7832L29.7282 49.6008C29.7532 51.5919 28.146 53.2194 26.1547 53.2194H21.916C20.6002 53.2194 19.5335 54.2861 19.5335 55.6019Z" fill="#B4BFFF"/>
<path d="M19.5335 55.6019V58.8919C19.5335 60.2077 20.6002 61.2744 21.916 61.2744H32.6961C35.9856 61.2744 38.6523 58.6077 38.6523 55.3181V36.7533C38.6523 35.4374 37.5857 34.3707 36.2698 34.3707H31.9495C30.622 34.3707 29.5505 35.4558 29.5672 36.7832L29.7282 49.6008C29.7532 51.5919 28.146 53.2194 26.1547 53.2194H21.916C20.6002 53.2194 19.5335 54.2861 19.5335 55.6019Z" fill="url(#paint3_linear_105_4862)" fill-opacity="0.2"/>
<path d="M14.5614 55.6019V58.8919C14.5614 60.2077 13.4947 61.2744 12.1789 61.2744H5.95661C2.66705 61.2744 0.000328064 58.6077 0.000328064 55.3181V48.9014C0.000328064 47.5856 1.06702 46.5189 2.38284 46.5189H4.77998C6.09581 46.5189 7.16249 47.5856 7.16249 48.9014V50.8369C7.16249 52.1527 8.22918 53.2194 9.54501 53.2194H12.1789C13.4947 53.2194 14.5614 54.2861 14.5614 55.6019Z" fill="#B4BFFF"/>
<path d="M14.5614 55.6019V58.8919C14.5614 60.2077 13.4947 61.2744 12.1789 61.2744H5.95661C2.66705 61.2744 0.000328064 58.6077 0.000328064 55.3181V48.9014C0.000328064 47.5856 1.06702 46.5189 2.38284 46.5189H4.77998C6.09581 46.5189 7.16249 47.5856 7.16249 48.9014V50.8369C7.16249 52.1527 8.22918 53.2194 9.54501 53.2194H12.1789C13.4947 53.2194 14.5614 54.2861 14.5614 55.6019Z" fill="url(#paint4_linear_105_4862)" fill-opacity="0.2"/>
<path d="M49.4843 48.7579V40.1613C49.4843 38.8454 50.5509 37.7787 51.8668 37.7787H54.9733C55.7775 37.7787 56.4294 38.4307 56.4294 39.2349C56.4294 40.039 57.0813 40.691 57.8855 40.691H58.284C59.3084 40.691 60.1387 39.8606 60.1387 38.8363V37.7787C60.1387 35.3725 58.1881 33.4219 55.7818 33.4219H49.1662C45.8767 33.4219 43.21 36.0886 43.21 39.3781V54.3693C43.21 57.6588 45.8767 60.3255 49.1662 60.3255H54.1824C57.472 60.3255 60.1387 57.6588 60.1387 54.3693V53.5229C60.1387 52.2071 59.072 51.1404 57.7562 51.1404H51.8668C50.5509 51.1404 49.4843 50.0737 49.4843 48.7579Z" fill="#B4BFFF"/>
<path d="M49.4843 48.7579V40.1613C49.4843 38.8454 50.5509 37.7787 51.8668 37.7787H54.9733C55.7775 37.7787 56.4294 38.4307 56.4294 39.2349C56.4294 40.039 57.0813 40.691 57.8855 40.691H58.284C59.3084 40.691 60.1387 39.8606 60.1387 38.8363V37.7787C60.1387 35.3725 58.1881 33.4219 55.7818 33.4219H49.1662C45.8767 33.4219 43.21 36.0886 43.21 39.3781V54.3693C43.21 57.6588 45.8767 60.3255 49.1662 60.3255H54.1824C57.472 60.3255 60.1387 57.6588 60.1387 54.3693V53.5229C60.1387 52.2071 59.072 51.1404 57.7562 51.1404H51.8668C50.5509 51.1404 49.4843 50.0737 49.4843 48.7579Z" fill="url(#paint5_linear_105_4862)" fill-opacity="0.2"/>
<path d="M78.4512 33.4219C81.7406 33.4219 84.4071 36.0885 84.4072 39.3779V47.9912C84.4072 49.1017 85.0949 50.096 86.1338 50.4883C87.1725 50.8805 87.8602 51.875 87.8604 52.9854V54.8945C87.8604 57.8937 85.4288 60.325 82.4297 60.3252H69.1729C65.8834 60.3251 63.2168 57.6586 63.2168 54.3691V39.3779C63.2169 36.0885 65.8835 33.422 69.1729 33.4219H78.4512ZM71.9326 37.7793C70.6169 37.7795 69.5508 38.8464 69.5508 40.1621V48.7588C69.551 50.0743 70.6171 51.1405 71.9326 51.1406H77.29C78.6056 51.1404 79.6717 50.0743 79.6719 48.7588V40.1621C79.6719 38.8464 78.6057 37.7795 77.29 37.7793H71.9326Z" fill="#B4BFFF"/>
<path d="M78.4512 33.4219C81.7406 33.4219 84.4071 36.0885 84.4072 39.3779V47.9912C84.4072 49.1017 85.0949 50.096 86.1338 50.4883C87.1725 50.8805 87.8602 51.875 87.8604 52.9854V54.8945C87.8604 57.8937 85.4288 60.325 82.4297 60.3252H69.1729C65.8834 60.3251 63.2168 57.6586 63.2168 54.3691V39.3779C63.2169 36.0885 65.8835 33.422 69.1729 33.4219H78.4512ZM71.9326 37.7793C70.6169 37.7795 69.5508 38.8464 69.5508 40.1621V48.7588C69.551 50.0743 70.6171 51.1405 71.9326 51.1406H77.29C78.6056 51.1404 79.6717 50.0743 79.6719 48.7588V40.1621C79.6719 38.8464 78.6057 37.7795 77.29 37.7793H71.9326Z" fill="url(#paint6_linear_105_4862)" fill-opacity="0.2"/>
<path d="M152.702 23.7031C153.755 23.7031 154.608 24.5565 154.608 25.6091V54.2505C154.608 57.5401 151.941 60.2068 148.652 60.2068H136.769C133.48 60.2068 130.813 57.5401 130.813 54.2505V40.2075C130.813 36.918 133.48 34.2513 136.769 34.2513H147.49C148.806 34.2513 149.873 33.1846 149.873 31.8687V25.6091C149.873 24.5565 150.726 23.7031 151.779 23.7031H152.702ZM136.626 48.5798C136.626 49.8957 137.693 50.9624 139.008 50.9624H147.49C148.806 50.9624 149.873 49.8957 149.873 48.5798V41.3745C149.873 40.0587 148.806 38.992 147.49 38.992H139.008C137.693 38.992 136.626 40.0587 136.626 41.3745V48.5798Z" fill="#B4BFFF"/>
<path d="M152.702 23.7031C153.755 23.7031 154.608 24.5565 154.608 25.6091V54.2505C154.608 57.5401 151.941 60.2068 148.652 60.2068H136.769C133.48 60.2068 130.813 57.5401 130.813 54.2505V40.2075C130.813 36.918 133.48 34.2513 136.769 34.2513H147.49C148.806 34.2513 149.873 33.1846 149.873 31.8687V25.6091C149.873 24.5565 150.726 23.7031 151.779 23.7031H152.702ZM136.626 48.5798C136.626 49.8957 137.693 50.9624 139.008 50.9624H147.49C148.806 50.9624 149.873 49.8957 149.873 48.5798V41.3745C149.873 40.0587 148.806 38.992 147.49 38.992H139.008C137.693 38.992 136.626 40.0587 136.626 41.3745V48.5798Z" fill="url(#paint7_linear_105_4862)" fill-opacity="0.2"/>
<path d="M163.632 34.5483C164.685 34.5483 165.538 35.4017 165.538 36.4543L165.538 48.6399C165.538 49.9557 166.605 51.0224 167.921 51.0224H175.882C177.198 51.0224 178.264 49.9557 178.264 48.6399L178.264 36.4544C178.264 35.4017 179.118 34.5483 180.17 34.5483H181.094C182.146 34.5483 183 35.4017 183 36.4543L183 74.0439C183 77.3334 180.333 80.0001 177.043 80.0001H165.102C161.812 80.0001 159.146 77.3334 159.146 74.0439V72.1877C159.146 71.135 159.999 70.2816 161.052 70.2816H164.432C165.043 70.2816 165.538 70.7769 165.538 71.3878C165.538 72.1515 166.157 72.7705 166.921 72.7705H175.882C177.198 72.7705 178.264 71.7038 178.264 70.388V62.5901C178.264 61.2743 177.198 60.2076 175.882 60.2076H165.102C161.812 60.2076 159.146 57.5409 159.146 54.2513L159.146 36.4544C159.146 35.4017 159.999 34.5483 161.052 34.5483H163.632Z" fill="#B4BFFF"/>
<path d="M163.632 34.5483C164.685 34.5483 165.538 35.4017 165.538 36.4543L165.538 48.6399C165.538 49.9557 166.605 51.0224 167.921 51.0224H175.882C177.198 51.0224 178.264 49.9557 178.264 48.6399L178.264 36.4544C178.264 35.4017 179.118 34.5483 180.17 34.5483H181.094C182.146 34.5483 183 35.4017 183 36.4543L183 74.0439C183 77.3334 180.333 80.0001 177.043 80.0001H165.102C161.812 80.0001 159.146 77.3334 159.146 74.0439V72.1877C159.146 71.135 159.999 70.2816 161.052 70.2816H164.432C165.043 70.2816 165.538 70.7769 165.538 71.3878C165.538 72.1515 166.157 72.7705 166.921 72.7705H175.882C177.198 72.7705 178.264 71.7038 178.264 70.388V62.5901C178.264 61.2743 177.198 60.2076 175.882 60.2076H165.102C161.812 60.2076 159.146 57.5409 159.146 54.2513L159.146 36.4544C159.146 35.4017 159.999 34.5483 161.052 34.5483H163.632Z" fill="url(#paint8_linear_105_4862)" fill-opacity="0.2"/>
<rect x="120.553" y="54.519" width="5.68238" height="5.68888" rx="2.25" fill="#B4BFFF"/>
<rect x="120.553" y="54.519" width="5.68238" height="5.68888" rx="2.25" fill="url(#paint9_linear_105_4862)" fill-opacity="0.2"/>
<rect x="120.553" y="44.0493" width="5.68238" height="5.68888" rx="2.25" fill="#B4BFFF"/>
<rect x="120.553" y="44.0493" width="5.68238" height="5.68888" rx="2.25" fill="url(#paint10_linear_105_4862)" fill-opacity="0.2"/>
<defs>
<linearGradient id="paint0_linear_105_4862" x1="101.656" y1="33.3828" x2="101.656" y2="60.247" gradientUnits="userSpaceOnUse">
<stop stop-color="#778BFF" stop-opacity="0"/>
<stop offset="1" stop-color="#4B34FF"/>
</linearGradient>
<linearGradient id="paint1_linear_105_4862" x1="16.2777" y1="3.87306e-09" x2="16.3765" y2="32" gradientUnits="userSpaceOnUse">
<stop stop-color="#778BFF" stop-opacity="0"/>
<stop offset="1" stop-color="#4B34FF"/>
</linearGradient>
<linearGradient id="paint2_linear_105_4862" x1="16.2777" y1="3.87306e-09" x2="16.3765" y2="32" gradientUnits="userSpaceOnUse">
<stop stop-color="#778BFF" stop-opacity="0"/>
<stop offset="1" stop-color="#4B34FF"/>
</linearGradient>
<linearGradient id="paint3_linear_105_4862" x1="22.2996" y1="61.2744" x2="22.2296" y2="34.2874" gradientUnits="userSpaceOnUse">
<stop stop-color="#4B34FF"/>
<stop offset="1" stop-color="#778BFF" stop-opacity="0"/>
</linearGradient>
<linearGradient id="paint4_linear_105_4862" x1="22.2996" y1="61.2744" x2="22.2296" y2="34.2874" gradientUnits="userSpaceOnUse">
<stop stop-color="#4B34FF"/>
<stop offset="1" stop-color="#778BFF" stop-opacity="0"/>
</linearGradient>
<linearGradient id="paint5_linear_105_4862" x1="50.3721" y1="33.4219" x2="50.5319" y2="60.4081" gradientUnits="userSpaceOnUse">
<stop stop-color="#778BFF" stop-opacity="0"/>
<stop offset="1" stop-color="#4B34FF"/>
</linearGradient>
<linearGradient id="paint6_linear_105_4862" x1="74.1474" y1="33.4219" x2="74.1474" y2="60.3252" gradientUnits="userSpaceOnUse">
<stop stop-color="#778BFF" stop-opacity="0"/>
<stop offset="1" stop-color="#4B34FF"/>
</linearGradient>
<linearGradient id="paint7_linear_105_4862" x1="141.367" y1="14.8143" x2="141.367" y2="60.2068" gradientUnits="userSpaceOnUse">
<stop stop-color="#778BFF" stop-opacity="0"/>
<stop offset="1" stop-color="#4B34FF"/>
</linearGradient>
<linearGradient id="paint8_linear_105_4862" x1="169.726" y1="34.5483" x2="169.726" y2="80.0001" gradientUnits="userSpaceOnUse">
<stop stop-color="#778BFF" stop-opacity="0"/>
<stop offset="1" stop-color="#4B34FF"/>
</linearGradient>
<linearGradient id="paint9_linear_105_4862" x1="123.074" y1="54.519" x2="123.074" y2="60.2079" gradientUnits="userSpaceOnUse">
<stop stop-color="#778BFF" stop-opacity="0"/>
<stop offset="1" stop-color="#4B34FF"/>
</linearGradient>
<linearGradient id="paint10_linear_105_4862" x1="123.074" y1="44.0493" x2="123.074" y2="49.7382" gradientUnits="userSpaceOnUse">
<stop stop-color="#778BFF" stop-opacity="0"/>
<stop offset="1" stop-color="#4B34FF"/>
</linearGradient>
</defs>
</svg>
