<svg width="38" height="38" viewBox="0 0 38 38" fill="none" xmlns="http://www.w3.org/2000/svg">
<rect width="38" height="38" rx="19" fill="#EAEDFF"/>
<path d="M24.556 16.8496C24.556 15.8665 24.3595 14.8929 23.9785 13.9847C23.5975 13.0766 23.0396 12.2512 22.3357 11.5562C21.6318 10.8611 20.796 10.3095 19.8763 9.93332C18.9565 9.55713 17.9705 9.3639 16.975 9.3639C15.4756 9.3639 14.0096 9.80257 12.7629 10.6251C11.5163 11.4476 10.5452 12.6171 9.97144 13.9847C9.39766 15.3526 9.2472 16.858 9.53972 18.3101C9.83225 19.7621 10.554 21.0961 11.6142 22.1429C12.6744 23.1898 14.0254 23.9025 15.4959 24.1913C16.9664 24.4802 18.491 24.3316 19.8763 23.765C21.2614 23.1985 22.4457 22.2396 23.2787 21.0087C24.1117 19.7777 24.556 18.3301 24.556 16.8496ZM26.9499 16.8496C26.9499 18.7975 26.365 20.7018 25.269 22.3215C25.0877 22.5894 24.8918 22.8464 24.6861 23.094L29.6495 27.9825C30.1168 28.4441 30.1168 29.1923 29.6495 29.6539C29.1821 30.1154 28.4243 30.1153 27.9569 29.6539L22.9568 24.7292C22.2929 25.2207 21.5668 25.6327 20.792 25.9496C18.9694 26.695 16.9639 26.8898 15.0291 26.5098C13.0941 26.1298 11.3166 25.1918 9.92157 23.8143C8.52655 22.4368 7.57659 20.6816 7.1917 18.771C6.80686 16.8605 7.00417 14.8802 7.75903 13.0806C8.51401 11.2808 9.79303 9.74209 11.4334 8.65981C13.0737 7.57762 15.0022 7 16.975 7C18.2848 7 19.5818 7.25459 20.792 7.74949C22.0022 8.24448 23.1021 8.97023 24.0284 9.88484C24.9546 10.7995 25.6896 11.8856 26.1909 13.0806C26.6921 14.2755 26.9499 15.5562 26.9499 16.8496Z" fill="#7E8DF5"/>
</svg>
