<svg width="17" height="19" viewBox="0 0 17 19" fill="none" xmlns="http://www.w3.org/2000/svg">
<path d="M15.2271 0.86442C14.954 0.590294 14.6296 0.372853 14.2727 0.22453C13.9157 0.0762069 13.533 -9.04093e-05 13.1466 8.03972e-08C12.7602 9.05701e-05 12.3776 0.076567 12.0207 0.225057C11.6638 0.373548 11.3395 0.59114 11.0665 0.865395L1.83114 10.1412C1.28086 10.6944 0.971702 11.4439 0.971429 12.2253V15.3462C0.971429 15.7496 1.29783 16.077 1.7 16.077H4.83091C5.61097 16.077 6.35897 15.7652 6.90977 15.2127L16.1383 5.95053C16.6888 5.39707 16.998 4.6472 16.998 3.86542C16.998 3.08363 16.6888 2.33377 16.1383 1.78031L15.2271 0.86442ZM0.728571 17.5385C0.535342 17.5385 0.350027 17.6155 0.213394 17.7525C0.0767599 17.8896 0 18.0754 0 18.2692C0 18.463 0.0767599 18.6489 0.213394 18.786C0.350027 18.923 0.535342 19 0.728571 19H16.2714C16.4647 19 16.65 18.923 16.7866 18.786C16.9232 18.6489 17 18.463 17 18.2692C17 18.0754 16.9232 17.8896 16.7866 17.7525C16.65 17.6155 16.4647 17.5385 16.2714 17.5385H0.728571Z" fill="#7E8DF5"/>
</svg>
