<svg width="513" height="306" viewBox="0 0 513 306" fill="none" xmlns="http://www.w3.org/2000/svg">
<g filter="url(#filter0_d_216_2205)">
<g clip-path="url(#clip0_216_2205)">
<rect x="20" y="20" width="473" height="266" rx="20" fill="#FDFDFD" fill-opacity="0.866667" shape-rendering="crispEdges"/>
<g filter="url(#filter1_d_216_2205)">
<rect x="14" y="20" width="485.39" height="266" rx="24.1088" fill="url(#paint0_linear_216_2205)" shape-rendering="crispEdges"/>
<path d="M479.299 40.0908L456.798 62.5923M456.798 40.0908L479.299 62.5923" stroke="#7E8DF5" stroke-width="3.2145" stroke-linecap="round" stroke-linejoin="round"/>
<rect x="136.553" y="35.332" width="241.088" height="40.0544" rx="20.0272" fill="#EAEDFF"/>
<rect x="136.553" y="35.332" width="241.088" height="40.0544" rx="20.0272" stroke="#B4BFFF" stroke-width="2.00906"/>
<path d="M166.577 47.5859C166.577 50.7305 168.929 53.7383 172.702 54.9414L171.362 56.9648C168.546 56.0352 166.413 54.0938 165.319 51.6328C164.212 54.2988 162.038 56.4043 159.112 57.4297L157.772 55.4336C161.573 54.1211 163.925 50.9219 163.952 47.5859V46.9023H158.456V44.7969H171.964V46.9023H166.577V47.5859ZM177.815 43.1836V57.9766H175.218V43.1836H177.815ZM177.815 59.207V67.6836H175.218V61.3125H161.218V59.207H177.815ZM201.397 43.1836V56.5273H198.826V51.1133H194.233V48.9805H198.826V43.1836H201.397ZM188.026 57.6211V60.4375H198.826V57.6211H201.397V67.3828H185.455V57.6211H188.026ZM188.026 65.2773H198.826V62.4609H188.026V65.2773ZM189.776 47.0117C189.776 50.0469 191.99 53.1094 195.682 54.3672L194.342 56.3906C191.58 55.4199 189.557 53.4648 188.49 51.0312C187.41 53.752 185.278 55.9121 182.365 56.9375L181.026 54.8867C184.799 53.5742 187.123 50.3477 187.123 46.9844V46.6562H181.819V44.5508H195.026V46.6562H189.776V47.0117ZM217.579 44.0039C221.27 44.0312 223.977 46.3008 224.004 49.5C223.977 52.7266 221.27 54.9688 217.579 54.9688C213.86 54.9688 211.126 52.7266 211.126 49.5C211.126 46.3008 213.86 44.0312 217.579 44.0039ZM217.579 46.1914C215.309 46.1641 213.641 47.5039 213.669 49.5C213.641 51.5234 215.309 52.8633 217.579 52.8633C219.821 52.8633 221.489 51.5234 221.489 49.5C221.489 47.5039 219.821 46.1641 217.579 46.1914ZM230.95 43.1836V55.6523H228.352V43.1836H230.95ZM230.95 56.7734V62.9531H217.442V65.3047H231.77V67.3828H214.926V61.0117H228.379V58.8516H214.844V56.7734H230.95ZM254.558 43.1836V57.7578H251.961V51.5508H247.394V49.418H251.961V43.1836H254.558ZM246.355 58.4414C251.496 58.4414 254.64 60.1367 254.64 63.0625C254.64 65.9883 251.496 67.6562 246.355 67.6836C241.215 67.6562 238.043 65.9883 238.07 63.0625C238.043 60.1367 241.215 58.4414 246.355 58.4414ZM246.355 60.4648C242.773 60.4648 240.64 61.3945 240.64 63.0625C240.64 64.7031 242.773 65.6602 246.355 65.6328C249.937 65.6602 252.07 64.7031 252.07 63.0625C252.07 61.3945 249.937 60.4648 246.355 60.4648ZM242.91 47.5039C242.91 50.6211 245.125 53.6289 248.816 54.8867L247.476 56.9375C244.728 55.9805 242.705 54.0254 241.652 51.6055C240.572 54.3535 238.426 56.5547 235.5 57.6211L234.133 55.543C237.933 54.2305 240.258 50.9219 240.258 47.5312V46.9844H234.953V44.8789H248.16V46.9844H242.91V47.5039ZM286.135 54.6953V56.8281H263.768V54.6953H286.135ZM283.537 50.457V52.5625H266.557V44.0586H283.373V46.1914H269.127V50.457H283.537ZM274.924 58.7422C280.201 58.7422 283.373 60.3555 283.373 63.1992C283.373 66.043 280.201 67.6562 274.924 67.6289C269.619 67.6562 266.42 66.043 266.42 63.1992C266.42 60.3555 269.619 58.7422 274.924 58.7422ZM274.924 60.7383C271.178 60.7656 269.045 61.6406 269.045 63.1992C269.045 64.7578 271.178 65.6328 274.924 65.6328C278.615 65.6328 280.776 64.7578 280.776 63.1992C280.776 61.6406 278.615 60.7656 274.924 60.7383ZM309.662 56.5547V58.6602H287.24V56.5547H297.165V54.2305H290.111V47.9961H304.247V45.8086H290.056V43.7578H306.845V49.9102H292.681V52.207H307.337V54.2305H299.736V56.5547H309.662ZM306.982 60.3828V67.4922H304.357V62.4609H289.755V60.3828H306.982ZM329.852 43.1836V53.1094H333.79V55.2695H329.852V67.6836H327.282V43.1836H329.852ZM325.149 47.0117V49.1445H310.629V47.0117H316.672V43.5117H319.27V47.0117H325.149ZM317.985 50.9492C321.485 50.9492 324.055 53.3008 324.083 56.6367C324.055 60 321.485 62.3242 317.985 62.3516C314.458 62.3242 311.887 60 311.887 56.6367C311.887 53.3008 314.458 50.9492 317.985 50.9492ZM317.985 53.082C315.907 53.082 314.348 54.5312 314.376 56.6367C314.348 58.7695 315.907 60.1914 317.985 60.1641C320.063 60.1914 321.594 58.7695 321.594 56.6367C321.594 54.5312 320.063 53.082 317.985 53.082ZM354.637 43.1836V67.6836H352.012V43.1836H354.637ZM347.336 45.8086C347.336 52.9727 344.273 59.207 335.879 63.2266L334.512 61.1211C341.033 58.0176 344.205 53.6016 344.711 47.8867H335.687V45.8086H347.336Z" fill="#7E8DF5"/>
<rect x="118.069" y="232.157" width="98.4441" height="23.0544" rx="11.5272" fill="#F4F6FF"/>
<rect x="118.069" y="232.157" width="98.4441" height="23.0544" rx="11.5272" stroke="#B4BFFF" stroke-width="1.20544"/>
<path d="M152.43 240.175C152.43 241.109 153.309 241.911 154.749 242.218L154.32 243.031C153.189 242.779 152.359 242.213 151.925 241.46C151.502 242.279 150.656 242.894 149.486 243.163L149.046 242.35C150.497 242.043 151.387 241.153 151.387 240.175H149.266V239.351H151.387V238.296H152.43V239.351H154.54V240.175H152.43ZM156.814 238.285V248.118H155.781V238.285H156.814ZM148.618 243.768C150.486 243.768 152.958 243.757 155.1 243.482L155.177 244.24C154.276 244.388 153.348 244.482 152.441 244.537V247.822H151.398V244.592C150.453 244.63 149.552 244.636 148.761 244.636L148.618 243.768ZM167.081 246.009V246.866H158.071V246.009H162.016V243.669H163.048V246.009H167.081ZM163.07 239.647C163.07 241.208 164.784 242.669 166.685 242.988L166.235 243.845C164.641 243.526 163.175 242.543 162.521 241.186C161.873 242.537 160.422 243.537 158.84 243.845L158.379 242.988C160.269 242.669 161.972 241.208 161.972 239.647V238.9H163.07V239.647ZM175.182 238.274V242.262H176.765V243.13H175.182V248.118H174.15V238.274H175.182ZM173.293 239.812V240.669H167.459V239.812H169.887V238.406H170.93V239.812H173.293ZM170.414 241.394C171.82 241.394 172.853 242.339 172.864 243.68C172.853 245.031 171.82 245.965 170.414 245.976C168.997 245.965 167.964 245.031 167.964 243.68C167.964 242.339 168.997 241.394 170.414 241.394ZM170.414 242.251C169.579 242.251 168.953 242.834 168.964 243.68C168.953 244.537 169.579 245.108 170.414 245.097C171.249 245.108 171.864 244.537 171.864 243.68C171.864 242.834 171.249 242.251 170.414 242.251ZM185.141 238.274V248.118H184.086V238.274H185.141ZM182.208 239.329C182.208 242.207 180.977 244.712 177.604 246.328L177.055 245.482C179.675 244.235 180.95 242.46 181.153 240.164H177.527V239.329H182.208Z" fill="#7E8DF5"/>
<rect x="296.876" y="232.157" width="98.4441" height="23.0544" rx="11.5272" fill="#F4F6FF"/>
<rect x="296.876" y="232.157" width="98.4441" height="23.0544" rx="11.5272" stroke="#B4BFFF" stroke-width="1.20544"/>
<path d="M336.423 242.9V243.757H327.436V242.9H336.423ZM335.379 241.197V242.043H328.556V238.626H335.313V239.483H329.589V241.197H335.379ZM331.918 244.526C334.039 244.526 335.313 245.174 335.313 246.317C335.313 247.459 334.039 248.107 331.918 248.096C329.787 248.107 328.501 247.459 328.501 246.317C328.501 245.174 329.787 244.526 331.918 244.526ZM331.918 245.328C330.413 245.339 329.556 245.69 329.556 246.317C329.556 246.943 330.413 247.294 331.918 247.294C333.401 247.294 334.269 246.943 334.269 246.317C334.269 245.69 333.401 245.339 331.918 245.328ZM345.876 243.647V244.493H336.867V243.647H340.855V242.713H338.02V240.208H343.701V239.329H337.998V238.505H344.745V240.977H339.053V241.9H344.942V242.713H341.888V243.647H345.876ZM344.799 245.185V248.042H343.745V246.02H337.878V245.185H344.799ZM353.989 238.274V242.262H355.571V243.13H353.989V248.118H352.956V238.274H353.989ZM352.099 239.812V240.669H346.265V239.812H348.693V238.406H349.737V239.812H352.099ZM349.221 241.394C350.627 241.394 351.66 242.339 351.671 243.68C351.66 245.031 350.627 245.965 349.221 245.976C347.803 245.965 346.771 245.031 346.771 243.68C346.771 242.339 347.803 241.394 349.221 241.394ZM349.221 242.251C348.386 242.251 347.759 242.834 347.77 243.68C347.759 244.537 348.386 245.108 349.221 245.097C350.056 245.108 350.671 244.537 350.671 243.68C350.671 242.834 350.056 242.251 349.221 242.251ZM363.948 238.274V248.118H362.893V238.274H363.948ZM361.014 239.329C361.014 242.207 359.784 244.712 356.411 246.328L355.861 245.482C358.482 244.235 359.756 242.46 359.959 240.164H356.334V239.329H361.014Z" fill="#7E8DF5"/>
<rect x="122.49" y="89.5137" width="126.973" height="30.136" rx="15.068" fill="#B4BFFF"/>
<path d="M141.989 110.502C139.353 110.502 137.814 108.383 137.814 104.663C137.814 100.974 139.384 98.824 141.989 98.824C144.595 98.824 146.165 100.974 146.165 104.663C146.165 108.383 144.611 110.502 141.989 110.502ZM141.989 109.011C143.528 109.011 144.438 107.504 144.438 104.663C144.438 101.838 143.512 100.284 141.989 100.284C140.467 100.284 139.541 101.838 139.541 104.663C139.541 107.504 140.451 109.011 141.989 109.011ZM151.507 110.502C148.871 110.502 147.332 108.383 147.332 104.663C147.332 100.974 148.902 98.824 151.507 98.824C154.113 98.824 155.683 100.974 155.683 104.663C155.683 108.383 154.129 110.502 151.507 110.502ZM151.507 109.011C153.046 109.011 153.956 107.504 153.956 104.663C153.956 101.838 153.03 100.284 151.507 100.284C149.985 100.284 149.059 101.838 149.059 104.663C149.059 107.504 149.969 109.011 151.507 109.011ZM157.761 110.455C157.148 110.455 156.631 109.952 156.646 109.34C156.631 108.728 157.148 108.226 157.761 108.226C158.357 108.226 158.875 108.728 158.875 109.34C158.875 109.952 158.357 110.455 157.761 110.455Z" fill="#EAEDFF"/>
<path d="M170.518 110.502C167.881 110.502 166.343 108.383 166.343 104.663C166.343 100.974 167.913 98.824 170.518 98.824C173.124 98.824 174.693 100.974 174.693 104.663C174.693 108.383 173.139 110.502 170.518 110.502ZM170.518 109.011C172.056 109.011 172.967 107.504 172.967 104.663C172.967 101.838 172.041 100.284 170.518 100.284C168.996 100.284 168.07 101.838 168.07 104.663C168.07 107.504 168.98 109.011 170.518 109.011ZM180.036 110.502C177.399 110.502 175.861 108.383 175.861 104.663C175.861 100.974 177.431 98.824 180.036 98.824C182.642 98.824 184.211 100.974 184.211 104.663C184.211 108.383 182.657 110.502 180.036 110.502ZM180.036 109.011C181.574 109.011 182.485 107.504 182.485 104.663C182.485 101.838 181.559 100.284 180.036 100.284C178.514 100.284 177.588 101.838 177.588 104.663C177.588 107.504 178.498 109.011 180.036 109.011ZM186.289 110.455C185.677 110.455 185.159 109.952 185.175 109.34C185.159 108.728 185.677 108.226 186.289 108.226C186.886 108.226 187.404 108.728 187.404 109.34C187.404 109.952 186.886 110.455 186.289 110.455Z" fill="#EAEDFF"/>
<path d="M206.289 97.6311V105.871H204.798V105.197H202.051V104.255H204.798V97.6311H206.289ZM194.564 102.811C197.28 102.826 200.733 102.795 203.762 102.465L203.841 103.423C202.514 103.603 201.141 103.713 199.791 103.784V105.903H198.316V103.847C197.044 103.878 195.836 103.886 194.737 103.878L194.564 102.811ZM206.289 106.342V109.372H198.19V110.455H206.713V111.538H196.73V108.383H204.814V107.378H196.668V106.342H206.289ZM199.132 97.8666C201.219 97.8666 202.632 98.6984 202.648 99.9855C202.632 101.304 201.219 102.089 199.132 102.089C196.997 102.089 195.6 101.304 195.616 99.9855C195.6 98.6984 196.997 97.8666 199.132 97.8666ZM199.132 98.8711C197.829 98.8711 197.013 99.3106 197.013 99.9855C197.013 100.66 197.829 101.084 199.132 101.084C200.403 101.084 201.235 100.66 201.235 99.9855C201.235 99.3106 200.403 98.8711 199.132 98.8711ZM220.955 108.681V109.921H208.085V108.681H211.161V105.008C210.008 104.372 209.309 103.36 209.309 102.104C209.309 99.8913 211.475 98.4316 214.489 98.4316C217.518 98.4316 219.684 99.8913 219.684 102.104C219.684 103.344 219.009 104.341 217.879 104.977V108.681H220.955ZM214.489 99.6245C212.276 99.6245 210.753 100.582 210.753 102.104C210.753 103.611 212.276 104.6 214.489 104.6C216.686 104.6 218.24 103.611 218.24 102.104C218.24 100.582 216.686 99.6245 214.489 99.6245ZM212.637 108.681H216.372V105.542C215.799 105.691 215.164 105.762 214.489 105.762C213.829 105.762 213.202 105.691 212.637 105.558V108.681ZM225.56 98.0863C227.679 98.102 229.233 99.4047 229.249 101.241C229.233 103.093 227.679 104.38 225.56 104.38C223.426 104.38 221.856 103.093 221.856 101.241C221.856 99.4047 223.426 98.102 225.56 98.0863ZM225.56 99.342C224.258 99.3263 223.3 100.095 223.316 101.241C223.3 102.403 224.258 103.172 225.56 103.172C226.848 103.172 227.805 102.403 227.805 101.241C227.805 100.095 226.848 99.3263 225.56 99.342ZM233.236 97.6154V104.773H231.745V97.6154H233.236ZM233.236 105.416V108.963H225.482V110.313H233.707V111.506H224.038V107.849H231.76V106.609H223.991V105.416H233.236Z" fill="#EAEDFF"/>
<path d="M49.1334 101.595C49.1178 104.17 50.6716 106.744 52.8534 107.717L51.9587 108.894C50.342 108.125 49.0628 106.547 48.4114 104.625C47.7522 106.681 46.4573 108.384 44.77 109.208L43.8597 107.952C46.0728 106.963 47.6266 104.279 47.6266 101.595V99.194H49.1334V101.595ZM55.6158 98.0168V112.112H54.1247V98.0168H55.6158ZM62.3713 100.544C62.3713 102.333 63.6113 104.044 65.7616 104.766L65.0082 105.927C63.4151 105.378 62.2457 104.279 61.6336 102.898C61.0215 104.421 59.805 105.614 58.1491 106.194L57.3486 105.033C59.546 104.279 60.8645 102.474 60.8802 100.528V100.151H57.7881V98.9428H65.4006V100.151H62.3713V100.544ZM68.5084 98.0168V101.627H70.5488V102.882H68.5084V106.493H67.0173V98.0168H68.5084ZM68.5084 107.183V112.08H67.0173V108.392H59.2164V107.183H68.5084ZM81.9032 98.0168V103.714H84.1634V104.954H81.9032V112.08H80.4278V98.0168H81.9032ZM79.2035 100.214V101.438H70.869V100.214H74.3378V98.2051H75.8289V100.214H79.2035ZM75.0912 102.474C77.1002 102.474 78.5756 103.824 78.5913 105.739C78.5756 107.67 77.1002 109.004 75.0912 109.02C73.0664 109.004 71.591 107.67 71.591 105.739C71.591 103.824 73.0664 102.474 75.0912 102.474ZM75.0912 103.699C73.8983 103.699 73.0036 104.531 73.0193 105.739C73.0036 106.963 73.8983 107.78 75.0912 107.764C76.2841 107.78 77.163 106.963 77.163 105.739C77.163 104.531 76.2841 103.699 75.0912 103.699ZM95.8159 102.129V103.322H86.1316V98.5191H87.607V102.129H95.8159ZM97.2913 105.096V106.288H84.4208V105.096H97.2913ZM95.9101 110.526V111.751H86.0217V107.623H87.5128V110.526H95.9101ZM112.497 98.0168V100.842H114.538V102.098H112.497V105.064H111.006V98.0168H112.497ZM103.582 98.6446V103.228C105.474 103.212 107.467 103.063 109.625 102.631L109.813 103.871C107.443 104.342 105.309 104.483 103.237 104.483H102.091V98.6446H103.582ZM112.497 105.708V109.286H104.916V110.699H112.984V111.908H103.441V108.141H111.006V106.885H103.41V105.708H112.497Z" fill="#4842B2"/>
<rect x="340.272" y="89.5137" width="126.973" height="30.136" rx="15.068" fill="#B4BFFF"/>
<path d="M359.772 110.502C357.135 110.502 355.597 108.383 355.597 104.663C355.597 100.974 357.166 98.824 359.772 98.824C362.377 98.824 363.947 100.974 363.947 104.663C363.947 108.383 362.393 110.502 359.772 110.502ZM359.772 109.011C361.31 109.011 362.221 107.504 362.221 104.663C362.221 101.838 361.294 100.284 359.772 100.284C358.249 100.284 357.323 101.838 357.323 104.663C357.323 107.504 358.234 109.011 359.772 109.011ZM369.29 110.502C366.653 110.502 365.115 108.383 365.115 104.663C365.115 100.974 366.684 98.824 369.29 98.824C371.895 98.824 373.465 100.974 373.465 104.663C373.465 108.383 371.911 110.502 369.29 110.502ZM369.29 109.011C370.828 109.011 371.738 107.504 371.738 104.663C371.738 101.838 370.812 100.284 369.29 100.284C367.767 100.284 366.841 101.838 366.841 104.663C366.841 107.504 367.752 109.011 369.29 109.011ZM375.543 110.455C374.931 110.455 374.413 109.952 374.429 109.34C374.413 108.728 374.931 108.226 375.543 108.226C376.14 108.226 376.658 108.728 376.658 109.34C376.658 109.952 376.14 110.455 375.543 110.455Z" fill="#EAEDFF"/>
<path d="M388.301 110.502C385.664 110.502 384.126 108.383 384.126 104.663C384.126 100.974 385.695 98.824 388.301 98.824C390.906 98.824 392.476 100.974 392.476 104.663C392.476 108.383 390.922 110.502 388.301 110.502ZM388.301 109.011C389.839 109.011 390.749 107.504 390.749 104.663C390.749 101.838 389.823 100.284 388.301 100.284C386.778 100.284 385.852 101.838 385.852 104.663C385.852 107.504 386.763 109.011 388.301 109.011ZM397.819 110.502C395.182 110.502 393.644 108.383 393.644 104.663C393.644 100.974 395.213 98.824 397.819 98.824C400.424 98.824 401.994 100.974 401.994 104.663C401.994 108.383 400.44 110.502 397.819 110.502ZM397.819 109.011C399.357 109.011 400.267 107.504 400.267 104.663C400.267 101.838 399.341 100.284 397.819 100.284C396.296 100.284 395.37 101.838 395.37 104.663C395.37 107.504 396.281 109.011 397.819 109.011ZM404.072 110.455C403.46 110.455 402.942 109.952 402.958 109.34C402.942 108.728 403.46 108.226 404.072 108.226C404.668 108.226 405.186 108.728 405.186 109.34C405.186 109.952 404.668 110.455 404.072 110.455Z" fill="#EAEDFF"/>
<path d="M424.071 97.6311V105.871H422.58V105.197H419.834V104.255H422.58V97.6311H424.071ZM412.347 102.811C415.062 102.826 418.515 102.795 421.544 102.465L421.623 103.423C420.297 103.603 418.923 103.713 417.573 103.784V105.903H416.098V103.847C414.827 103.878 413.618 103.886 412.519 103.878L412.347 102.811ZM424.071 106.342V109.372H415.972V110.455H424.495V111.538H414.513V108.383H422.596V107.378H414.45V106.342H424.071ZM416.914 97.8666C419.002 97.8666 420.414 98.6984 420.43 99.9855C420.414 101.304 419.002 102.089 416.914 102.089C414.779 102.089 413.383 101.304 413.398 99.9855C413.383 98.6984 414.779 97.8666 416.914 97.8666ZM416.914 98.8711C415.611 98.8711 414.795 99.3106 414.795 99.9855C414.795 100.66 415.611 101.084 416.914 101.084C418.185 101.084 419.017 100.66 419.017 99.9855C419.017 99.3106 418.185 98.8711 416.914 98.8711ZM438.738 108.681V109.921H425.867V108.681H428.943V105.008C427.79 104.372 427.091 103.36 427.091 102.104C427.091 99.8913 429.257 98.4316 432.271 98.4316C435.3 98.4316 437.466 99.8913 437.466 102.104C437.466 103.344 436.791 104.341 435.661 104.977V108.681H438.738ZM432.271 99.6245C430.058 99.6245 428.535 100.582 428.535 102.104C428.535 103.611 430.058 104.6 432.271 104.6C434.468 104.6 436.022 103.611 436.022 102.104C436.022 100.582 434.468 99.6245 432.271 99.6245ZM430.419 108.681H434.154V105.542C433.581 105.691 432.946 105.762 432.271 105.762C431.612 105.762 430.984 105.691 430.419 105.558V108.681ZM443.343 98.0863C445.462 98.102 447.016 99.4047 447.031 101.241C447.016 103.093 445.462 104.38 443.343 104.38C441.208 104.38 439.639 103.093 439.639 101.241C439.639 99.4047 441.208 98.102 443.343 98.0863ZM443.343 99.342C442.04 99.3263 441.083 100.095 441.098 101.241C441.083 102.403 442.04 103.172 443.343 103.172C444.63 103.172 445.587 102.403 445.587 101.241C445.587 100.095 444.63 99.3263 443.343 99.342ZM451.018 97.6154V104.773H449.527V97.6154H451.018ZM451.018 105.416V108.963H443.264V110.313H451.489V111.506H441.82V107.849H449.543V106.609H441.773V105.416H451.018Z" fill="#EAEDFF"/>
<path d="M289.013 103.369V104.562H276.158V103.369H279.941C280.365 101.776 280.474 100.583 280.506 99.7433H277.351V98.5505H281.981V99.037C281.966 99.8297 281.966 101.329 281.448 103.369H285.513C285.913 101.784 285.984 100.622 285.999 99.7433H282.892V98.5505H287.459V99.2411C287.443 100.144 287.443 101.525 287.02 103.369H289.013ZM287.459 105.896V107.026H279.234V108.313H287.098V109.396H279.234V110.746H287.538V111.908H277.743V105.896H287.459ZM302.784 103.542V104.766H300.603V112.065H299.112V98.0168H300.603V103.542H302.784ZM291.656 99.3823V107.293C293.618 107.293 295.666 107.128 297.903 106.665L298.076 107.921C295.674 108.407 293.445 108.533 291.342 108.533H290.181V99.3823H291.656ZM314.516 102.129V103.322H304.831V98.5191H306.307V102.129H314.516ZM315.991 105.096V106.288H303.12V105.096H315.991ZM314.61 110.526V111.751H304.721V107.623H306.212V110.526H314.61ZM331.197 98.0168V100.842H333.237V102.098H331.197V105.064H329.706V98.0168H331.197ZM322.282 98.6446V103.228C324.173 103.212 326.167 103.063 328.325 102.631L328.513 103.871C326.143 104.342 324.008 104.483 321.937 104.483H320.791V98.6446H322.282ZM331.197 105.708V109.286H323.616V110.699H331.684V111.908H322.141V108.141H329.706V106.885H322.109V105.708H331.197Z" fill="#4842B2"/>
<rect x="34.4924" y="130.498" width="281.269" height="31.3414" rx="15.6707" fill="white"/>
<rect x="34.4924" y="130.498" width="281.269" height="31.3414" rx="15.6707" stroke="url(#paint1_linear_216_2205)" stroke-width="0.803625"/>
<path d="M131.64 140.891C133.123 140.902 134.211 141.814 134.222 143.099C134.211 144.396 133.123 145.297 131.64 145.297C130.145 145.297 129.047 144.396 129.047 143.099C129.047 141.814 130.145 140.902 131.64 140.891ZM131.64 141.77C130.728 141.759 130.057 142.297 130.068 143.099C130.057 143.912 130.728 144.451 131.64 144.451C132.54 144.451 133.211 143.912 133.211 143.099C133.211 142.297 132.54 141.759 131.64 141.77ZM137.012 140.561V145.571H135.968V140.561H137.012ZM137.012 146.022V148.505H131.585V149.45H137.342V150.285H130.574V147.725H135.979V146.857H130.541V146.022H137.012ZM146.498 140.561V146.417H145.455V143.923H143.62V143.066H145.455V140.561H146.498ZM143.202 146.692C145.268 146.692 146.531 147.373 146.531 148.549C146.531 149.724 145.268 150.395 143.202 150.406C141.137 150.395 139.862 149.724 139.873 148.549C139.862 147.373 141.137 146.692 143.202 146.692ZM143.202 147.505C141.763 147.505 140.906 147.879 140.906 148.549C140.906 149.208 141.763 149.593 143.202 149.582C144.642 149.593 145.499 149.208 145.499 148.549C145.499 147.879 144.642 147.505 143.202 147.505ZM141.818 142.297C141.818 143.55 142.708 144.758 144.191 145.264L143.653 146.088C142.549 145.703 141.736 144.918 141.313 143.945C140.879 145.049 140.016 145.934 138.84 146.362L138.291 145.527C139.818 145 140.752 143.671 140.752 142.308V142.088H138.621V141.242H143.927V142.088H141.818V142.297ZM152.216 140.726C154.436 140.726 155.732 141.319 155.732 142.418C155.732 143.517 154.436 144.121 152.216 144.121C149.997 144.121 148.7 143.517 148.7 142.418C148.7 141.319 149.997 140.726 152.216 140.726ZM152.216 141.495C150.645 141.495 149.777 141.836 149.788 142.418C149.777 143.022 150.645 143.341 152.216 143.341C153.787 143.341 154.655 143.022 154.655 142.418C154.655 141.836 153.787 141.495 152.216 141.495ZM156.71 144.725V145.56H147.733V144.725H156.71ZM155.578 146.318V148.626H149.843V149.505H155.853V150.307H148.821V147.868H154.545V147.098H148.81V146.318H155.578ZM167.805 140.561V145.846H166.761V140.561H167.805ZM162.388 146.318V147.428H166.772V146.318H167.805V150.285H161.366V146.318H162.388ZM162.388 149.428H166.772V148.252H162.388V149.428ZM162.465 141.012C163.97 141.012 165.08 141.946 165.08 143.297C165.08 144.648 163.97 145.582 162.465 145.571C160.96 145.582 159.839 144.648 159.839 143.297C159.839 141.946 160.96 141.012 162.465 141.012ZM162.465 141.891C161.531 141.88 160.861 142.462 160.861 143.297C160.861 144.143 161.531 144.714 162.465 144.714C163.388 144.714 164.058 144.143 164.058 143.297C164.058 142.462 163.388 141.88 162.465 141.891ZM173.775 141.154V144.022H170.523V145.384C172.237 145.39 173.171 145.352 174.28 145.143L174.379 145.989C173.182 146.198 172.171 146.23 170.204 146.23H169.49V143.231H172.731V141.989H169.479V141.154H173.775ZM177.291 140.572V146.626H176.247V144.89H174.401V144.055H176.247V142.835H174.401V142H176.247V140.572H177.291ZM177.291 147.12V150.417H176.247V147.966H170.611V147.12H177.291ZM183.393 142.187V143.033H178.504V142.187H180.438V140.847H181.47V142.187H183.393ZM180.954 143.627C182.206 143.627 183.085 144.56 183.096 145.89C183.085 147.23 182.206 148.175 180.954 148.175C179.723 148.175 178.811 147.23 178.822 145.89C178.811 144.56 179.723 143.627 180.954 143.627ZM180.954 144.495C180.24 144.495 179.745 145.077 179.745 145.89C179.745 146.725 180.24 147.285 180.954 147.285C181.657 147.285 182.173 146.725 182.173 145.89C182.173 145.077 181.657 144.495 180.954 144.495ZM186.953 140.561V150.406H185.964V145.516H184.832V149.944H183.843V140.781H184.832V144.659H185.964V140.561H186.953ZM199.41 146.11V146.956H195.411V150.395H194.389V146.956H190.434V146.11H199.41ZM198.564 141.143V141.979H195.521C195.537 143.198 197.053 144.286 198.916 144.538L198.531 145.363C196.916 145.11 195.521 144.313 194.927 143.187C194.317 144.313 192.928 145.11 191.334 145.363L190.939 144.538C192.779 144.286 194.295 143.198 194.334 141.979H191.269V141.143H198.564ZM202.875 143.253C202.875 144.824 203.535 146.505 204.853 147.307L204.271 148.109C203.348 147.554 202.721 146.571 202.392 145.428C202.024 146.681 201.348 147.747 200.392 148.329L199.744 147.549C201.139 146.714 201.864 144.978 201.864 143.297V141.462H202.875V143.253ZM208.347 140.561V150.406H207.347V140.561H208.347ZM206.303 140.748V149.922H205.314V144.89H203.787V144.022H205.314V140.748H206.303ZM218.327 148.307V149.175H209.318V148.307H211.472V145.736C210.664 145.291 210.175 144.582 210.175 143.703C210.175 142.154 211.691 141.132 213.801 141.132C215.921 141.132 217.438 142.154 217.438 143.703C217.438 144.571 216.965 145.269 216.174 145.714V148.307H218.327ZM213.801 141.968C212.252 141.968 211.186 142.638 211.186 143.703C211.186 144.758 212.252 145.45 213.801 145.45C215.339 145.45 216.427 144.758 216.427 143.703C216.427 142.638 215.339 141.968 213.801 141.968ZM212.504 148.307H215.119V146.11C214.718 146.214 214.273 146.263 213.801 146.263C213.339 146.263 212.9 146.214 212.504 146.121V148.307ZM220.573 141.517L220.474 147.175H219.387L219.288 141.517H220.573ZM219.936 149.549C219.508 149.549 219.145 149.197 219.156 148.769C219.145 148.34 219.508 147.988 219.936 147.988C220.354 147.988 220.716 148.34 220.716 148.769C220.716 149.197 220.354 149.549 219.936 149.549Z" fill="#8695FF"/>
<path d="M184.328 187.439H183.042L185.899 179.485H187.294L190.162 187.439H188.876L188.151 185.341H185.053L184.328 187.439ZM185.404 184.33H187.8L186.624 180.935H186.569L185.404 184.33ZM190.891 179.485H192.364L194.88 185.649H194.979L197.495 179.485H198.967V187.439H197.813V181.693H197.736L195.407 187.428H194.451L192.111 181.682H192.045V187.439H190.891V179.485Z" fill="#B4BFFF"/>
<g filter="url(#filter2_d_216_2205)">
<path d="M183.976 214.361V206.407H186.811C188.657 206.407 189.568 207.516 189.568 208.989C189.568 210.45 188.657 211.571 186.811 211.571H185.185V214.361H183.976ZM185.185 210.538H186.69C187.865 210.538 188.349 209.879 188.349 208.989C188.349 208.088 187.865 207.439 186.69 207.439H185.185V210.538ZM190.562 206.407H192.034L194.55 212.57H194.649L197.165 206.407H198.637V214.361H197.484V208.615H197.407L195.077 214.35H194.122L191.781 208.604H191.715V214.361H190.562V206.407Z" fill="#B4BFFF"/>
</g>
<path d="M245.42 207.167C240.938 207.167 238.323 203.565 238.323 197.241C238.323 190.971 240.991 187.315 245.42 187.315C249.85 187.315 252.518 190.971 252.518 197.241C252.518 203.565 249.876 207.167 245.42 207.167ZM245.42 204.632C248.035 204.632 249.583 202.071 249.583 197.241C249.583 192.438 248.008 189.797 245.42 189.797C242.832 189.797 241.258 192.438 241.258 197.241C241.258 202.071 242.805 204.632 245.42 204.632ZM261.601 207.167C257.118 207.167 254.503 203.565 254.503 197.241C254.503 190.971 257.171 187.315 261.601 187.315C266.03 187.315 268.698 190.971 268.698 197.241C268.698 203.565 266.057 207.167 261.601 207.167ZM261.601 204.632C264.216 204.632 265.763 202.071 265.763 197.241C265.763 192.438 264.189 189.797 261.601 189.797C259.013 189.797 257.438 192.438 257.438 197.241C257.438 202.071 258.986 204.632 261.601 204.632Z" fill="#EAEDFF"/>
<path d="M274.931 201.82C274.269 201.82 273.708 201.294 273.725 200.652C273.708 200.01 274.269 199.483 274.931 199.483C275.576 199.483 276.136 200.01 276.136 200.652C276.136 201.294 275.576 201.82 274.931 201.82ZM274.931 195.318C274.269 195.318 273.708 194.791 273.725 194.149C273.708 193.507 274.269 192.98 274.931 192.98C275.576 192.98 276.136 193.507 276.136 194.149C276.136 194.791 275.576 195.318 274.931 195.318Z" fill="#EAEDFF"/>
<path d="M288.26 207.167C283.777 207.167 281.162 203.565 281.162 197.241C281.162 190.971 283.831 187.315 288.26 187.315C292.689 187.315 295.358 190.971 295.358 197.241C295.358 203.565 292.716 207.167 288.26 207.167ZM288.26 204.632C290.875 204.632 292.423 202.071 292.423 197.241C292.423 192.438 290.848 189.797 288.26 189.797C285.672 189.797 284.098 192.438 284.098 197.241C284.098 202.071 285.645 204.632 288.26 204.632ZM304.441 207.167C299.958 207.167 297.343 203.565 297.343 197.241C297.343 190.971 300.011 187.315 304.441 187.315C308.87 187.315 311.538 190.971 311.538 197.241C311.538 203.565 308.897 207.167 304.441 207.167ZM304.441 204.632C307.056 204.632 308.603 202.071 308.603 197.241C308.603 192.438 307.029 189.797 304.441 189.797C301.852 189.797 300.278 192.438 300.278 197.241C300.278 202.071 301.826 204.632 304.441 204.632Z" fill="#EAEDFF"/>
<path d="M351.575 187.439H350.29L353.147 179.485H354.542L357.41 187.439H356.124L355.399 185.341H352.301L351.575 187.439ZM352.652 184.33H355.047L353.872 180.935H353.817L352.652 184.33ZM358.139 179.485H359.611L362.127 185.649H362.226L364.742 179.485H366.215V187.439H365.061V181.693H364.984L362.655 187.428H361.699L359.359 181.682H359.293V187.439H358.139V179.485Z" fill="#B4BFFF"/>
<g filter="url(#filter3_d_216_2205)">
<path d="M351.224 214.361V206.407H354.059C355.904 206.407 356.816 207.516 356.816 208.989C356.816 210.45 355.904 211.571 354.059 211.571H352.432V214.361H351.224ZM352.432 210.538H353.938C355.113 210.538 355.597 209.879 355.597 208.989C355.597 208.088 355.113 207.439 353.938 207.439H352.432V210.538ZM357.81 206.407H359.282L361.798 212.57H361.897L364.413 206.407H365.885V214.361H364.731V208.615H364.654L362.325 214.35H361.369L359.029 208.604H358.963V214.361H357.81V206.407Z" fill="#B4BFFF"/>
</g>
<path d="M412.668 207.167C408.185 207.167 405.57 203.565 405.57 197.241C405.57 190.971 408.239 187.315 412.668 187.315C417.097 187.315 419.766 190.971 419.766 197.241C419.766 203.565 417.124 207.167 412.668 207.167ZM412.668 204.632C415.283 204.632 416.831 202.071 416.831 197.241C416.831 192.438 415.256 189.797 412.668 189.797C410.08 189.797 408.506 192.438 408.506 197.241C408.506 202.071 410.053 204.632 412.668 204.632ZM428.849 207.167C424.366 207.167 421.751 203.565 421.751 197.241C421.751 190.971 424.419 187.315 428.849 187.315C433.278 187.315 435.946 190.971 435.946 197.241C435.946 203.565 433.305 207.167 428.849 207.167ZM428.849 204.632C431.463 204.632 433.011 202.071 433.011 197.241C433.011 192.438 431.437 189.797 428.849 189.797C426.26 189.797 424.686 192.438 424.686 197.241C424.686 202.071 426.234 204.632 428.849 204.632Z" fill="#EAEDFF"/>
<path d="M442.179 201.82C441.516 201.82 440.956 201.294 440.973 200.652C440.956 200.01 441.516 199.483 442.179 199.483C442.824 199.483 443.384 200.01 443.384 200.652C443.384 201.294 442.824 201.82 442.179 201.82ZM442.179 195.318C441.516 195.318 440.956 194.791 440.973 194.149C440.956 193.507 441.516 192.98 442.179 192.98C442.824 192.98 443.384 193.507 443.384 194.149C443.384 194.791 442.824 195.318 442.179 195.318Z" fill="#EAEDFF"/>
<path d="M455.508 207.167C451.025 207.167 448.41 203.565 448.41 197.241C448.41 190.971 451.079 187.315 455.508 187.315C459.937 187.315 462.606 190.971 462.606 197.241C462.606 203.565 459.964 207.167 455.508 207.167ZM455.508 204.632C458.123 204.632 459.67 202.071 459.67 197.241C459.67 192.438 458.096 189.797 455.508 189.797C452.92 189.797 451.345 192.438 451.345 197.241C451.345 202.071 452.893 204.632 455.508 204.632ZM471.688 207.167C467.206 207.167 464.591 203.565 464.591 197.241C464.591 190.971 467.259 187.315 471.688 187.315C476.118 187.315 478.786 190.971 478.786 197.241C478.786 203.565 476.144 207.167 471.688 207.167ZM471.688 204.632C474.303 204.632 475.851 202.071 475.851 197.241C475.851 192.438 474.277 189.797 471.688 189.797C469.1 189.797 467.526 192.438 467.526 197.241C467.526 202.071 469.073 204.632 471.688 204.632Z" fill="#EAEDFF"/>
<rect x="34.2915" y="175.015" width="28.1269" height="14.6344" rx="7.31722" fill="#EAEDFF"/>
<rect x="34.2915" y="175.015" width="28.1269" height="14.6344" rx="7.31722" stroke="#7E8DF5" stroke-width="0.401813"/>
<path d="M44.8709 179.769V180.397H43.0486V181.443H44.7579V182.057H43.0486V183.3C43.8362 183.293 44.3836 183.265 45.0334 183.166L45.0969 183.809C44.3553 183.936 43.7267 183.957 42.7308 183.957H42.3V179.769H44.8709ZM47.5761 179.077V185.462H46.8203V182.22H46.1635V185.151H45.4219V179.19H46.1635V181.584H46.8203V179.077H47.5761ZM53.2153 179.698V180.419C53.2153 181.273 53.2153 182.156 52.9822 183.498L52.1841 183.427C52.4313 182.17 52.4313 181.245 52.4313 180.419V180.334H48.7514V179.698H53.2153ZM53.9569 183.943V184.586H48.1369V183.943H53.9569Z" fill="#7E8DF5"/>
<rect x="66.8384" y="174.899" width="83.9789" height="14.8671" rx="7.43354" fill="#FDFDFD"/>
<rect x="66.8384" y="174.899" width="83.9789" height="14.8671" rx="7.43354" stroke="#E5E5E5" stroke-width="0.401813"/>
<path d="M74.454 179.854V180.306H72.4975V181.513H74.3622V181.958H72.4975V183.378C73.4298 183.374 74.0055 183.35 74.6941 183.223L74.7436 183.682C74.009 183.823 73.4016 183.851 72.3704 183.851H71.9678V179.854H74.454ZM77.0956 179.126V185.405H76.5588V182.114H75.6971V185.087H75.1603V179.26H75.6971V181.655H76.5588V179.126H77.0956ZM82.7348 179.797V180.426C82.7348 181.217 82.7348 182.114 82.5017 183.477L81.9367 183.42C82.1909 182.135 82.1909 181.196 82.1909 180.426V180.256H78.4051V179.797H82.7348ZM83.5047 184.021V184.48H77.7835V184.021H83.5047ZM90.6935 179.126V182.375H90.1355V180.743H88.737V180.284H90.1355V179.126H90.6935ZM90.6935 182.693V184.19H87.1831V184.875H90.9266V185.32H86.6393V183.766H90.1426V183.138H86.6251V182.693H90.6935ZM87.6281 179.924C87.621 180.751 88.2709 181.499 89.1891 181.803L88.8924 182.234C88.1967 181.987 87.6422 181.492 87.3668 180.856C87.0984 181.573 86.5298 182.121 85.7846 182.389L85.4809 181.944C86.4274 181.633 87.0772 180.842 87.0842 179.924V179.331H87.6281V179.924ZM96.7635 179.126V182.869H96.2056V181.224H94.9413V180.765H96.2056V179.126H96.7635ZM94.6799 183.067C95.9866 183.067 96.7847 183.491 96.7847 184.233C96.7847 184.974 95.9866 185.398 94.6799 185.405C93.3732 185.398 92.5751 184.974 92.5751 184.233C92.5751 183.491 93.3732 183.067 94.6799 183.067ZM94.6799 183.498C93.7193 183.498 93.119 183.774 93.126 184.233C93.119 184.685 93.7193 184.96 94.6799 184.96C95.6405 184.96 96.2338 184.685 96.2338 184.233C96.2338 183.774 95.6405 183.498 94.6799 183.498ZM93.7405 180.277C93.7405 181.097 94.3691 181.874 95.2873 182.191L94.9978 182.636C94.2915 182.382 93.7441 181.856 93.4792 181.203C93.2037 181.941 92.621 182.53 91.8759 182.813L91.5863 182.368C92.5186 182.029 93.1825 181.181 93.1825 180.284V180.051H91.7629V179.585H95.1461V180.051H93.7405V180.277ZM102.487 179.126V181.718H103.54V182.177H102.487V185.405H101.937V179.126H102.487ZM101.329 180.136V180.595H97.5928V180.136H99.2102V179.204H99.7611V180.136H101.329ZM99.4927 181.118C100.383 181.118 101.025 181.711 101.032 182.559C101.025 183.406 100.383 184 99.4927 184C98.5957 184 97.9459 183.406 97.953 182.559C97.9459 181.711 98.5957 181.118 99.4927 181.118ZM99.4927 181.584C98.9065 181.584 98.4756 181.994 98.4827 182.559C98.4756 183.131 98.9065 183.533 99.4927 183.526C100.072 183.533 100.496 183.131 100.503 182.559C100.496 181.994 100.072 181.584 99.4927 181.584ZM108.889 179.126V185.405H108.332V179.126H108.889ZM107.032 179.811C107.025 181.619 106.184 183.216 104.08 184.226L103.776 183.774C105.474 182.968 106.34 181.764 106.467 180.263H104.065V179.811H107.032Z" fill="#BDBDBD"/>
<path d="M143.962 184.645C144.282 185.089 144.944 185.089 145.265 184.645L147.174 182C147.557 181.469 147.178 180.726 146.522 180.726H142.705C142.049 180.726 141.669 181.469 142.053 182L143.962 184.645Z" fill="#B4BFFF"/>
<rect x="34.2915" y="199.927" width="28.1269" height="14.6344" rx="7.31722" fill="#EAEDFF"/>
<rect x="34.2915" y="199.927" width="28.1269" height="14.6344" rx="7.31722" stroke="#7E8DF5" stroke-width="0.401813"/>
<path d="M44.2988 205.182C44.2988 205.988 44.8568 206.722 45.8174 207.026L45.4995 207.548C44.7791 207.319 44.2529 206.842 43.9739 206.242C43.6985 206.934 43.144 207.481 42.3847 207.746L42.0386 207.209C43.0275 206.885 43.6208 206.065 43.6278 205.189V205.013H42.2364V204.469H45.662V205.013H44.2988V205.182ZM47.0605 204.017V205.585H47.9787V206.136H47.0605V207.817H46.3895V204.017H47.0605ZM45.0193 207.972C46.3259 207.972 47.117 208.403 47.117 209.145C47.117 209.893 46.3259 210.338 45.0193 210.331C43.6985 210.338 42.8933 209.893 42.8933 209.145C42.8933 208.403 43.6985 207.972 45.0193 207.972ZM45.0193 208.502C44.1011 208.502 43.5572 208.735 43.5643 209.145C43.5572 209.569 44.1011 209.802 45.0193 209.802C45.9304 209.802 46.4601 209.569 46.4601 209.145C46.4601 208.735 45.9304 208.502 45.0193 208.502ZM53.9499 208.989V209.54H48.1581V208.989H50.6938V207.485H51.3577V208.989H53.9499ZM51.3718 204.9C51.3718 205.903 52.4737 206.842 53.6956 207.047L53.406 207.598C52.3818 207.393 51.4389 206.761 51.0187 205.889C50.6019 206.757 49.6696 207.4 48.6525 207.598L48.3559 207.047C49.5707 206.842 50.6655 205.903 50.6655 204.9V204.42H51.3718V204.9Z" fill="#7E8DF5"/>
<rect x="66.8384" y="199.811" width="83.9789" height="14.8671" rx="7.43354" fill="#FDFDFD"/>
<rect x="66.8384" y="199.811" width="83.9789" height="14.8671" rx="7.43354" stroke="#E5E5E5" stroke-width="0.401813"/>
<path d="M77.0539 205.116C77.0539 205.935 77.6683 206.669 78.5936 206.973L78.3323 207.411C77.6083 207.174 77.0609 206.673 76.7925 206.041C76.5206 206.761 75.9414 207.323 75.1892 207.595L74.9067 207.15C75.8461 206.832 76.5029 206.02 76.51 205.116V204.847H75.0762V204.388H78.4665V204.847H77.0539V205.116ZM79.8367 203.922V205.525H80.7832V205.991H79.8367V207.715H79.2858V203.922H79.8367ZM77.8237 207.884C79.1163 207.884 79.8932 208.308 79.8932 209.029C79.8932 209.763 79.1163 210.187 77.8237 210.187C76.5312 210.187 75.7401 209.763 75.7401 209.029C75.7401 208.308 76.5312 207.884 77.8237 207.884ZM77.8237 208.329C76.8773 208.329 76.291 208.591 76.2981 209.029C76.291 209.481 76.8773 209.742 77.8237 209.742C78.7773 209.742 79.3564 209.481 79.3564 209.029C79.3564 208.591 78.7773 208.329 77.8237 208.329ZM86.7473 208.923V209.382H80.9979V208.923H83.5689V207.383H84.1127V208.923H86.7473ZM84.1269 204.833C84.1269 205.885 85.37 206.804 86.4647 206.994L86.2175 207.453C85.2605 207.259 84.2505 206.609 83.8443 205.702C83.4311 206.606 82.4282 207.259 81.4711 207.453L81.2239 206.994C82.3187 206.804 83.5477 205.885 83.5477 204.833V204.353H84.1269V204.833ZM93.8867 203.922V207.291H93.3357V203.922H93.8867ZM90.3692 207.609V208.372H93.3357V207.609H93.8867V210.116H89.8183V207.609H90.3692ZM90.3692 209.664H93.3357V208.817H90.3692V209.664ZM90.4964 204.233C91.4499 204.226 92.1421 204.812 92.1421 205.674C92.1421 206.528 91.4499 207.114 90.4964 207.114C89.5429 207.114 88.8507 206.528 88.8507 205.674C88.8507 204.812 89.5429 204.226 90.4964 204.233ZM90.4964 204.699C89.8536 204.692 89.3875 205.101 89.3945 205.674C89.3875 206.246 89.8536 206.655 90.4964 206.655C91.1321 206.655 91.5982 206.246 91.5982 205.674C91.5982 205.101 91.1321 204.692 90.4964 204.699ZM97.753 204.31V206.069H95.5917V207.044C96.7712 207.044 97.3787 207.026 98.1203 206.888L98.1768 207.348C97.3928 207.475 96.7571 207.496 95.4858 207.496H95.0408V205.645H97.2021V204.755H95.0267V204.31H97.753ZM99.9779 203.929V207.785H99.4199V206.62H98.1697V206.161H99.4199V205.313H98.1697V204.861H99.4199V203.929H99.9779ZM99.9779 208.124V210.215H99.4199V208.577H95.7471V208.124H99.9779ZM105.702 203.922V206.514H106.754V206.973H105.702V210.201H105.151V203.922H105.702ZM104.543 204.932V205.391H100.807V204.932H102.425V204H102.975V204.932H104.543ZM102.707 205.914C103.597 205.914 104.24 206.507 104.247 207.355C104.24 208.202 103.597 208.795 102.707 208.795C101.81 208.795 101.16 208.202 101.167 207.355C101.16 206.507 101.81 205.914 102.707 205.914ZM102.707 206.38C102.121 206.38 101.69 206.79 101.697 207.355C101.69 207.927 102.121 208.329 102.707 208.322C103.286 208.329 103.71 207.927 103.717 207.355C103.71 206.79 103.286 206.38 102.707 206.38ZM112.104 203.922V210.201H111.546V203.922H112.104ZM110.246 204.607C110.239 206.415 109.399 208.011 107.294 209.021L106.99 208.569C108.689 207.764 109.554 206.56 109.681 205.059H107.28V204.607H110.246Z" fill="#BDBDBD"/>
</g>
</g>
<rect x="20.5" y="20.5" width="472" height="265" rx="19.5" stroke="#B4BFFF" shape-rendering="crispEdges"/>
</g>
<defs>
<filter id="filter0_d_216_2205" x="0" y="0" width="513" height="306" filterUnits="userSpaceOnUse" color-interpolation-filters="sRGB">
<feFlood flood-opacity="0" result="BackgroundImageFix"/>
<feColorMatrix in="SourceAlpha" type="matrix" values="0 0 0 0 0 0 0 0 0 0 0 0 0 0 0 0 0 0 127 0" result="hardAlpha"/>
<feOffset/>
<feGaussianBlur stdDeviation="10"/>
<feComposite in2="hardAlpha" operator="out"/>
<feColorMatrix type="matrix" values="0 0 0 0 0.706731 0 0 0 0 0.750721 0 0 0 0 1 0 0 0 0.3 0"/>
<feBlend mode="normal" in2="BackgroundImageFix" result="effect1_dropShadow_216_2205"/>
<feBlend mode="normal" in="SourceGraphic" in2="effect1_dropShadow_216_2205" result="shape"/>
</filter>
<filter id="filter1_d_216_2205" x="5.96375" y="11.9637" width="501.462" height="282.073" filterUnits="userSpaceOnUse" color-interpolation-filters="sRGB">
<feFlood flood-opacity="0" result="BackgroundImageFix"/>
<feColorMatrix in="SourceAlpha" type="matrix" values="0 0 0 0 0 0 0 0 0 0 0 0 0 0 0 0 0 0 127 0" result="hardAlpha"/>
<feOffset/>
<feGaussianBlur stdDeviation="4.01813"/>
<feComposite in2="hardAlpha" operator="out"/>
<feColorMatrix type="matrix" values="0 0 0 0 0.706731 0 0 0 0 0.750721 0 0 0 0 1 0 0 0 0.3 0"/>
<feBlend mode="normal" in2="BackgroundImageFix" result="effect1_dropShadow_216_2205"/>
<feBlend mode="normal" in="SourceGraphic" in2="effect1_dropShadow_216_2205" result="shape"/>
</filter>
<filter id="filter2_d_216_2205" x="158.157" y="193.584" width="66.2991" height="34.5559" filterUnits="userSpaceOnUse" color-interpolation-filters="sRGB">
<feFlood flood-opacity="0" result="BackgroundImageFix"/>
<feColorMatrix in="SourceAlpha" type="matrix" values="0 0 0 0 0 0 0 0 0 0 0 0 0 0 0 0 0 0 127 0" result="hardAlpha"/>
<feOffset/>
<feGaussianBlur stdDeviation="4.01813"/>
<feComposite in2="hardAlpha" operator="out"/>
<feColorMatrix type="matrix" values="0 0 0 0 0.706731 0 0 0 0 0.750721 0 0 0 0 1 0 0 0 0.3 0"/>
<feBlend mode="normal" in2="BackgroundImageFix" result="effect1_dropShadow_216_2205"/>
<feBlend mode="normal" in="SourceGraphic" in2="effect1_dropShadow_216_2205" result="shape"/>
</filter>
<filter id="filter3_d_216_2205" x="325.405" y="193.584" width="66.2991" height="34.5559" filterUnits="userSpaceOnUse" color-interpolation-filters="sRGB">
<feFlood flood-opacity="0" result="BackgroundImageFix"/>
<feColorMatrix in="SourceAlpha" type="matrix" values="0 0 0 0 0 0 0 0 0 0 0 0 0 0 0 0 0 0 127 0" result="hardAlpha"/>
<feOffset/>
<feGaussianBlur stdDeviation="4.01813"/>
<feComposite in2="hardAlpha" operator="out"/>
<feColorMatrix type="matrix" values="0 0 0 0 0.706731 0 0 0 0 0.750721 0 0 0 0 1 0 0 0 0.3 0"/>
<feBlend mode="normal" in2="BackgroundImageFix" result="effect1_dropShadow_216_2205"/>
<feBlend mode="normal" in="SourceGraphic" in2="effect1_dropShadow_216_2205" result="shape"/>
</filter>
<linearGradient id="paint0_linear_216_2205" x1="256.695" y1="275.754" x2="256.695" y2="20" gradientUnits="userSpaceOnUse">
<stop stop-color="#FDFDFD"/>
<stop offset="1" stop-color="#EAEDFF"/>
</linearGradient>
<linearGradient id="paint1_linear_216_2205" x1="175.127" y1="130.097" x2="175.127" y2="162.242" gradientUnits="userSpaceOnUse">
<stop stop-color="#B4BFFF"/>
<stop offset="1" stop-color="#7E8DF5"/>
</linearGradient>
<clipPath id="clip0_216_2205">
<rect x="20" y="20" width="473" height="266" rx="20" fill="white"/>
</clipPath>
</defs>
</svg>
