<svg width="473" height="266" viewBox="0 0 473 266" fill="none" xmlns="http://www.w3.org/2000/svg">
<g clip-path="url(#clip0_216_2205)">
<rect width="473" height="266" rx="20" fill="#FDFDFD" fill-opacity="0.866667"/>
<g filter="url(#filter0_d_216_2205)">
<rect x="-5.69653" y="-0.00195312" width="485.393" height="266.002" rx="24.1089" fill="#FDFDFD" shape-rendering="crispEdges"/>
<path d="M459.606 20.0898L443.533 36.1625M443.533 20.0898L459.606 36.1625" stroke="#7E8DF5" stroke-width="1.60726" stroke-linecap="round" stroke-linejoin="round"/>
<rect x="116.857" y="23.8301" width="241.089" height="23.0545" rx="11.5272" fill="#F4F6FF"/>
<rect x="116.857" y="23.8301" width="241.089" height="23.0545" rx="11.5272" stroke="#B4BFFF" stroke-width="2.00908"/>
<path d="M200.912 31.7158C200.912 32.9793 201.857 34.1879 203.373 34.6713L202.835 35.4844C201.703 35.1108 200.846 34.3307 200.407 33.3419C199.962 34.4131 199.088 35.2591 197.913 35.6712L197.374 34.8691C198.902 34.3417 199.846 33.0562 199.857 31.7158V31.4411H197.649V30.5951H203.077V31.4411H200.912V31.7158ZM205.428 29.9469V35.8909H204.384V29.9469H205.428ZM205.428 36.3853V39.7913H204.384V37.2313H198.759V36.3853H205.428ZM214.903 29.9469V35.3086H213.87V33.1331H212.025V32.2761H213.87V29.9469H214.903ZM209.53 35.7481V36.8797H213.87V35.7481H214.903V39.6705H208.498V35.7481H209.53ZM209.53 38.8245H213.87V37.6928H209.53V38.8245ZM210.234 31.4851C210.234 32.7046 211.124 33.9352 212.607 34.4406L212.069 35.2536C210.959 34.8636 210.146 34.078 209.717 33.1002C209.283 34.1934 208.426 35.0614 207.256 35.4734L206.718 34.6493C208.234 34.122 209.168 32.8255 209.168 31.4741V31.3422H207.036V30.4962H212.343V31.3422H210.234V31.4851ZM221.405 30.2765C222.889 30.2875 223.976 31.1994 223.987 32.4849C223.976 33.7814 222.889 34.6823 221.405 34.6823C219.911 34.6823 218.812 33.7814 218.812 32.4849C218.812 31.1994 219.911 30.2875 221.405 30.2765ZM221.405 31.1554C220.493 31.1444 219.823 31.6828 219.834 32.4849C219.823 33.2979 220.493 33.8363 221.405 33.8363C222.306 33.8363 222.977 33.2979 222.977 32.4849C222.977 31.6828 222.306 31.1444 221.405 31.1554ZM226.778 29.9469V34.957H225.734V29.9469H226.778ZM226.778 35.4075V37.8906H221.35V38.8354H227.108V39.6705H220.34V37.1105H225.745V36.2425H220.307V35.4075H226.778ZM236.264 29.9469V35.803H235.221V33.3089H233.386V32.4519H235.221V29.9469H236.264ZM232.968 36.0777C235.034 36.0777 236.297 36.7589 236.297 37.9345C236.297 39.1101 235.034 39.7803 232.968 39.7913C230.903 39.7803 229.628 39.1101 229.639 37.9345C229.628 36.7589 230.903 36.0777 232.968 36.0777ZM232.968 36.8907C231.529 36.8907 230.672 37.2643 230.672 37.9345C230.672 38.5937 231.529 38.9783 232.968 38.9673C234.408 38.9783 235.265 38.5937 235.265 37.9345C235.265 37.2643 234.408 36.8907 232.968 36.8907ZM231.584 31.6828C231.584 32.9354 232.474 34.1439 233.957 34.6493L233.419 35.4734C232.315 35.0888 231.501 34.3033 231.078 33.3309C230.644 34.4351 229.782 35.3196 228.606 35.7481L228.057 34.913C229.584 34.3857 230.518 33.0562 230.518 31.6938V31.4741H228.387V30.6281H233.693V31.4741H231.584V31.6828ZM248.952 34.5724V35.4294H239.965V34.5724H248.952ZM247.909 32.8694V33.7154H241.086V30.2984H247.843V31.1554H242.118V32.8694H247.909ZM244.448 36.1985C246.568 36.1985 247.843 36.8468 247.843 37.9894C247.843 39.1321 246.568 39.7803 244.448 39.7694C242.316 39.7803 241.031 39.1321 241.031 37.9894C241.031 36.8468 242.316 36.1985 244.448 36.1985ZM244.448 37.0006C242.942 37.0116 242.085 37.3632 242.085 37.9894C242.085 38.6157 242.942 38.9673 244.448 38.9673C245.931 38.9673 246.799 38.6157 246.799 37.9894C246.799 37.3632 245.931 37.0116 244.448 37.0006ZM258.406 35.3196V36.1656H249.396V35.3196H253.385V34.3857H250.55V31.8806H256.23V31.0016H250.528V30.1776H257.274V32.6497H251.583V33.5726H257.472V34.3857H254.417V35.3196H258.406ZM257.329 36.8578V39.7144H256.274V37.6928H250.407V36.8578H257.329ZM266.519 29.9469V33.9352H268.101V34.8032H266.519V39.7913H265.486V29.9469H266.519ZM264.629 31.4851V32.342H258.795V31.4851H261.223V30.0787H262.267V31.4851H264.629ZM261.75 33.0672C263.157 33.0672 264.189 34.0121 264.2 35.3525C264.189 36.7039 263.157 37.6378 261.75 37.6488C260.333 37.6378 259.3 36.7039 259.3 35.3525C259.3 34.0121 260.333 33.0672 261.75 33.0672ZM261.75 33.9242C260.915 33.9242 260.289 34.5065 260.3 35.3525C260.289 36.2095 260.915 36.7809 261.75 36.7699C262.585 36.7809 263.2 36.2095 263.2 35.3525C263.2 34.5065 262.585 33.9242 261.75 33.9242ZM276.477 29.9469V39.7913H275.423V29.9469H276.477ZM273.544 31.0016C273.544 33.8802 272.313 36.3853 268.94 38.0004L268.391 37.1544C271.011 35.9074 272.286 34.133 272.489 31.8366H268.863V31.0016H273.544Z" fill="#7E8DF5"/>
<rect x="98.3738" y="216.176" width="98.4448" height="23.0545" rx="11.5272" fill="#F4F6FF"/>
<rect x="98.3738" y="216.176" width="98.4448" height="23.0545" rx="11.5272" stroke="#B4BFFF" stroke-width="1.20545"/>
<path d="M132.735 224.193C132.735 225.127 133.614 225.929 135.053 226.237L134.625 227.05C133.493 226.797 132.664 226.231 132.23 225.479C131.807 226.297 130.961 226.913 129.79 227.182L129.351 226.369C130.801 226.061 131.691 225.171 131.691 224.193H129.571V223.369H131.691V222.315H132.735V223.369H134.845V224.193H132.735ZM137.119 222.304V232.137H136.086V222.304H137.119ZM128.922 227.786C130.79 227.786 133.262 227.775 135.405 227.5L135.482 228.259C134.581 228.407 133.652 228.5 132.746 228.555V231.84H131.702V228.61C130.757 228.649 129.856 228.654 129.065 228.654L128.922 227.786ZM147.385 230.028V230.884H138.376V230.028H142.32V227.687H143.353V230.028H147.385ZM143.375 223.666C143.375 225.226 145.089 226.687 146.99 227.006L146.539 227.863C144.946 227.544 143.479 226.561 142.826 225.204C142.177 226.556 140.727 227.555 139.145 227.863L138.683 227.006C140.573 226.687 142.276 225.226 142.276 223.666V222.919H143.375V223.666ZM155.487 222.293V226.281H157.069V227.149H155.487V232.137H154.454V222.293H155.487ZM153.597 223.831V224.688H147.763V223.831H150.191V222.424H151.235V223.831H153.597ZM150.719 225.413C152.125 225.413 153.158 226.358 153.169 227.698C153.158 229.05 152.125 229.984 150.719 229.995C149.301 229.984 148.269 229.05 148.269 227.698C148.269 226.358 149.301 225.413 150.719 225.413ZM150.719 226.27C149.884 226.27 149.257 226.852 149.268 227.698C149.257 228.555 149.884 229.127 150.719 229.116C151.554 229.127 152.169 228.555 152.169 227.698C152.169 226.852 151.554 226.27 150.719 226.27ZM165.446 222.293V232.137H164.391V222.293H165.446ZM162.512 223.347C162.512 226.226 161.282 228.731 157.909 230.346L157.359 229.5C159.98 228.253 161.254 226.479 161.458 224.182H157.832V223.347H162.512Z" fill="#7E8DF5"/>
<rect x="277.182" y="216.176" width="98.4448" height="23.0545" rx="11.5272" fill="#F4F6FF"/>
<rect x="277.182" y="216.176" width="98.4448" height="23.0545" rx="11.5272" stroke="#B4BFFF" stroke-width="1.20545"/>
<path d="M316.729 226.918V227.775H307.741V226.918H316.729ZM315.685 225.215V226.061H308.862V222.644H315.619V223.501H309.895V225.215H315.685ZM312.224 228.544C314.345 228.544 315.619 229.192 315.619 230.335C315.619 231.478 314.345 232.126 312.224 232.115C310.093 232.126 308.807 231.478 308.807 230.335C308.807 229.192 310.093 228.544 312.224 228.544ZM312.224 229.346C310.719 229.357 309.862 229.709 309.862 230.335C309.862 230.961 310.719 231.313 312.224 231.313C313.707 231.313 314.575 230.961 314.575 230.335C314.575 229.709 313.707 229.357 312.224 229.346ZM326.182 227.665V228.511H317.173V227.665H321.161V226.731H318.326V224.226H324.007V223.347H318.304V222.523H325.05V224.995H319.359V225.918H325.248V226.731H322.194V227.665H326.182ZM325.105 229.203V232.06H324.051V230.038H318.183V229.203H325.105ZM334.295 222.293V226.281H335.877V227.149H334.295V232.137H333.262V222.293H334.295ZM332.405 223.831V224.688H326.571V223.831H328.999V222.424H330.043V223.831H332.405ZM329.527 225.413C330.933 225.413 331.966 226.358 331.977 227.698C331.966 229.05 330.933 229.984 329.527 229.995C328.109 229.984 327.076 229.05 327.076 227.698C327.076 226.358 328.109 225.413 329.527 225.413ZM329.527 226.27C328.692 226.27 328.065 226.852 328.076 227.698C328.065 228.555 328.692 229.127 329.527 229.116C330.362 229.127 330.977 228.555 330.977 227.698C330.977 226.852 330.362 226.27 329.527 226.27ZM344.254 222.293V232.137H343.199V222.293H344.254ZM341.32 223.347C341.32 226.226 340.09 228.731 336.717 230.346L336.167 229.5C338.788 228.253 340.062 226.479 340.265 224.182H336.64V223.347H341.32Z" fill="#7E8DF5"/>
<rect x="102.794" y="69.5137" width="126.974" height="30.1362" rx="15.0681" fill="#B4BFFF"/>
<path d="M122.294 90.5007C119.657 90.5007 118.119 88.3818 118.119 84.6618C118.119 80.9733 119.688 78.8229 122.294 78.8229C124.899 78.8229 126.469 80.9733 126.469 84.6618C126.469 88.3818 124.915 90.5007 122.294 90.5007ZM122.294 89.0096C123.832 89.0096 124.742 87.5028 124.742 84.6618C124.742 81.8366 123.816 80.2827 122.294 80.2827C120.771 80.2827 119.845 81.8366 119.845 84.6618C119.845 87.5028 120.756 89.0096 122.294 89.0096ZM131.812 90.5007C129.175 90.5007 127.637 88.3818 127.637 84.6618C127.637 80.9733 129.206 78.8229 131.812 78.8229C134.417 78.8229 135.987 80.9733 135.987 84.6618C135.987 88.3818 134.433 90.5007 131.812 90.5007ZM131.812 89.0096C133.35 89.0096 134.26 87.5028 134.26 84.6618C134.26 81.8366 133.334 80.2827 131.812 80.2827C130.289 80.2827 129.363 81.8366 129.363 84.6618C129.363 87.5028 130.274 89.0096 131.812 89.0096ZM138.065 90.4536C137.453 90.4536 136.935 89.9514 136.951 89.3392C136.935 88.7271 137.453 88.2248 138.065 88.2248C138.662 88.2248 139.18 88.7271 139.18 89.3392C139.18 89.9514 138.662 90.4536 138.065 90.4536Z" fill="#EAEDFF"/>
<path d="M150.823 90.5007C148.186 90.5007 146.648 88.3818 146.648 84.6618C146.648 80.9733 148.217 78.8229 150.823 78.8229C153.428 78.8229 154.998 80.9733 154.998 84.6618C154.998 88.3818 153.444 90.5007 150.823 90.5007ZM150.823 89.0096C152.361 89.0096 153.271 87.5028 153.271 84.6618C153.271 81.8366 152.345 80.2827 150.823 80.2827C149.3 80.2827 148.374 81.8366 148.374 84.6618C148.374 87.5028 149.284 89.0096 150.823 89.0096ZM160.341 90.5007C157.704 90.5007 156.166 88.3818 156.166 84.6618C156.166 80.9733 157.735 78.8229 160.341 78.8229C162.946 78.8229 164.516 80.9733 164.516 84.6618C164.516 88.3818 162.962 90.5007 160.341 90.5007ZM160.341 89.0096C161.879 89.0096 162.789 87.5028 162.789 84.6618C162.789 81.8366 161.863 80.2827 160.341 80.2827C158.818 80.2827 157.892 81.8366 157.892 84.6618C157.892 87.5028 158.802 89.0096 160.341 89.0096ZM166.594 90.4536C165.982 90.4536 165.464 89.9514 165.48 89.3392C165.464 88.7271 165.982 88.2248 166.594 88.2248C167.19 88.2248 167.708 88.7271 167.708 89.3392C167.708 89.9514 167.19 90.4536 166.594 90.4536Z" fill="#EAEDFF"/>
<path d="M186.594 77.6301V85.8704H185.103V85.1955H182.356V84.2537H185.103V77.6301H186.594ZM174.869 82.8097C177.584 82.8254 181.037 82.794 184.067 82.4644L184.145 83.4219C182.819 83.6024 181.446 83.7122 180.096 83.7829V85.9018H178.62V83.8456C177.349 83.877 176.14 83.8849 175.042 83.877L174.869 82.8097ZM186.594 86.3413V89.3706H178.495V90.4536H187.018V91.5366H177.035V88.3818H185.118V87.3772H176.972V86.3413H186.594ZM179.436 77.8655C181.524 77.8655 182.937 78.6974 182.952 79.9844C182.937 81.3029 181.524 82.0877 179.436 82.0877C177.302 82.0877 175.905 81.3029 175.921 79.9844C175.905 78.6974 177.302 77.8655 179.436 77.8655ZM179.436 78.87C178.134 78.87 177.318 79.3095 177.318 79.9844C177.318 80.6594 178.134 81.0832 179.436 81.0832C180.708 81.0832 181.54 80.6594 181.54 79.9844C181.54 79.3095 180.708 78.87 179.436 78.87ZM201.26 88.68V89.92H188.389V88.68H191.466V85.0071C190.312 84.3715 189.614 83.3591 189.614 82.1034C189.614 79.8903 191.78 78.4306 194.793 78.4306C197.823 78.4306 199.989 79.8903 199.989 82.1034C199.989 83.3434 199.314 84.3401 198.184 84.9757V88.68H201.26ZM194.793 79.6234C192.58 79.6234 191.058 80.5809 191.058 82.1034C191.058 83.6102 192.58 84.599 194.793 84.599C196.991 84.599 198.545 83.6102 198.545 82.1034C198.545 80.5809 196.991 79.6234 194.793 79.6234ZM192.941 88.68H196.677V85.5408C196.104 85.6899 195.468 85.7605 194.793 85.7605C194.134 85.7605 193.506 85.6899 192.941 85.5565V88.68ZM205.865 78.0852C207.984 78.1009 209.538 79.4037 209.554 81.2401C209.538 83.0922 207.984 84.3793 205.865 84.3793C203.731 84.3793 202.161 83.0922 202.161 81.2401C202.161 79.4037 203.731 78.1009 205.865 78.0852ZM205.865 79.3409C204.562 79.3252 203.605 80.0943 203.621 81.2401C203.605 82.4016 204.562 83.1707 205.865 83.1707C207.152 83.1707 208.11 82.4016 208.11 81.2401C208.11 80.0943 207.152 79.3252 205.865 79.3409ZM213.541 77.6144V84.7717H212.049V77.6144H213.541ZM213.541 85.4152V88.9625H205.787V90.3124H214.011V91.5052H204.343V87.8481H212.065V86.6081H204.296V85.4152H213.541Z" fill="#EAEDFF"/>
<path d="M29.437 81.5954C29.4213 84.1695 30.9752 86.7436 33.1569 87.7168L32.2622 88.894C30.6455 88.1249 29.3663 86.5474 28.7149 84.6247C28.0557 86.6809 26.7608 88.3839 25.0735 89.2079L24.1631 87.9522C26.3763 86.9634 27.9301 84.2794 27.9301 81.5954V79.1939H29.437V81.5954ZM35.9194 78.0167V92.1116H34.4283V78.0167H35.9194ZM42.6749 80.5437C42.6749 82.3331 43.9149 84.0439 46.0652 84.766L45.3118 85.9274C43.7187 85.3781 42.5493 84.2794 41.9372 82.8981C41.325 84.4206 40.1086 85.6135 38.4527 86.1943L37.6522 85.0328C39.8496 84.2794 41.1681 82.4743 41.1838 80.5281V80.1514H38.0917V78.9428H45.7042V80.1514H42.6749V80.5437ZM48.812 78.0167V81.6268H50.8525V82.8824H48.812V86.4925H47.3209V78.0167H48.812ZM48.812 87.1831V92.0802H47.3209V88.3917H39.52V87.1831H48.812ZM62.2069 78.0167V83.7143H64.4671V84.9543H62.2069V92.0802H60.7315V78.0167H62.2069ZM59.5072 80.2141V81.4384H51.1727V80.2141H54.6415V78.2051H56.1326V80.2141H59.5072ZM55.3949 82.4743C57.4039 82.4743 58.8794 83.8242 58.895 85.7391C58.8794 87.6697 57.4039 89.0038 55.3949 89.0195C53.3701 89.0038 51.8947 87.6697 51.8947 85.7391C51.8947 83.8242 53.3701 82.4743 55.3949 82.4743ZM55.3949 83.6986C54.202 83.6986 53.3073 84.5305 53.323 85.7391C53.3073 86.9634 54.202 87.7796 55.3949 87.7639C56.5877 87.7796 57.4667 86.9634 57.4667 85.7391C57.4667 84.5305 56.5877 83.6986 55.3949 83.6986ZM76.1197 82.129V83.3219H66.4354V78.519H67.9108V82.129H76.1197ZM77.5952 85.0956V86.2885H64.7245V85.0956H77.5952ZM76.2139 90.5264V91.7506H66.3255V87.6226H67.8166V90.5264H76.2139ZM92.8014 78.0167V80.842H94.8418V82.0976H92.8014V85.0642H91.3103V78.0167H92.8014ZM83.8861 78.6445V83.2278C85.7774 83.2121 87.7708 83.0629 89.929 82.6313L90.1174 83.8713C87.7473 84.3422 85.6126 84.4834 83.5408 84.4834H82.395V78.6445H83.8861ZM92.8014 85.7077V89.2864H85.2202V90.699H93.2879V91.9076H83.7448V88.1406H91.3103V86.8849H83.7134V85.7077H92.8014Z" fill="#4842B2"/>
<rect x="320.578" y="69.5137" width="126.974" height="30.1362" rx="15.0681" fill="#B4BFFF"/>
<path d="M340.078 90.5007C337.441 90.5007 335.903 88.3818 335.903 84.6618C335.903 80.9733 337.472 78.8229 340.078 78.8229C342.683 78.8229 344.253 80.9733 344.253 84.6618C344.253 88.3818 342.699 90.5007 340.078 90.5007ZM340.078 89.0096C341.616 89.0096 342.526 87.5028 342.526 84.6618C342.526 81.8366 341.6 80.2827 340.078 80.2827C338.555 80.2827 337.629 81.8366 337.629 84.6618C337.629 87.5028 338.54 89.0096 340.078 89.0096ZM349.596 90.5007C346.959 90.5007 345.421 88.3818 345.421 84.6618C345.421 80.9733 346.99 78.8229 349.596 78.8229C352.201 78.8229 353.771 80.9733 353.771 84.6618C353.771 88.3818 352.217 90.5007 349.596 90.5007ZM349.596 89.0096C351.134 89.0096 352.044 87.5028 352.044 84.6618C352.044 81.8366 351.118 80.2827 349.596 80.2827C348.073 80.2827 347.147 81.8366 347.147 84.6618C347.147 87.5028 348.058 89.0096 349.596 89.0096ZM355.849 90.4536C355.237 90.4536 354.719 89.9514 354.735 89.3392C354.719 88.7271 355.237 88.2248 355.849 88.2248C356.446 88.2248 356.963 88.7271 356.963 89.3392C356.963 89.9514 356.446 90.4536 355.849 90.4536Z" fill="#EAEDFF"/>
<path d="M368.607 90.5007C365.97 90.5007 364.432 88.3818 364.432 84.6618C364.432 80.9733 366.001 78.8229 368.607 78.8229C371.212 78.8229 372.782 80.9733 372.782 84.6618C372.782 88.3818 371.228 90.5007 368.607 90.5007ZM368.607 89.0096C370.145 89.0096 371.055 87.5028 371.055 84.6618C371.055 81.8366 370.129 80.2827 368.607 80.2827C367.084 80.2827 366.158 81.8366 366.158 84.6618C366.158 87.5028 367.069 89.0096 368.607 89.0096ZM378.125 90.5007C375.488 90.5007 373.95 88.3818 373.95 84.6618C373.95 80.9733 375.519 78.8229 378.125 78.8229C380.73 78.8229 382.3 80.9733 382.3 84.6618C382.3 88.3818 380.746 90.5007 378.125 90.5007ZM378.125 89.0096C379.663 89.0096 380.573 87.5028 380.573 84.6618C380.573 81.8366 379.647 80.2827 378.125 80.2827C376.602 80.2827 375.676 81.8366 375.676 84.6618C375.676 87.5028 376.587 89.0096 378.125 89.0096ZM384.378 90.4536C383.766 90.4536 383.248 89.9514 383.264 89.3392C383.248 88.7271 383.766 88.2248 384.378 88.2248C384.975 88.2248 385.493 88.7271 385.493 89.3392C385.493 89.9514 384.975 90.4536 384.378 90.4536Z" fill="#EAEDFF"/>
<path d="M404.378 77.6301V85.8704H402.887V85.1955H400.14V84.2537H402.887V77.6301H404.378ZM392.653 82.8097C395.368 82.8254 398.821 82.794 401.851 82.4644L401.929 83.4219C400.603 83.6024 399.229 83.7122 397.88 83.7829V85.9018H396.404V83.8456C395.133 83.877 393.924 83.8849 392.826 83.877L392.653 82.8097ZM404.378 86.3413V89.3706H396.279V90.4536H404.802V91.5366H394.819V88.3818H402.902V87.3772H394.756V86.3413H404.378ZM397.22 77.8655C399.308 77.8655 400.721 78.6974 400.736 79.9844C400.721 81.3029 399.308 82.0877 397.22 82.0877C395.086 82.0877 393.689 81.3029 393.705 79.9844C393.689 78.6974 395.086 77.8655 397.22 77.8655ZM397.22 78.87C395.918 78.87 395.101 79.3095 395.101 79.9844C395.101 80.6594 395.918 81.0832 397.22 81.0832C398.492 81.0832 399.324 80.6594 399.324 79.9844C399.324 79.3095 398.492 78.87 397.22 78.87ZM419.044 88.68V89.92H406.173V88.68H409.25V85.0071C408.096 84.3715 407.398 83.3591 407.398 82.1034C407.398 79.8903 409.564 78.4306 412.577 78.4306C415.607 78.4306 417.773 79.8903 417.773 82.1034C417.773 83.3434 417.098 84.3401 415.968 84.9757V88.68H419.044ZM412.577 79.6234C410.364 79.6234 408.842 80.5809 408.842 82.1034C408.842 83.6102 410.364 84.599 412.577 84.599C414.775 84.599 416.329 83.6102 416.329 82.1034C416.329 80.5809 414.775 79.6234 412.577 79.6234ZM410.725 88.68H414.461V85.5408C413.888 85.6899 413.252 85.7605 412.577 85.7605C411.918 85.7605 411.29 85.6899 410.725 85.5565V88.68ZM423.649 78.0852C425.768 78.1009 427.322 79.4037 427.338 81.2401C427.322 83.0922 425.768 84.3793 423.649 84.3793C421.515 84.3793 419.945 83.0922 419.945 81.2401C419.945 79.4037 421.515 78.1009 423.649 78.0852ZM423.649 79.3409C422.346 79.3252 421.389 80.0943 421.405 81.2401C421.389 82.4016 422.346 83.1707 423.649 83.1707C424.936 83.1707 425.894 82.4016 425.894 81.2401C425.894 80.0943 424.936 79.3252 423.649 79.3409ZM431.324 77.6144V84.7717H429.833V77.6144H431.324ZM431.324 85.4152V88.9625H423.571V90.3124H431.795V91.5052H422.127V87.8481H429.849V86.6081H422.08V85.4152H431.324Z" fill="#EAEDFF"/>
<path d="M269.318 83.369V84.5619H256.463V83.369H260.246C260.67 81.7759 260.78 80.583 260.811 79.7433H257.656V78.5504H262.287V79.0369C262.271 79.8296 262.271 81.3285 261.753 83.369H265.818C266.218 81.7837 266.289 80.6222 266.305 79.7433H263.197V78.5504H267.764V79.241C267.749 80.1435 267.749 81.5247 267.325 83.369H269.318ZM267.764 85.8961V87.0262H259.54V88.3132H267.403V89.3962H259.54V90.7461H267.843V91.9076H258.049V85.8961H267.764ZM283.09 83.5417V84.766H280.908V92.0646H279.417V78.0167H280.908V83.5417H283.09ZM271.961 79.3823V87.293C273.923 87.293 275.972 87.1282 278.208 86.6652L278.381 87.9208C275.98 88.4074 273.751 88.533 271.648 88.533H270.486V79.3823H271.961ZM294.821 82.129V83.3219H285.137V78.519H286.612V82.129H294.821ZM296.296 85.0956V86.2885H283.426V85.0956H296.296ZM294.915 90.5264V91.7506H285.027V87.6226H286.518V90.5264H294.915ZM311.503 78.0167V80.842H313.543V82.0976H311.503V85.0642H310.012V78.0167H311.503ZM302.587 78.6445V83.2278C304.479 83.2121 306.472 83.0629 308.63 82.6313L308.819 83.8713C306.449 84.3422 304.314 84.4834 302.242 84.4834H301.096V78.6445H302.587ZM311.503 85.7077V89.2864H303.922V90.699H311.989V91.9076H302.446V88.1406H310.012V86.8849H302.415V85.7077H311.503Z" fill="#4842B2"/>
<path d="M164.633 167.441H163.347L166.204 159.487H167.599L170.467 167.441H169.181L168.456 165.343H165.358L164.633 167.441ZM165.71 164.332H168.105L166.929 160.937H166.874L165.71 164.332ZM171.197 159.487H172.669L175.185 165.651H175.284L177.8 159.487H179.272V167.441H178.118V161.695H178.041L175.712 167.43H174.756L172.416 161.684H172.35V167.441H171.197V159.487Z" fill="#B4BFFF"/>
<g filter="url(#filter1_d_216_2205)">
<path d="M164.281 194.363V186.409H167.116C168.962 186.409 169.874 187.518 169.874 188.991C169.874 190.452 168.962 191.573 167.116 191.573H165.49V194.363H164.281ZM165.49 190.54H166.995C168.171 190.54 168.654 189.881 168.654 188.991C168.654 188.09 168.171 187.441 166.995 187.441H165.49V190.54ZM170.867 186.409H172.339L174.855 192.572H174.954L177.47 186.409H178.942V194.363H177.789V188.617H177.712L175.383 194.352H174.427L172.086 188.606H172.021V194.363H170.867V186.409Z" fill="#B4BFFF"/>
</g>
<path d="M225.726 187.169C221.243 187.169 218.628 183.567 218.628 177.243C218.628 170.973 221.296 167.317 225.726 167.317C230.155 167.317 232.823 170.973 232.823 177.243C232.823 183.567 230.182 187.169 225.726 187.169ZM225.726 184.634C228.341 184.634 229.888 182.073 229.888 177.243C229.888 172.44 228.314 169.799 225.726 169.799C223.137 169.799 221.563 172.44 221.563 177.243C221.563 182.073 223.111 184.634 225.726 184.634ZM241.906 187.169C237.423 187.169 234.809 183.567 234.809 177.243C234.809 170.973 237.477 167.317 241.906 167.317C246.336 167.317 249.004 170.973 249.004 177.243C249.004 183.567 246.362 187.169 241.906 187.169ZM241.906 184.634C244.521 184.634 246.069 182.073 246.069 177.243C246.069 172.44 244.494 169.799 241.906 169.799C239.318 169.799 237.744 172.44 237.744 177.243C237.744 182.073 239.291 184.634 241.906 184.634Z" fill="#EAEDFF"/>
<path d="M255.236 181.822C254.574 181.822 254.014 181.296 254.031 180.654C254.014 180.012 254.574 179.485 255.236 179.485C255.881 179.485 256.441 180.012 256.441 180.654C256.441 181.296 255.881 181.822 255.236 181.822ZM255.236 175.32C254.574 175.32 254.014 174.793 254.031 174.151C254.014 173.509 254.574 172.982 255.236 172.982C255.881 172.982 256.441 173.509 256.441 174.151C256.441 174.793 255.881 175.32 255.236 175.32Z" fill="#EAEDFF"/>
<path d="M268.565 187.169C264.083 187.169 261.468 183.567 261.468 177.243C261.468 170.973 264.136 167.317 268.565 167.317C272.995 167.317 275.663 170.973 275.663 177.243C275.663 183.567 273.022 187.169 268.565 187.169ZM268.565 184.634C271.18 184.634 272.728 182.073 272.728 177.243C272.728 172.44 271.154 169.799 268.565 169.799C265.977 169.799 264.403 172.44 264.403 177.243C264.403 182.073 265.951 184.634 268.565 184.634ZM284.746 187.169C280.263 187.169 277.648 183.567 277.648 177.243C277.648 170.973 280.317 167.317 284.746 167.317C289.175 167.317 291.844 170.973 291.844 177.243C291.844 183.567 289.202 187.169 284.746 187.169ZM284.746 184.634C287.361 184.634 288.909 182.073 288.909 177.243C288.909 172.44 287.334 169.799 284.746 169.799C282.158 169.799 280.584 172.44 280.584 177.243C280.584 182.073 282.131 184.634 284.746 184.634Z" fill="#EAEDFF"/>
<path d="M331.881 167.441H330.596L333.452 159.487H334.848L337.715 167.441H336.43L335.705 165.343H332.606L331.881 167.441ZM332.958 164.332H335.353L334.177 160.937H334.122L332.958 164.332ZM338.445 159.487H339.917L342.433 165.651H342.532L345.048 159.487H346.52V167.441H345.367V161.695H345.29L342.961 167.43H342.005L339.664 161.684H339.598V167.441H338.445V159.487Z" fill="#B4BFFF"/>
<g filter="url(#filter2_d_216_2205)">
<path d="M331.529 194.363V186.409H334.364C336.21 186.409 337.122 187.518 337.122 188.991C337.122 190.452 336.21 191.573 334.364 191.573H332.738V194.363H331.529ZM332.738 190.54H334.243C335.419 190.54 335.902 189.881 335.902 188.991C335.902 188.09 335.419 187.441 334.243 187.441H332.738V190.54ZM338.115 186.409H339.587L342.104 192.572H342.202L344.718 186.409H346.191V194.363H345.037V188.617H344.96L342.631 194.352H341.675L339.335 188.606H339.269V194.363H338.115V186.409Z" fill="#B4BFFF"/>
</g>
<path d="M392.974 187.169C388.491 187.169 385.876 183.567 385.876 177.243C385.876 170.973 388.545 167.317 392.974 167.317C397.403 167.317 400.072 170.973 400.072 177.243C400.072 183.567 397.43 187.169 392.974 187.169ZM392.974 184.634C395.589 184.634 397.136 182.073 397.136 177.243C397.136 172.44 395.562 169.799 392.974 169.799C390.386 169.799 388.811 172.44 388.811 177.243C388.811 182.073 390.359 184.634 392.974 184.634ZM409.155 187.169C404.672 187.169 402.057 183.567 402.057 177.243C402.057 170.973 404.725 167.317 409.155 167.317C413.584 167.317 416.252 170.973 416.252 177.243C416.252 183.567 413.611 187.169 409.155 187.169ZM409.155 184.634C411.769 184.634 413.317 182.073 413.317 177.243C413.317 172.44 411.743 169.799 409.155 169.799C406.566 169.799 404.992 172.44 404.992 177.243C404.992 182.073 406.54 184.634 409.155 184.634Z" fill="#EAEDFF"/>
<path d="M422.484 181.822C421.822 181.822 421.262 181.296 421.279 180.654C421.262 180.012 421.822 179.485 422.484 179.485C423.13 179.485 423.69 180.012 423.69 180.654C423.69 181.296 423.13 181.822 422.484 181.822ZM422.484 175.32C421.822 175.32 421.262 174.793 421.279 174.151C421.262 173.509 421.822 172.982 422.484 172.982C423.13 172.982 423.69 173.509 423.69 174.151C423.69 174.793 423.13 175.32 422.484 175.32Z" fill="#EAEDFF"/>
<path d="M435.814 187.169C431.331 187.169 428.716 183.567 428.716 177.243C428.716 170.973 431.384 167.317 435.814 167.317C440.243 167.317 442.911 170.973 442.911 177.243C442.911 183.567 440.27 187.169 435.814 187.169ZM435.814 184.634C438.429 184.634 439.976 182.073 439.976 177.243C439.976 172.44 438.402 169.799 435.814 169.799C433.225 169.799 431.651 172.44 431.651 177.243C431.651 182.073 433.199 184.634 435.814 184.634ZM451.994 187.169C447.512 187.169 444.897 183.567 444.897 177.243C444.897 170.973 447.565 167.317 451.994 167.317C456.424 167.317 459.092 170.973 459.092 177.243C459.092 183.567 456.45 187.169 451.994 187.169ZM451.994 184.634C454.609 184.634 456.157 182.073 456.157 177.243C456.157 172.44 454.583 169.799 451.994 169.799C449.406 169.799 447.832 172.44 447.832 177.243C447.832 182.073 449.379 184.634 451.994 184.634Z" fill="#EAEDFF"/>
<rect x="14.5952" y="179.927" width="28.1271" height="14.6345" rx="7.31725" fill="#EAEDFF"/>
<rect x="14.5952" y="179.927" width="28.1271" height="14.6345" rx="7.31725" stroke="#7E8DF5" stroke-width="0.401815"/>
<path d="M24.6025 185.181C24.6025 185.987 25.1605 186.721 26.1211 187.025L25.8033 187.547C25.0828 187.318 24.5566 186.841 24.2776 186.241C24.0022 186.933 23.4477 187.48 22.6884 187.745L22.3423 187.208C23.3312 186.884 23.9245 186.064 23.9315 185.188V185.012H22.5401V184.468H25.9657V185.012H24.6025V185.181ZM27.3642 184.016V185.584H28.2825V186.135H27.3642V187.816H26.6932V184.016H27.3642ZM25.323 187.971C26.6297 187.971 27.4207 188.402 27.4207 189.144C27.4207 189.892 26.6297 190.337 25.323 190.33C24.0022 190.337 23.197 189.892 23.197 189.144C23.197 188.402 24.0022 187.971 25.323 187.971ZM25.323 188.501C24.4048 188.501 23.8609 188.734 23.868 189.144C23.8609 189.568 24.4048 189.801 25.323 189.801C26.2341 189.801 26.7639 189.568 26.7639 189.144C26.7639 188.734 26.2341 188.501 25.323 188.501ZM34.2536 188.988V189.539H28.4619V188.988H30.9975V187.484H31.6615V188.988H34.2536ZM31.6756 184.899C31.6756 185.902 32.7774 186.841 33.9994 187.046L33.7098 187.597C32.6856 187.392 31.7427 186.76 31.3224 185.888C30.9057 186.756 29.9734 187.399 28.9563 187.597L28.6596 187.046C29.8745 186.841 30.9693 185.902 30.9693 184.899V184.419H31.6756V184.899Z" fill="#7E8DF5"/>
<rect x="47.1423" y="179.81" width="83.9794" height="14.8672" rx="7.43359" fill="#FDFDFD"/>
<rect x="47.1423" y="179.81" width="83.9794" height="14.8672" rx="7.43359" stroke="#E5E5E5" stroke-width="0.401815"/>
<path d="M57.3578 185.114C57.3578 185.933 57.9723 186.667 58.8976 186.971L58.6363 187.409C57.9123 187.173 57.3649 186.671 57.0965 186.039C56.8246 186.759 56.2454 187.321 55.4931 187.593L55.2106 187.148C56.15 186.83 56.8069 186.018 56.814 185.114V184.845H55.3801V184.386H58.7705V184.845H57.3578V185.114ZM60.1407 183.92V185.523H61.0872V185.989H60.1407V187.713H59.5898V183.92H60.1407ZM58.1277 187.882C59.4203 187.882 60.1972 188.306 60.1972 189.027C60.1972 189.761 59.4203 190.185 58.1277 190.185C56.8352 190.185 56.0441 189.761 56.0441 189.027C56.0441 188.306 56.8352 187.882 58.1277 187.882ZM58.1277 188.327C57.1812 188.327 56.595 188.589 56.6021 189.027C56.595 189.479 57.1812 189.74 58.1277 189.74C59.0812 189.74 59.6604 189.479 59.6604 189.027C59.6604 188.589 59.0812 188.327 58.1277 188.327ZM67.0513 188.921V189.38H61.3019V188.921H63.8729V187.381H64.4167V188.921H67.0513ZM64.4309 184.831C64.4309 185.883 65.674 186.802 66.7688 186.992L66.5216 187.451C65.5645 187.257 64.5545 186.607 64.1483 185.7C63.7352 186.604 62.7322 187.257 61.7751 187.451L61.5279 186.992C62.6227 186.802 63.8517 185.883 63.8517 184.831V184.351H64.4309V184.831ZM74.1908 183.92V187.289H73.6398V183.92H74.1908ZM70.6733 187.607V188.37H73.6398V187.607H74.1908V190.114H70.1224V187.607H70.6733ZM70.6733 189.662H73.6398V188.815H70.6733V189.662ZM70.8004 184.231C71.754 184.224 72.4461 184.81 72.4461 185.672C72.4461 186.526 71.754 187.112 70.8004 187.112C69.8469 187.112 69.1547 186.526 69.1547 185.672C69.1547 184.81 69.8469 184.224 70.8004 184.231ZM70.8004 184.697C70.1577 184.69 69.6915 185.099 69.6986 185.672C69.6915 186.244 70.1577 186.653 70.8004 186.653C71.4361 186.653 71.9023 186.244 71.9023 185.672C71.9023 185.099 71.4361 184.69 70.8004 184.697ZM78.0571 184.308V186.067H75.8958V187.042C77.0753 187.042 77.6828 187.024 78.4244 186.886L78.4809 187.346C77.6969 187.473 77.0612 187.494 75.7899 187.494H75.3449V185.643H77.5062V184.753H75.3307V184.308H78.0571ZM80.282 183.927V187.783H79.724V186.618H78.4739V186.159H79.724V185.311H78.4739V184.859H79.724V183.927H80.282ZM80.282 188.122V190.213H79.724V188.575H76.0512V188.122H80.282ZM86.006 183.92V186.512H87.0584V186.971H86.006V190.199H85.4551V183.92H86.006ZM84.8476 184.93V185.389H81.1112V184.93H82.7287V183.998H83.2796V184.93H84.8476ZM83.0112 185.912C83.9012 185.912 84.5439 186.505 84.551 187.353C84.5439 188.2 83.9012 188.794 83.0112 188.794C82.1142 188.794 81.4644 188.2 81.4715 187.353C81.4644 186.505 82.1142 185.912 83.0112 185.912ZM83.0112 186.378C82.425 186.378 81.9941 186.788 82.0012 187.353C81.9941 187.925 82.425 188.327 83.0112 188.32C83.5904 188.327 84.0142 187.925 84.0213 187.353C84.0142 186.788 83.5904 186.378 83.0112 186.378ZM92.4081 183.92V190.199H91.8501V183.92H92.4081ZM90.5504 184.605C90.5434 186.413 89.7029 188.009 87.598 189.02L87.2943 188.567C88.993 187.762 89.8583 186.558 89.9854 185.057H87.5839V184.605H90.5504Z" fill="#BDBDBD"/>
<rect x="14.5952" y="155.017" width="28.1271" height="14.6345" rx="7.31725" fill="#EAEDFF"/>
<rect x="14.5952" y="155.017" width="28.1271" height="14.6345" rx="7.31725" stroke="#7E8DF5" stroke-width="0.401815"/>
<path d="M25.1747 159.77V160.398H23.3524V161.444H25.0617V162.058H23.3524V163.301C24.1399 163.294 24.6873 163.266 25.3371 163.167L25.4007 163.81C24.6591 163.937 24.0304 163.958 23.0345 163.958H22.6037V159.77H25.1747ZM27.8799 159.078V165.463H27.1241V162.221H26.4672V165.152H25.7256V159.191H26.4672V161.585H27.1241V159.078H27.8799ZM33.5191 159.699V160.42C33.5191 161.274 33.5191 162.157 33.286 163.499L32.4879 163.428C32.7351 162.171 32.7351 161.246 32.7351 160.42V160.335H29.0552V159.699H33.5191ZM34.2607 163.944V164.587H28.4407V163.944H34.2607Z" fill="#7E8DF5"/>
<rect x="47.1423" y="154.9" width="83.9794" height="14.8672" rx="7.43359" fill="#FDFDFD"/>
<rect x="47.1423" y="154.9" width="83.9794" height="14.8672" rx="7.43359" stroke="#E5E5E5" stroke-width="0.401815"/>
<path d="M54.758 159.854V160.306H52.8015V161.514H54.6661V161.959H52.8015V163.379C53.7338 163.375 54.3095 163.351 54.9981 163.224L55.0476 163.683C54.313 163.824 53.7056 163.852 52.6743 163.852H52.2717V159.854H54.758ZM57.3996 159.127V165.406H56.8628V162.115H56.0011V165.088H55.4643V159.261H56.0011V161.656H56.8628V159.127H57.3996ZM63.0388 159.798V160.427C63.0388 161.218 63.0388 162.115 62.8057 163.478L62.2407 163.421C62.495 162.136 62.495 161.196 62.495 160.427V160.257H58.7091V159.798H63.0388ZM63.8087 164.022V164.481H58.0875V164.022H63.8087ZM70.9976 159.127V162.376H70.4396V160.744H69.0411V160.285H70.4396V159.127H70.9976ZM70.9976 162.694V164.191H67.4872V164.876H71.2307V165.321H66.9433V163.767H70.4467V163.139H66.9292V162.694H70.9976ZM67.9322 159.925C67.9251 160.751 68.5749 161.5 69.4931 161.804L69.1965 162.235C68.5008 161.988 67.9463 161.493 67.6708 160.857C67.4024 161.574 66.8339 162.122 66.0887 162.39L65.785 161.945C66.7314 161.634 67.3812 160.843 67.3883 159.925V159.332H67.9322V159.925ZM77.0677 159.127V162.87H76.5097V161.225H75.2454V160.766H76.5097V159.127H77.0677ZM74.984 163.068C76.2907 163.068 77.0889 163.492 77.0889 164.234C77.0889 164.975 76.2907 165.399 74.984 165.406C73.6773 165.399 72.8792 164.975 72.8792 164.234C72.8792 163.492 73.6773 163.068 74.984 163.068ZM74.984 163.499C74.0234 163.499 73.4231 163.775 73.4301 164.234C73.4231 164.686 74.0234 164.961 74.984 164.961C75.9446 164.961 76.5379 164.686 76.5379 164.234C76.5379 163.775 75.9446 163.499 74.984 163.499ZM74.0446 160.278C74.0446 161.098 74.6733 161.875 75.5915 162.192L75.3019 162.637C74.5956 162.383 74.0482 161.857 73.7833 161.204C73.5078 161.942 72.9251 162.531 72.18 162.814L71.8904 162.369C72.8227 162.03 73.4866 161.182 73.4866 160.285V160.052H72.0669V159.586H75.4502V160.052H74.0446V160.278ZM82.7917 159.127V161.719H83.8441V162.178H82.7917V165.406H82.2407V159.127H82.7917ZM81.6333 160.137V160.596H77.8969V160.137H79.5143V159.205H80.0653V160.137H81.6333ZM79.7969 161.119C80.6868 161.119 81.3296 161.712 81.3366 162.56C81.3296 163.407 80.6868 164.001 79.7969 164.001C78.8999 164.001 78.25 163.407 78.2571 162.56C78.25 161.712 78.8999 161.119 79.7969 161.119ZM79.7969 161.585C79.2106 161.585 78.7798 161.995 78.7868 162.56C78.7798 163.132 79.2106 163.534 79.7969 163.527C80.3761 163.534 80.7998 163.132 80.8069 162.56C80.7998 161.995 80.3761 161.585 79.7969 161.585ZM89.1937 159.127V165.406H88.6357V159.127H89.1937ZM87.3361 159.812C87.329 161.62 86.4885 163.217 84.3837 164.227L84.08 163.775C85.7787 162.969 86.6439 161.765 86.771 160.264H84.3696V159.812H87.3361Z" fill="#BDBDBD"/>
<path d="M124.266 164.646C124.587 165.09 125.248 165.09 125.569 164.646L127.478 162.001C127.862 161.469 127.482 160.727 126.826 160.727H123.009C122.353 160.727 121.974 161.469 122.357 162.001L124.266 164.646Z" fill="#B4BFFF"/>
<rect x="10.778" y="110.498" width="281.271" height="31.3416" rx="15.6708" fill="white"/>
<rect x="10.778" y="110.498" width="281.271" height="31.3416" rx="15.6708" stroke="url(#paint0_linear_216_2205)" stroke-width="0.803631"/>
<path d="M107.925 120.89C109.408 120.901 110.496 121.813 110.507 123.098C110.496 124.395 109.408 125.296 107.925 125.296C106.43 125.296 105.332 124.395 105.332 123.098C105.332 121.813 106.43 120.901 107.925 120.89ZM107.925 121.769C107.013 121.758 106.343 122.296 106.353 123.098C106.343 123.911 107.013 124.45 107.925 124.45C108.826 124.45 109.496 123.911 109.496 123.098C109.496 122.296 108.826 121.758 107.925 121.769ZM113.297 120.56V125.57H112.254V120.56H113.297ZM113.297 126.021V128.504H107.87V129.449H113.627V130.284H106.859V127.724H112.265V126.856H106.826V126.021H113.297ZM122.784 120.56V126.416H121.74V123.922H119.905V123.065H121.74V120.56H122.784ZM119.488 126.691C121.553 126.691 122.817 127.372 122.817 128.548C122.817 129.723 121.553 130.394 119.488 130.405C117.422 130.394 116.147 129.723 116.158 128.548C116.147 127.372 117.422 126.691 119.488 126.691ZM119.488 127.504C118.048 127.504 117.191 127.878 117.191 128.548C117.191 129.207 118.048 129.592 119.488 129.581C120.927 129.592 121.784 129.207 121.784 128.548C121.784 127.878 120.927 127.504 119.488 127.504ZM118.103 122.296C118.103 123.549 118.993 124.757 120.476 125.263L119.938 126.087C118.834 125.702 118.021 124.917 117.598 123.944C117.164 125.048 116.301 125.933 115.126 126.361L114.576 125.526C116.103 124.999 117.037 123.669 117.037 122.307V122.087H114.906V121.241H120.213V122.087H118.103V122.296ZM128.501 120.725C130.721 120.725 132.017 121.318 132.017 122.417C132.017 123.516 130.721 124.12 128.501 124.12C126.282 124.12 124.985 123.516 124.985 122.417C124.985 121.318 126.282 120.725 128.501 120.725ZM128.501 121.494C126.93 121.494 126.062 121.835 126.073 122.417C126.062 123.021 126.93 123.34 128.501 123.34C130.073 123.34 130.941 123.021 130.941 122.417C130.941 121.835 130.073 121.494 128.501 121.494ZM132.995 124.724V125.559H124.019V124.724H132.995ZM131.863 126.317V128.625H126.128V129.504H132.138V130.306H125.106V127.867H130.831V127.097H125.095V126.317H131.863ZM144.09 120.56V125.845H143.046V120.56H144.09ZM138.673 126.317V127.427H143.057V126.317H144.09V130.284H137.651V126.317H138.673ZM138.673 129.427H143.057V128.251H138.673V129.427ZM138.75 121.011C140.255 121.011 141.365 121.945 141.365 123.296C141.365 124.647 140.255 125.581 138.75 125.57C137.245 125.581 136.124 124.647 136.124 123.296C136.124 121.945 137.245 121.011 138.75 121.011ZM138.75 121.89C137.816 121.879 137.146 122.461 137.146 123.296C137.146 124.142 137.816 124.713 138.75 124.713C139.673 124.713 140.343 124.142 140.343 123.296C140.343 122.461 139.673 121.879 138.75 121.89ZM150.06 121.153V124.021H146.808V125.383C148.522 125.389 149.456 125.351 150.566 125.142L150.665 125.988C149.467 126.197 148.456 126.229 146.49 126.229H145.775V123.23H149.017V121.988H145.764V121.153H150.06ZM153.576 120.571V126.625H152.532V124.889H150.687V124.054H152.532V122.834H150.687V121.999H152.532V120.571H153.576ZM153.576 127.119V130.416H152.532V127.965H146.896V127.119H153.576ZM159.678 122.186V123.032H154.789V122.186H156.723V120.846H157.756V122.186H159.678ZM157.239 123.626C158.492 123.626 159.371 124.559 159.382 125.889C159.371 127.229 158.492 128.174 157.239 128.174C156.009 128.174 155.097 127.229 155.108 125.889C155.097 124.559 156.009 123.626 157.239 123.626ZM157.239 124.494C156.525 124.494 156.031 125.076 156.031 125.889C156.031 126.724 156.525 127.284 157.239 127.284C157.943 127.284 158.459 126.724 158.459 125.889C158.459 125.076 157.943 124.494 157.239 124.494ZM163.238 120.56V130.405H162.249V125.515H161.118V129.943H160.129V120.78H161.118V124.658H162.249V120.56H163.238ZM175.696 126.109V126.955H171.696V130.394H170.674V126.955H166.719V126.109H175.696ZM174.85 121.142V121.977H171.806C171.823 123.197 173.339 124.285 175.201 124.537L174.817 125.362C173.201 125.109 171.806 124.312 171.213 123.186C170.603 124.312 169.213 125.109 167.62 125.362L167.224 124.537C169.065 124.285 170.581 123.197 170.619 121.977H167.554V121.142H174.85ZM179.161 123.252C179.161 124.823 179.82 126.504 181.139 127.306L180.556 128.108C179.633 127.553 179.007 126.57 178.677 125.427C178.309 126.68 177.634 127.746 176.678 128.328L176.03 127.548C177.425 126.713 178.15 124.977 178.15 123.296V121.461H179.161V123.252ZM184.632 120.56V130.405H183.633V120.56H184.632ZM182.589 120.747V129.921H181.6V124.889H180.073V124.021H181.6V120.747H182.589ZM194.613 128.306V129.174H185.604V128.306H187.757V125.735C186.95 125.29 186.461 124.581 186.461 123.702C186.461 122.153 187.977 121.131 190.086 121.131C192.207 121.131 193.723 122.153 193.723 123.702C193.723 124.57 193.251 125.268 192.46 125.713V128.306H194.613ZM190.086 121.966C188.537 121.966 187.472 122.637 187.472 123.702C187.472 124.757 188.537 125.449 190.086 125.449C191.625 125.449 192.712 124.757 192.712 123.702C192.712 122.637 191.625 121.966 190.086 121.966ZM188.79 128.306H191.405V126.109C191.004 126.213 190.559 126.262 190.086 126.262C189.625 126.262 189.186 126.213 188.79 126.12V128.306ZM196.859 121.516L196.76 127.174H195.672L195.573 121.516H196.859ZM196.222 129.548C195.793 129.548 195.431 129.196 195.442 128.768C195.431 128.339 195.793 127.987 196.222 127.987C196.639 127.987 197.002 128.339 197.002 128.768C197.002 129.196 196.639 129.548 196.222 129.548Z" fill="#8695FF"/>
<path d="M315.756 118.536C315.756 119.252 315.544 119.951 315.146 120.545C314.749 121.14 314.184 121.604 313.523 121.877C312.863 122.151 312.136 122.223 311.434 122.083C310.733 121.944 310.088 121.599 309.582 121.093C309.077 120.588 308.732 119.943 308.593 119.242C308.453 118.54 308.525 117.813 308.798 117.152C309.072 116.492 309.536 115.927 310.13 115.529C310.725 115.132 311.424 114.92 312.14 114.92C313.152 114.92 314.12 115.322 314.848 116.021L315.756 116.929" stroke="#7E8DF5" stroke-width="0.803631" stroke-linecap="round" stroke-linejoin="round"/>
<path d="M315.756 114.92V116.929H313.747" stroke="#7E8DF5" stroke-width="0.803631" stroke-linecap="round" stroke-linejoin="round"/>
<path d="M325.022 115.288V117.131H325.912V117.781H325.022V119.985H324.238V115.288H325.022ZM325.277 120.903V121.539H320.933V119.511H321.717V120.903H325.277ZM320.982 115.74V116.714H322.473V115.74H323.249V118.946H320.205V115.74H320.982ZM320.982 118.325H322.473V117.322H320.982V118.325ZM331.876 118.494V119.123H326.056V118.494H328.564V117.88H326.812V115.436H327.589V116.072H330.344V115.436H331.121V117.88H329.355V118.494H331.876ZM331.163 119.632V121.666H330.379V120.253H326.699V119.632H331.163ZM327.589 117.251H330.344V116.658H327.589V117.251ZM339.009 115.281V118.551H338.225V116.933H336.953V116.305H338.225V115.281H339.009ZM339.009 118.826V120.479H335.583V120.966H339.214V121.588H334.813V119.893H338.232V119.441H334.806V118.826H339.009ZM335.979 116.001C335.979 116.785 336.494 117.534 337.483 117.837L337.066 118.445C336.374 118.212 335.873 117.763 335.597 117.181C335.315 117.834 334.792 118.339 334.036 118.586L333.627 117.958C334.651 117.647 335.188 116.863 335.188 116.001V115.493H335.979V116.001ZM345.079 115.281V119.074H344.295V117.513H343.207V116.87H344.295V115.281H345.079ZM342.918 119.236C344.274 119.236 345.1 119.681 345.1 120.451C345.1 121.221 344.274 121.666 342.918 121.666C341.569 121.666 340.742 121.221 340.749 120.451C340.742 119.681 341.569 119.236 342.918 119.236ZM342.918 119.836C342.028 119.836 341.526 120.048 341.526 120.451C341.526 120.846 342.028 121.058 342.918 121.058C343.808 121.058 344.316 120.846 344.316 120.451C344.316 120.048 343.808 119.836 342.918 119.836ZM342.077 116.375C342.077 117.152 342.593 117.936 343.582 118.268L343.186 118.89C342.476 118.65 341.971 118.162 341.696 117.562C341.413 118.244 340.88 118.787 340.121 119.059L339.711 118.438C340.735 118.085 341.279 117.223 341.279 116.382V116.333H339.951V115.697H343.398V116.333H342.077V116.375Z" fill="#7E8DF5"/>
<path d="M313.686 129.802V131.702H314.633V132.168H313.686V134.414H313.135V129.802H313.686ZM313.976 135.474V135.94H309.759V133.962H310.303V135.474H313.976ZM309.59 130.254V131.313H311.419V130.254H311.97V133.355H309.046V130.254H309.59ZM309.59 132.903H311.419V131.751H309.59V132.903ZM320.569 133.044V133.503H314.848V133.044H317.433V132.288H315.61V129.943H316.161V130.671H319.269V129.943H319.82V132.288H317.984V133.044H320.569ZM319.862 134.125V136.074H319.304V134.57H315.483V134.125H319.862ZM316.161 131.843H319.269V131.095H316.161V131.843ZM327.758 129.795V133.044H327.2V131.412H325.801V130.953H327.2V129.795H327.758ZM327.758 133.362V134.859H324.247V135.544H327.991V135.989H323.703V134.435H327.207V133.807H323.689V133.362H327.758ZM324.692 130.593C324.685 131.419 325.335 132.168 326.253 132.472L325.956 132.903C325.261 132.655 324.706 132.161 324.431 131.525C324.162 132.242 323.594 132.79 322.849 133.058L322.545 132.613C323.491 132.302 324.141 131.511 324.148 130.593V130H324.692V130.593ZM333.828 129.795V133.538H333.27V131.893H332.005V131.434H333.27V129.795H333.828ZM331.744 133.736C333.051 133.736 333.849 134.16 333.849 134.902C333.849 135.643 333.051 136.067 331.744 136.074C330.437 136.067 329.639 135.643 329.639 134.902C329.639 134.16 330.437 133.736 331.744 133.736ZM331.744 134.167C330.783 134.167 330.183 134.442 330.19 134.902C330.183 135.354 330.783 135.629 331.744 135.629C332.705 135.629 333.298 135.354 333.298 134.902C333.298 134.442 332.705 134.167 331.744 134.167ZM330.805 130.946C330.805 131.766 331.433 132.542 332.351 132.86L332.062 133.305C331.356 133.051 330.808 132.525 330.543 131.871C330.268 132.61 329.685 133.199 328.94 133.482L328.65 133.037C329.583 132.698 330.247 131.85 330.247 130.953V130.72H328.827V130.254H332.21V130.72H330.805V130.946ZM341.236 129.795V131.709H342.182V132.175H341.236V134.428H340.685V129.795H341.236ZM341.525 135.474V135.94H337.308V133.948H337.852V135.474H341.525ZM338.092 130.24C339.032 130.24 339.738 130.876 339.745 131.787C339.738 132.698 339.032 133.334 338.092 133.334C337.153 133.334 336.44 132.698 336.447 131.787C336.44 130.876 337.153 130.24 338.092 130.24ZM338.092 130.727C337.471 130.727 336.983 131.165 336.991 131.787C336.983 132.408 337.471 132.846 338.092 132.846C338.728 132.846 339.201 132.408 339.201 131.787C339.201 131.165 338.728 130.727 338.092 130.727ZM347.306 129.795V131.469H348.252V131.942H347.306V133.581H346.755V129.795H347.306ZM347.306 133.941V135.989H343.343V133.941H347.306ZM343.887 134.386V135.537H346.755V134.386H343.887ZM346.154 130.466V130.925H342.411V130.466H344.007V129.745H344.558V130.466H346.154ZM344.283 131.236C345.187 131.236 345.787 131.681 345.794 132.352C345.787 133.037 345.187 133.475 344.283 133.475C343.371 133.475 342.764 133.037 342.771 132.352C342.764 131.681 343.371 131.236 344.283 131.236ZM344.283 131.667C343.689 131.667 343.294 131.942 343.301 132.352C343.294 132.783 343.689 133.044 344.283 133.051C344.869 133.044 345.264 132.783 345.271 132.352C345.264 131.942 344.869 131.667 344.283 131.667Z" fill="#BDBDBD"/>
<rect x="351.116" y="128.582" width="20.8944" height="8.86429" rx="4.43215" fill="url(#paint1_linear_216_2205)"/>
<circle cx="355.641" cy="133.002" r="3.21452" fill="#606060"/>
</g>
</g>
<rect x="0.5" y="0.5" width="472" height="265" rx="19.5" stroke="#B4BFFF"/>
<defs>
<filter id="filter0_d_216_2205" x="-13.7328" y="-8.03826" width="501.466" height="282.075" filterUnits="userSpaceOnUse" color-interpolation-filters="sRGB">
<feFlood flood-opacity="0" result="BackgroundImageFix"/>
<feColorMatrix in="SourceAlpha" type="matrix" values="0 0 0 0 0 0 0 0 0 0 0 0 0 0 0 0 0 0 127 0" result="hardAlpha"/>
<feOffset/>
<feGaussianBlur stdDeviation="4.01815"/>
<feComposite in2="hardAlpha" operator="out"/>
<feColorMatrix type="matrix" values="0 0 0 0 0.706731 0 0 0 0 0.750721 0 0 0 0 1 0 0 0 0.3 0"/>
<feBlend mode="normal" in2="BackgroundImageFix" result="effect1_dropShadow_216_2205"/>
<feBlend mode="normal" in="SourceGraphic" in2="effect1_dropShadow_216_2205" result="shape"/>
</filter>
<filter id="filter1_d_216_2205" x="138.462" y="173.585" width="66.2994" height="34.557" filterUnits="userSpaceOnUse" color-interpolation-filters="sRGB">
<feFlood flood-opacity="0" result="BackgroundImageFix"/>
<feColorMatrix in="SourceAlpha" type="matrix" values="0 0 0 0 0 0 0 0 0 0 0 0 0 0 0 0 0 0 127 0" result="hardAlpha"/>
<feOffset/>
<feGaussianBlur stdDeviation="4.01815"/>
<feComposite in2="hardAlpha" operator="out"/>
<feColorMatrix type="matrix" values="0 0 0 0 0.706731 0 0 0 0 0.750721 0 0 0 0 1 0 0 0 0.3 0"/>
<feBlend mode="normal" in2="BackgroundImageFix" result="effect1_dropShadow_216_2205"/>
<feBlend mode="normal" in="SourceGraphic" in2="effect1_dropShadow_216_2205" result="shape"/>
</filter>
<filter id="filter2_d_216_2205" x="305.71" y="173.585" width="66.2997" height="34.557" filterUnits="userSpaceOnUse" color-interpolation-filters="sRGB">
<feFlood flood-opacity="0" result="BackgroundImageFix"/>
<feColorMatrix in="SourceAlpha" type="matrix" values="0 0 0 0 0 0 0 0 0 0 0 0 0 0 0 0 0 0 127 0" result="hardAlpha"/>
<feOffset/>
<feGaussianBlur stdDeviation="4.01815"/>
<feComposite in2="hardAlpha" operator="out"/>
<feColorMatrix type="matrix" values="0 0 0 0 0.706731 0 0 0 0 0.750721 0 0 0 0 1 0 0 0 0.3 0"/>
<feBlend mode="normal" in2="BackgroundImageFix" result="effect1_dropShadow_216_2205"/>
<feBlend mode="normal" in="SourceGraphic" in2="effect1_dropShadow_216_2205" result="shape"/>
</filter>
<linearGradient id="paint0_linear_216_2205" x1="151.413" y1="110.096" x2="151.413" y2="142.241" gradientUnits="userSpaceOnUse">
<stop stop-color="#B4BFFF"/>
<stop offset="1" stop-color="#7E8DF5"/>
</linearGradient>
<linearGradient id="paint1_linear_216_2205" x1="351.116" y1="133.014" x2="372.01" y2="133.014" gradientUnits="userSpaceOnUse">
<stop stop-color="#BDBDBD"/>
<stop offset="1" stop-color="#E5E5E5"/>
</linearGradient>
<clipPath id="clip0_216_2205">
<rect width="473" height="266" rx="20" fill="white"/>
</clipPath>
</defs>
</svg>
