<svg width="513" height="306" viewBox="0 0 513 306" fill="none" xmlns="http://www.w3.org/2000/svg">
<g filter="url(#filter0_d_216_2207)">
<g clip-path="url(#clip0_216_2207)">
<g clip-path="url(#clip1_216_2207)">
<rect width="1152.89" height="648.5" transform="translate(-12.8889 9)" fill="#FDFDFD"/>
<rect width="256.398" height="648.5" transform="translate(-12.8889 9)" fill="url(#paint0_linear_216_2207)"/>
<path d="M120.282 70.2252H125.06C125.85 70.2252 126.49 70.8657 126.49 71.6558L126.49 80.0597C126.49 80.6918 127.003 81.2042 127.635 81.2042H128.175C128.807 81.2042 129.32 80.6918 129.32 80.0597V68.6498C129.32 66.6745 127.718 65.0732 125.743 65.0732H118.679C116.704 65.0732 115.103 66.6745 115.103 68.6498V80.0597C115.103 80.6918 115.615 81.2042 116.247 81.2042H117.707C118.339 81.2042 118.852 80.6918 118.852 80.0597L118.852 71.6558C118.852 70.8657 119.492 70.2252 120.282 70.2252Z" fill="#B4BFFF"/>
<path d="M120.282 70.2252H125.06C125.85 70.2252 126.49 70.8657 126.49 71.6558L126.49 80.0597C126.49 80.6918 127.003 81.2042 127.635 81.2042H128.175C128.807 81.2042 129.32 80.6918 129.32 80.0597V68.6498C129.32 66.6745 127.718 65.0732 125.743 65.0732H118.679C116.704 65.0732 115.103 66.6745 115.103 68.6498V80.0597C115.103 80.6918 115.615 81.2042 116.247 81.2042H117.707C118.339 81.2042 118.852 80.6918 118.852 80.0597L118.852 71.6558C118.852 70.8657 119.492 70.2252 120.282 70.2252Z" fill="url(#paint1_linear_216_2207)" fill-opacity="0.2"/>
<path d="M70.4617 48.4335V46.458C70.4617 45.6678 69.8212 45.0273 69.0311 45.0273H63.9442C61.9689 45.0273 60.3677 46.6286 60.3677 48.6039L60.3677 60.6063C60.3677 62.5816 61.969 64.1828 63.9442 64.1828H65.699H82.0395C82.8296 64.1828 83.4702 63.5423 83.4702 62.7522V62.5405C83.4702 60.5653 81.8689 58.964 79.8936 58.964H67.1296C66.3395 58.964 65.699 58.3235 65.699 57.5334L65.699 52.01C65.699 50.8248 66.6598 49.8641 67.8449 49.8641H69.0311C69.8212 49.8641 70.4617 49.2236 70.4617 48.4335Z" fill="#B4BFFF"/>
<path d="M70.4617 48.4335V46.458C70.4617 45.6678 69.8212 45.0273 69.0311 45.0273H63.9442C61.9689 45.0273 60.3677 46.6286 60.3677 48.6039L60.3677 60.6063C60.3677 62.5816 61.969 64.1828 63.9442 64.1828H65.699H82.0395C82.8296 64.1828 83.4702 63.5423 83.4702 62.7522V62.5405C83.4702 60.5653 81.8689 58.964 79.8936 58.964H67.1296C66.3395 58.964 65.699 58.3235 65.699 57.5334L65.699 52.01C65.699 50.8248 66.6598 49.8641 67.8449 49.8641H69.0311C69.8212 49.8641 70.4617 49.2236 70.4617 48.4335Z" fill="url(#paint2_linear_216_2207)" fill-opacity="0.2"/>
<path d="M73.6605 48.4335V46.458C73.6605 45.6678 74.301 45.0273 75.0911 45.0273H78.8274C80.8026 45.0273 82.4039 46.6286 82.4039 48.6039V50.654C82.4039 51.4441 81.7634 52.0846 80.9733 52.0846H79.2136C78.6004 52.0846 78.1033 51.5875 78.1033 50.9743C78.1033 50.3612 77.6062 49.8641 76.993 49.8641H75.0911C74.301 49.8641 73.6605 49.2236 73.6605 48.4335Z" fill="#B4BFFF"/>
<path d="M73.6605 48.4335V46.458C73.6605 45.6678 74.301 45.0273 75.0911 45.0273H78.8274C80.8026 45.0273 82.4039 46.6286 82.4039 48.6039V50.654C82.4039 51.4441 81.7634 52.0846 80.9733 52.0846H79.2136C78.6004 52.0846 78.1033 51.5875 78.1033 50.9743C78.1033 50.3612 77.6062 49.8641 76.993 49.8641H75.0911C74.301 49.8641 73.6605 49.2236 73.6605 48.4335Z" fill="url(#paint3_linear_216_2207)" fill-opacity="0.2"/>
<path d="M72.0966 78.4142V80.3897C72.0966 81.1798 72.7371 81.8203 73.5273 81.8203H80.0003C81.9755 81.8203 83.5768 80.219 83.5768 78.2438V67.0963C83.5768 66.3062 82.9363 65.6657 82.1462 65.6657H79.552C78.7548 65.6657 78.1115 66.3172 78.1215 67.1142L78.2181 74.8107C78.2332 76.0063 77.2681 76.9836 76.0724 76.9836H73.5272C72.7371 76.9836 72.0966 77.6241 72.0966 78.4142Z" fill="#B4BFFF"/>
<path d="M72.0966 78.4142V80.3897C72.0966 81.1798 72.7371 81.8203 73.5273 81.8203H80.0003C81.9755 81.8203 83.5768 80.219 83.5768 78.2438V67.0963C83.5768 66.3062 82.9363 65.6657 82.1462 65.6657H79.552C78.7548 65.6657 78.1115 66.3172 78.1215 67.1142L78.2181 74.8107C78.2332 76.0063 77.2681 76.9836 76.0724 76.9836H73.5272C72.7371 76.9836 72.0966 77.6241 72.0966 78.4142Z" fill="url(#paint4_linear_216_2207)" fill-opacity="0.2"/>
<path d="M69.1111 78.4142V80.3897C69.1111 81.1798 68.4706 81.8203 67.6805 81.8203H63.9442C61.9689 81.8203 60.3677 80.219 60.3677 78.2438V74.3908C60.3677 73.6007 61.0082 72.9602 61.7983 72.9602H63.2377C64.0278 72.9602 64.6683 73.6007 64.6683 74.3908V75.553C64.6683 76.3431 65.3088 76.9836 66.0989 76.9836H67.6805C68.4706 76.9836 69.1111 77.6241 69.1111 78.4142Z" fill="#B4BFFF"/>
<path d="M69.1111 78.4142V80.3897C69.1111 81.1798 68.4706 81.8203 67.6805 81.8203H63.9442C61.9689 81.8203 60.3677 80.219 60.3677 78.2438V74.3908C60.3677 73.6007 61.0082 72.9602 61.7983 72.9602H63.2377C64.0278 72.9602 64.6683 73.6007 64.6683 74.3908V75.553C64.6683 76.3431 65.3088 76.9836 66.0989 76.9836H67.6805C68.4706 76.9836 69.1111 77.6241 69.1111 78.4142Z" fill="url(#paint5_linear_216_2207)" fill-opacity="0.2"/>
<path d="M90.081 74.3054V69.1434C90.081 68.3533 90.7215 67.7128 91.5116 67.7128H93.3769C93.8598 67.7128 94.2513 68.1043 94.2513 68.5872C94.2513 69.07 94.6427 69.4615 95.1256 69.4615H95.3649C95.98 69.4615 96.4786 68.9629 96.4786 68.3478V67.7128C96.4786 66.268 95.3073 65.0967 93.8624 65.0967H89.89C87.9147 65.0967 86.3135 66.6979 86.3135 68.6732V77.6748C86.3135 79.6501 87.9147 81.2513 89.89 81.2513H92.902C94.8773 81.2513 96.4786 79.6501 96.4786 77.6748V77.1666C96.4786 76.3765 95.8381 75.736 95.048 75.736H91.5116C90.7215 75.736 90.081 75.0955 90.081 74.3054Z" fill="#B4BFFF"/>
<path d="M90.081 74.3054V69.1434C90.081 68.3533 90.7215 67.7128 91.5116 67.7128H93.3769C93.8598 67.7128 94.2513 68.1043 94.2513 68.5872C94.2513 69.07 94.6427 69.4615 95.1256 69.4615H95.3649C95.98 69.4615 96.4786 68.9629 96.4786 68.3478V67.7128C96.4786 66.268 95.3073 65.0967 93.8624 65.0967H89.89C87.9147 65.0967 86.3135 66.6979 86.3135 68.6732V77.6748C86.3135 79.6501 87.9147 81.2513 89.89 81.2513H92.902C94.8773 81.2513 96.4786 79.6501 96.4786 77.6748V77.1666C96.4786 76.3765 95.8381 75.736 95.048 75.736H91.5116C90.7215 75.736 90.081 75.0955 90.081 74.3054Z" fill="url(#paint6_linear_216_2207)" fill-opacity="0.2"/>
<path d="M107.474 65.0967C109.45 65.0967 111.051 66.6986 111.051 68.6738V73.8457C111.051 74.5123 111.464 75.1092 112.088 75.3447C112.711 75.5802 113.124 76.1771 113.124 76.8438V77.9902C113.124 79.7912 111.664 81.252 109.863 81.252H101.903C99.928 81.2518 98.3269 79.65 98.3269 77.6748V68.6738C98.3269 66.6987 99.928 65.0969 101.903 65.0967H107.474ZM103.56 67.7129C102.77 67.713 102.13 68.3535 102.13 69.1436V74.3057C102.13 75.0955 102.77 75.7362 103.56 75.7363H106.777C107.567 75.7363 108.208 75.0955 108.208 74.3057V69.1436C108.208 68.3535 107.567 67.7129 106.777 67.7129H103.56Z" fill="#B4BFFF"/>
<path d="M107.474 65.0967C109.45 65.0967 111.051 66.6986 111.051 68.6738V73.8457C111.051 74.5123 111.464 75.1092 112.088 75.3447C112.711 75.5802 113.124 76.1771 113.124 76.8438V77.9902C113.124 79.7912 111.664 81.252 109.863 81.252H101.903C99.928 81.2518 98.3269 79.65 98.3269 77.6748V68.6738C98.3269 66.6987 99.928 65.0969 101.903 65.0967H107.474ZM103.56 67.7129C102.77 67.713 102.13 68.3535 102.13 69.1436V74.3057C102.13 75.0955 102.77 75.7362 103.56 75.7363H106.777C107.567 75.7363 108.208 75.0955 108.208 74.3057V69.1436C108.208 68.3535 107.567 67.7129 106.777 67.7129H103.56Z" fill="url(#paint7_linear_216_2207)" fill-opacity="0.2"/>
<path d="M152.06 59.2607C152.692 59.2607 153.204 59.7731 153.204 60.4052V77.6033C153.204 79.5786 151.603 81.1798 149.627 81.1798H142.493C140.517 81.1798 138.916 79.5786 138.916 77.6033V69.171C138.916 67.1958 140.517 65.5945 142.493 65.5945H148.93C149.72 65.5945 150.361 64.954 150.361 64.1639V60.4052C150.361 59.7731 150.873 59.2607 151.505 59.2607H152.06ZM142.406 74.1983C142.406 74.9884 143.047 75.6289 143.837 75.6289H148.93C149.72 75.6289 150.361 74.9884 150.361 74.1983V69.8718C150.361 69.0816 149.72 68.4411 148.93 68.4411H143.837C143.047 68.4411 142.406 69.0816 142.406 69.8718V74.1983Z" fill="#B4BFFF"/>
<path d="M152.06 59.2607C152.692 59.2607 153.204 59.7731 153.204 60.4052V77.6033C153.204 79.5786 151.603 81.1798 149.627 81.1798H142.493C140.517 81.1798 138.916 79.5786 138.916 77.6033V69.171C138.916 67.1958 140.517 65.5945 142.493 65.5945H148.93C149.72 65.5945 150.361 64.954 150.361 64.1639V60.4052C150.361 59.7731 150.873 59.2607 151.505 59.2607H152.06ZM142.406 74.1983C142.406 74.9884 143.047 75.6289 143.837 75.6289H148.93C149.72 75.6289 150.361 74.9884 150.361 74.1983V69.8718C150.361 69.0816 149.72 68.4411 148.93 68.4411H143.837C143.047 68.4411 142.406 69.0816 142.406 69.8718V74.1983Z" fill="url(#paint8_linear_216_2207)" fill-opacity="0.2"/>
<path d="M158.623 65.7725C159.255 65.7725 159.767 66.2849 159.767 66.9169L159.767 74.2339C159.767 75.024 160.408 75.6645 161.198 75.6645H165.978C166.768 75.6645 167.409 75.024 167.409 74.2339L167.409 66.917C167.409 66.2849 167.921 65.7725 168.553 65.7725H169.108C169.74 65.7725 170.252 66.2849 170.252 66.9169L170.252 89.4881C170.252 91.4633 168.651 93.0646 166.676 93.0646H159.505C157.53 93.0646 155.929 91.4633 155.929 89.4881V88.3735C155.929 87.7414 156.441 87.229 157.073 87.229H159.103C159.47 87.229 159.767 87.5264 159.767 87.8932C159.767 88.3517 160.139 88.7235 160.598 88.7235H165.978C166.768 88.7235 167.409 88.083 167.409 87.2929V82.6105C167.409 81.8204 166.768 81.1799 165.978 81.1799H159.505C157.53 81.1799 155.929 79.5786 155.929 77.6034L155.929 66.9169C155.929 66.2849 156.441 65.7725 157.073 65.7725H158.623Z" fill="#B4BFFF"/>
<path d="M158.623 65.7725C159.255 65.7725 159.767 66.2849 159.767 66.9169L159.767 74.2339C159.767 75.024 160.408 75.6645 161.198 75.6645H165.978C166.768 75.6645 167.409 75.024 167.409 74.2339L167.409 66.917C167.409 66.2849 167.921 65.7725 168.553 65.7725H169.108C169.74 65.7725 170.252 66.2849 170.252 66.9169L170.252 89.4881C170.252 91.4633 168.651 93.0646 166.676 93.0646H159.505C157.53 93.0646 155.929 91.4633 155.929 89.4881V88.3735C155.929 87.7414 156.441 87.229 157.073 87.229H159.103C159.47 87.229 159.767 87.5264 159.767 87.8932C159.767 88.3517 160.139 88.7235 160.598 88.7235H165.978C166.768 88.7235 167.409 88.083 167.409 87.2929V82.6105C167.409 81.8204 166.768 81.1799 165.978 81.1799H159.505C157.53 81.1799 155.929 79.5786 155.929 77.6034L155.929 66.9169C155.929 66.2849 156.441 65.7725 157.073 65.7725H158.623Z" fill="url(#paint9_linear_216_2207)" fill-opacity="0.2"/>
<rect x="132.755" y="77.7637" width="3.41206" height="3.41596" rx="1.35104" fill="#B4BFFF"/>
<rect x="132.755" y="77.7637" width="3.41206" height="3.41596" rx="1.35104" fill="url(#paint10_linear_216_2207)" fill-opacity="0.2"/>
<rect x="132.755" y="71.4775" width="3.41206" height="3.41596" rx="1.35104" fill="#B4BFFF"/>
<rect x="132.755" y="71.4775" width="3.41206" height="3.41596" rx="1.35104" fill="url(#paint11_linear_216_2207)" fill-opacity="0.2"/>
<g filter="url(#filter1_d_216_2207)">
<g clip-path="url(#clip2_216_2207)">
<rect x="8.72778" y="199.347" width="213.164" height="184.943" rx="12.0093" fill="#FCFCFC"/>
<rect x="8.72778" y="252.188" width="213.164" height="19.2148" fill="#F4F6FF"/>
<rect width="213.164" height="44.4343" transform="translate(8.72778 199.347)" fill="url(#paint12_linear_216_2207)"/>
<path d="M178.058 216.159L169.652 221.864L178.058 227.568" stroke="#EAEDFF" stroke-width="1.80139" stroke-linecap="round" stroke-linejoin="round"/>
<path d="M198.474 216.159L206.881 221.864L198.474 227.568" stroke="#EAEDFF" stroke-width="1.80139" stroke-linecap="round" stroke-linejoin="round"/>
<path d="M16.9842 219.758V219.195L18.7504 217.415C19.3063 216.831 19.5877 216.507 19.5877 216.064C19.5877 215.564 19.1796 215.24 18.6448 215.24C18.0819 215.24 17.716 215.599 17.716 216.141H16.9842C16.9771 215.212 17.6878 214.593 18.6589 214.593C19.644 214.593 20.3195 215.212 20.3266 216.042C20.3195 216.612 20.0522 217.063 19.0952 218.006L18.0608 219.054V219.096H20.411V219.758H16.9842ZM22.8626 219.828C21.6804 219.828 20.9908 218.878 20.9908 217.211C20.9908 215.557 21.6945 214.593 22.8626 214.593C24.0307 214.593 24.7344 215.557 24.7344 217.211C24.7344 218.878 24.0377 219.828 22.8626 219.828ZM22.8626 219.16C23.5522 219.16 23.9603 218.484 23.9603 217.211C23.9603 215.944 23.5452 215.247 22.8626 215.247C22.18 215.247 21.7649 215.944 21.7649 217.211C21.7649 218.484 22.173 219.16 22.8626 219.16ZM25.3564 219.758V219.195L27.1226 217.415C27.6785 216.831 27.96 216.507 27.96 216.064C27.96 215.564 27.5518 215.24 27.0171 215.24C26.4541 215.24 26.0882 215.599 26.0882 216.141H25.3564C25.3494 215.212 26.0601 214.593 27.0311 214.593C28.0163 214.593 28.6918 215.212 28.6988 216.042C28.6918 216.612 28.4244 217.063 27.4674 218.006L26.433 219.054V219.096H28.7833V219.758H25.3564ZM31.1926 219.828C30.2286 219.828 29.5038 219.237 29.4686 218.428H30.2216C30.2638 218.864 30.6789 219.181 31.1926 219.181C31.8118 219.181 32.2552 218.73 32.2552 218.125C32.2552 217.506 31.7978 217.056 31.1574 217.049C30.7493 217.049 30.4397 217.182 30.2638 217.499H29.532L29.8627 214.663H32.7477V215.325H30.503L30.3341 216.753H30.3834C30.5945 216.549 30.9534 216.408 31.3404 216.408C32.2974 216.408 33.0081 217.119 33.0081 218.104C33.0081 219.11 32.2552 219.828 31.1926 219.828Z" fill="#7E8DF5"/>
<path d="M20.9071 223.824V233.164H19.4751V225.243H19.4235L17.1917 226.701V225.346L19.5138 223.824H20.9071ZM26.2015 233.293C24.0342 233.293 22.7699 231.551 22.7699 228.494C22.7699 225.462 24.06 223.695 26.2015 223.695C28.343 223.695 29.6331 225.462 29.6331 228.494C29.6331 231.551 28.3559 233.293 26.2015 233.293ZM26.2015 232.068C27.4658 232.068 28.214 230.829 28.214 228.494C28.214 226.172 27.4529 224.895 26.2015 224.895C24.9501 224.895 24.189 226.172 24.189 228.494C24.189 230.829 24.9372 232.068 26.2015 232.068ZM39.9845 222.715V229.487H38.7589V228.933H36.5013V228.159H38.7589V222.715H39.9845ZM30.3477 226.972C32.5795 226.985 35.4177 226.959 37.9075 226.688L37.972 227.475C36.8819 227.623 35.7531 227.714 34.6436 227.772V229.513H33.431V227.823C32.386 227.849 31.3927 227.855 30.4897 227.849L30.3477 226.972ZM39.9845 229.874V232.364H33.3278V233.254H40.3328V234.145H32.128V231.551H38.7718V230.726H32.0764V229.874H39.9845ZM34.1018 222.908C35.8176 222.908 36.9786 223.592 36.9915 224.65C36.9786 225.733 35.8176 226.378 34.1018 226.378C32.3473 226.378 31.1992 225.733 31.2121 224.65C31.1992 223.592 32.3473 222.908 34.1018 222.908ZM34.1018 223.734C33.0311 223.734 32.3602 224.095 32.3602 224.65C32.3602 225.204 33.0311 225.553 34.1018 225.553C35.1468 225.553 35.8305 225.204 35.8305 224.65C35.8305 224.095 35.1468 223.734 34.1018 223.734Z" fill="#4842B2"/>
<path d="M53.6007 229.12C53.6007 231.829 51.9706 233.483 49.7775 233.483C47.5609 233.483 45.9425 231.829 45.9425 229.12C45.9425 226.399 47.5609 224.757 49.7775 224.757C51.9706 224.757 53.6007 226.399 53.6007 229.12ZM52.3224 229.12C52.3224 227.056 51.2317 225.942 49.7775 225.942C48.3115 225.942 47.2208 227.056 47.2208 229.12C47.2208 231.184 48.3115 232.298 49.7775 232.298C51.2317 232.298 52.3224 231.184 52.3224 229.12ZM57.3466 233.494C55.4936 233.494 54.3677 232.122 54.3677 230.21C54.3677 228.264 55.5288 226.915 57.3231 226.915C58.7774 226.915 59.8329 227.771 59.9619 229.061H58.7422C58.6132 228.463 58.1323 227.959 57.3466 227.959C56.3145 227.959 55.6226 228.815 55.6226 230.175C55.6226 231.571 56.3028 232.427 57.3466 232.427C58.0502 232.427 58.5897 232.04 58.7422 231.348H59.9619C59.8211 232.579 58.8477 233.494 57.3466 233.494ZM63.825 226.997V227.994H62.5232V231.489C62.5232 232.204 62.8868 232.333 63.2855 232.345C63.4614 232.345 63.7429 232.321 63.9188 232.31V233.4C63.7429 233.424 63.4732 233.447 63.1331 233.447C62.1479 233.447 61.2683 232.908 61.2801 231.747V227.994H60.3419V226.997H61.2801V225.472H62.5232V226.997H63.825ZM67.3715 233.494C65.5654 233.494 64.3926 232.181 64.3926 230.21C64.3926 228.228 65.5654 226.915 67.3715 226.915C69.1658 226.915 70.3386 228.228 70.3386 230.21C70.3386 232.181 69.1658 233.494 67.3715 233.494ZM67.3715 232.45C68.5208 232.45 69.072 231.43 69.072 230.21C69.072 228.991 68.5208 227.947 67.3715 227.947C66.1987 227.947 65.6475 228.991 65.6475 230.21C65.6475 231.43 66.1987 232.45 67.3715 232.45ZM71.3754 233.365V224.874H72.6185V228.029H72.6889C72.9234 227.63 73.3456 226.915 74.5184 226.915C76.0547 226.915 77.2041 228.123 77.2041 230.199C77.2041 232.251 76.0782 233.494 74.5301 233.494C73.3691 233.494 72.9234 232.791 72.6889 232.368H72.595V233.365H71.3754ZM72.595 230.175C72.595 231.512 73.1932 232.427 74.2487 232.427C75.3511 232.427 75.9257 231.454 75.9257 230.175C75.9257 228.92 75.3628 227.982 74.2487 227.982C73.1814 227.982 72.595 228.85 72.595 230.175ZM80.8913 233.494C79.0148 233.494 77.8655 232.204 77.8655 230.222C77.8655 228.264 79.0383 226.915 80.8092 226.915C82.2634 226.915 83.6356 227.818 83.6356 230.117V230.562H79.1087C79.1438 231.77 79.8534 232.462 80.903 232.462C81.6184 232.462 82.0758 232.157 82.2869 231.77H83.5535C83.272 232.802 82.2869 233.494 80.8913 233.494ZM79.1204 229.624H82.4042C82.4042 228.651 81.7826 227.947 80.8209 227.947C79.8182 227.947 79.1673 228.721 79.1204 229.624ZM84.5785 233.365V226.997H85.7865V228.006H85.8568C86.0914 227.325 86.7247 226.903 87.4753 226.903C87.6277 226.903 87.874 226.915 88.003 226.927V228.123C87.8975 228.099 87.6043 228.053 87.3463 228.053C86.4784 228.053 85.8334 228.651 85.8334 229.483V233.365H84.5785Z" fill="#4842B2"/>
<rect x="17.4345" y="252.633" width="18.6143" height="18.4088" rx="3.30255" stroke="#B4BFFF" stroke-width="0.600463"/>
<path d="M25.2612 258.842C26.2112 258.849 26.9078 259.433 26.9148 260.257C26.9078 261.087 26.2112 261.664 25.2612 261.664C24.3042 261.664 23.6006 261.087 23.6006 260.257C23.6006 259.433 24.3042 258.849 25.2612 258.842ZM25.2612 259.405C24.6772 259.398 24.2479 259.743 24.255 260.257C24.2479 260.777 24.6772 261.122 25.2612 261.122C25.8382 261.122 26.2675 260.777 26.2675 260.257C26.2675 259.743 25.8382 259.398 25.2612 259.405ZM28.7022 258.631V261.84H28.0337V258.631H28.7022ZM28.7022 262.128V263.719H25.226V264.324H28.9133V264.859H24.5787V263.219H28.0407V262.663H24.5576V262.128H28.7022Z" fill="#4842B2"/>
<path d="M22.692 284.548V283.985L24.4583 282.205C25.0141 281.621 25.2956 281.297 25.2956 280.854C25.2956 280.354 24.8875 280.03 24.3527 280.03C23.7898 280.03 23.4239 280.389 23.4239 280.931H22.692C22.685 280.002 23.3957 279.383 24.3668 279.383C25.3519 279.383 26.0274 280.002 26.0345 280.832C26.0274 281.402 25.76 281.853 24.803 282.796L23.7687 283.844V283.886H26.1189V284.548H22.692ZM28.5775 284.618C27.4728 284.618 26.6987 284.02 26.7058 283.19C26.6987 282.535 27.1702 282.001 27.7683 281.909V281.881C27.2476 281.761 26.8958 281.297 26.8958 280.741C26.8958 279.96 27.6065 279.383 28.5775 279.383C29.5415 279.383 30.2452 279.96 30.2522 280.741C30.2452 281.297 29.8934 281.761 29.3797 281.881V281.909C29.9708 282.001 30.4422 282.535 30.4493 283.19C30.4422 284.02 29.6682 284.618 28.5775 284.618ZM28.5775 283.978C29.239 283.978 29.6612 283.633 29.6612 283.133C29.6612 282.606 29.2038 282.226 28.5775 282.226C27.9442 282.226 27.4798 282.606 27.4939 283.133C27.4798 283.633 27.902 283.978 28.5775 283.978ZM28.5775 281.614C29.1123 281.614 29.4923 281.29 29.4923 280.811C29.4923 280.34 29.1193 280.016 28.5775 280.016C28.0146 280.016 27.6487 280.333 27.6487 280.811C27.6487 281.29 28.0357 281.614 28.5775 281.614Z" fill="#BDBDBD"/>
<path d="M58.439 258.638V262.332H57.7705V262.03H56.5391V261.608H57.7705V258.638H58.439ZM53.1826 260.96C54.4 260.967 55.948 260.953 57.3061 260.805L57.3413 261.235C56.7467 261.316 56.131 261.365 55.5258 261.397V262.347H54.8644V261.425C54.2944 261.439 53.7526 261.442 53.26 261.439L53.1826 260.96ZM58.439 262.544V263.902H54.8081V264.387H58.629V264.873H54.1537V263.458H57.7776V263.008H54.1255V262.544H58.439ZM55.2303 258.744C56.1662 258.744 56.7995 259.117 56.8065 259.694C56.7995 260.285 56.1662 260.637 55.2303 260.637C54.2733 260.637 53.647 260.285 53.6541 259.694C53.647 259.117 54.2733 258.744 55.2303 258.744ZM55.2303 259.194C54.6462 259.194 54.2803 259.391 54.2803 259.694C54.2803 259.996 54.6462 260.186 55.2303 260.186C55.8003 260.186 56.1732 259.996 56.1732 259.694C56.1732 259.391 55.8003 259.194 55.2303 259.194Z" fill="#7E8DF5"/>
<path d="M52.4148 284.548V283.985L54.181 282.205C54.7369 281.621 55.0184 281.297 55.0184 280.854C55.0184 280.354 54.6103 280.03 54.0755 280.03C53.5125 280.03 53.1466 280.389 53.1466 280.931H52.4148C52.4078 280.002 53.1185 279.383 54.0896 279.383C55.0747 279.383 55.7502 280.002 55.7572 280.832C55.7502 281.402 55.4828 281.853 54.5258 282.796L53.4914 283.844V283.886H55.8417V284.548H52.4148ZM58.2722 279.383C59.208 279.39 60.1932 279.953 60.1932 281.818C60.1932 283.605 59.4262 284.618 58.2018 284.618C57.2659 284.618 56.6045 284.041 56.4848 283.211H57.2518C57.3574 283.64 57.6881 283.943 58.2018 283.943C58.9899 283.943 59.4473 283.253 59.4543 282.092H59.391C59.1166 282.521 58.6381 282.782 58.0892 282.782C57.1744 282.782 56.4426 282.085 56.4426 281.107C56.4426 280.136 57.1674 279.376 58.2722 279.383ZM58.2722 280.03C57.6529 280.03 57.1955 280.509 57.1955 281.093C57.1955 281.684 57.6389 282.148 58.2581 282.148C58.8703 282.148 59.3488 281.649 59.3488 281.086C59.3488 280.537 58.8984 280.03 58.2722 280.03Z" fill="#BDBDBD"/>
<path d="M87.8595 258.631V261.27H88.8094V261.833H87.8595V264.936H87.191V258.631H87.8595ZM82.8423 263.219C83.3384 263.219 83.9154 263.219 84.517 263.198V262.558C83.8063 262.459 83.3419 262.03 83.3489 261.418C83.3419 260.707 83.9541 260.236 84.8548 260.236C85.7485 260.236 86.3677 260.707 86.3747 261.418C86.3677 262.03 85.8962 262.463 85.1855 262.565V263.17C85.7449 263.149 86.3079 263.103 86.8321 263.029L86.8743 263.522C85.5092 263.768 84.0315 263.775 82.9479 263.775L82.8423 263.219ZM86.7406 259.377V259.912H82.9619V259.377H84.517V258.645H85.1855V259.377H86.7406ZM84.8548 260.756C84.327 260.756 83.9752 261.017 83.9752 261.418C83.9752 261.819 84.327 262.065 84.8548 262.065C85.3825 262.065 85.7344 261.819 85.7344 261.418C85.7344 261.017 85.3825 260.756 84.8548 260.756Z" fill="#7E8DF5"/>
<path d="M83.9463 284.618C82.8908 284.618 82.1378 284.048 82.1097 283.218H82.8978C82.926 283.668 83.3693 283.95 83.9392 283.95C84.5514 283.95 85.0018 283.612 85.0018 283.119C85.0018 282.62 84.5796 282.254 83.8548 282.254H83.4185V281.621H83.8548C84.4318 281.621 84.8399 281.297 84.8399 280.811C84.8399 280.347 84.4951 280.03 83.9533 280.03C83.4396 280.03 82.9893 280.312 82.9682 280.776H82.2223C82.2434 279.946 83.0104 279.383 83.9603 279.383C84.9596 279.383 85.5929 280.016 85.5858 280.769C85.5929 281.346 85.234 281.768 84.6851 281.902V281.937C85.3818 282.036 85.7828 282.5 85.7828 283.148C85.7828 283.999 85.0018 284.618 83.9463 284.618ZM88.2274 284.618C87.0452 284.618 86.3556 283.668 86.3556 282.001C86.3556 280.347 87.0593 279.383 88.2274 279.383C89.3955 279.383 90.0991 280.347 90.0991 282.001C90.0991 283.668 89.4025 284.618 88.2274 284.618ZM88.2274 283.95C88.917 283.95 89.3251 283.274 89.3251 282.001C89.3251 280.734 88.9099 280.037 88.2274 280.037C87.5448 280.037 87.1297 280.734 87.1297 282.001C87.1297 283.274 87.5378 283.95 88.2274 283.95Z" fill="#BDBDBD"/>
<path d="M115.572 259.187C115.565 260.024 116.593 260.813 117.831 260.974L117.571 261.523C116.54 261.358 115.632 260.823 115.227 260.081C114.812 260.827 113.908 261.358 112.884 261.523L112.617 260.974C113.855 260.813 114.869 260.031 114.876 259.187V258.842H115.572V259.187ZM118.091 262.142V262.691H115.53V264.936H114.876V262.691H112.342V262.142H118.091Z" fill="#7E8DF5"/>
<path d="M115.996 279.453V284.548H115.215V280.227H115.186L113.969 281.022V280.284L115.236 279.453H115.996Z" fill="#7E8DF5"/>
<path d="M146.782 258.892V261.052H144.967V261.784H147.514V262.325H141.765V261.784H144.305V261.052H142.497V258.892H146.782ZM143.151 259.419V260.517H146.121V259.419H143.151ZM146.81 262.924V264.936H146.135V263.451H142.405V262.924H146.81Z" fill="#7E8DF5"/>
<path d="M142.983 284.548V283.985L144.749 282.205C145.305 281.621 145.587 281.297 145.587 280.854C145.587 280.354 145.179 280.03 144.644 280.03C144.081 280.03 143.715 280.389 143.715 280.931H142.983C142.976 280.002 143.687 279.383 144.658 279.383C145.643 279.383 146.319 280.002 146.326 280.832C146.319 281.402 146.051 281.853 145.094 282.796L144.06 283.844V283.886H146.41V284.548H142.983Z" fill="#7E8DF5"/>
<path d="M176.226 258.948V259.426C176.226 259.922 176.226 260.485 176.064 261.249H176.958V261.798H171.188V261.249H175.389C175.558 260.513 175.565 259.975 175.565 259.497H171.913V258.948H176.226ZM176.233 262.6V264.859H171.891V262.6H176.233ZM172.546 263.128V264.317H175.572V263.128H172.546Z" fill="#7E8DF5"/>
<path d="M174.214 284.618C173.159 284.618 172.406 284.048 172.378 283.218H173.166C173.194 283.668 173.637 283.95 174.207 283.95C174.819 283.95 175.27 283.612 175.27 283.119C175.27 282.62 174.848 282.254 174.123 282.254H173.687V281.621H174.123C174.7 281.621 175.108 281.297 175.108 280.811C175.108 280.347 174.763 280.03 174.221 280.03C173.708 280.03 173.257 280.312 173.236 280.776H172.49C172.511 279.946 173.278 279.383 174.228 279.383C175.228 279.383 175.861 280.016 175.854 280.769C175.861 281.346 175.502 281.768 174.953 281.902V281.937C175.65 282.036 176.051 282.5 176.051 283.148C176.051 283.999 175.27 284.618 174.214 284.618Z" fill="#7E8DF5"/>
<path d="M205.726 261.861V262.396H203.819V263.627H206.38V264.176H200.61V263.627H203.151V262.396H201.335V259.117H205.663V259.666H202.011V260.475H205.529V261.003H202.011V261.861H205.726Z" fill="#4842B2"/>
<path d="M201.716 283.556V282.929L203.968 279.453H204.925V282.901H205.621V283.556H204.925V284.548H204.193V283.556H201.716ZM202.532 282.901H204.193V280.375H204.137L202.532 282.859V282.901Z" fill="#4842B2"/>
</g>
</g>
<g filter="url(#filter2_d_216_2207)">
<path d="M8.72778 133.896H197.874C211.139 133.896 221.892 144.65 221.892 157.915C221.892 171.18 211.139 181.934 197.874 181.934H20.737C14.1045 181.934 8.72778 176.557 8.72778 169.924V133.896Z" fill="#FDFDFD"/>
<rect x="77.1805" y="141.102" width="137.506" height="33.6259" rx="16.813" fill="url(#paint13_linear_216_2207)" fill-opacity="0.5"/>
<path d="M91.5588 152.521V162.71H89.9967V154.069H89.9404L87.5057 155.659V154.182L90.0389 152.521H91.5588ZM97.3345 162.851C94.9702 162.851 93.591 160.951 93.591 157.615C93.591 154.308 94.9984 152.38 97.3345 152.38C99.6707 152.38 101.078 154.308 101.078 157.615C101.078 160.951 99.6848 162.851 97.3345 162.851ZM97.3345 161.514C98.7137 161.514 99.53 160.163 99.53 157.615C99.53 155.082 98.6996 153.689 97.3345 153.689C95.9694 153.689 95.1391 155.082 95.1391 157.615C95.1391 160.163 95.9553 161.514 97.3345 161.514ZM112.371 151.311V158.699H111.034V158.094H108.571V157.25H111.034V151.311H112.371ZM101.858 155.955C104.292 155.969 107.389 155.941 110.105 155.645L110.175 156.504C108.986 156.665 107.754 156.764 106.544 156.827V158.727H105.221V156.884C104.081 156.912 102.998 156.919 102.013 156.912L101.858 155.955ZM112.371 159.121V161.837H105.109V162.808H112.75V163.78H103.8V160.951H111.048V160.05H103.744V159.121H112.371ZM105.953 151.522C107.825 151.522 109.091 152.268 109.105 153.422C109.091 154.604 107.825 155.307 105.953 155.307C104.039 155.307 102.787 154.604 102.801 153.422C102.787 152.268 104.039 151.522 105.953 151.522ZM105.953 152.422C104.785 152.422 104.053 152.816 104.053 153.422C104.053 154.027 104.785 154.407 105.953 154.407C107.093 154.407 107.839 154.027 107.839 153.422C107.839 152.816 107.093 152.422 105.953 152.422Z" fill="#4842B2"/>
<path d="M124.317 162.71V161.584L127.849 158.024C128.961 156.855 129.524 156.208 129.524 155.321C129.524 154.322 128.708 153.675 127.638 153.675C126.512 153.675 125.781 154.393 125.781 155.476H124.317C124.303 153.619 125.724 152.38 127.666 152.38C129.637 152.38 130.988 153.619 131.002 155.279C130.988 156.419 130.453 157.32 128.539 159.206L126.47 161.303V161.387H131.171V162.71H124.317ZM136.215 162.851C134.329 162.837 132.358 161.725 132.358 157.953C132.358 154.407 133.892 152.38 136.341 152.38C138.213 152.38 139.522 153.548 139.761 155.167H138.227C138.03 154.336 137.369 153.731 136.341 153.731C134.765 153.731 133.85 155.11 133.85 157.404H133.963C134.512 156.546 135.469 156.025 136.58 156.025C138.396 156.025 139.86 157.418 139.86 159.375C139.86 161.345 138.41 162.865 136.215 162.851ZM136.2 161.556C137.439 161.556 138.354 160.599 138.354 159.403C138.354 158.235 137.467 157.292 136.243 157.292C134.99 157.292 134.047 158.277 134.033 159.417C134.047 160.543 134.948 161.556 136.2 161.556ZM144.284 151.719C146.184 151.733 147.577 152.901 147.591 154.547C147.577 156.208 146.184 157.362 144.284 157.362C142.37 157.362 140.963 156.208 140.963 154.547C140.963 152.901 142.37 151.733 144.284 151.719ZM144.284 152.845C143.116 152.83 142.258 153.52 142.272 154.547C142.258 155.589 143.116 156.278 144.284 156.278C145.438 156.278 146.297 155.589 146.297 154.547C146.297 153.52 145.438 152.83 144.284 152.845ZM151.166 151.296V157.714H149.829V151.296H151.166ZM151.166 158.291V161.472H144.214V162.682H151.588V163.751H142.919V160.472H149.843V159.361H142.877V158.291H151.166Z" fill="#4842B2"/>
<path d="M160.645 148.308V167.522" stroke="#B4BFFF" stroke-width="1.20093"/>
<path d="M24.0396 162.71V161.584L27.572 158.024C28.6838 156.855 29.2468 156.208 29.2468 155.321C29.2468 154.322 28.4305 153.675 27.3609 153.675C26.2351 153.675 25.5032 154.393 25.5032 155.476H24.0396C24.0255 153.619 25.4469 152.38 27.3891 152.38C29.3593 152.38 30.7104 153.619 30.7245 155.279C30.7104 156.419 30.1756 157.32 28.2616 159.206L26.1928 161.303V161.387H30.8933V162.71H24.0396ZM35.7965 162.851C33.4322 162.851 32.053 160.951 32.053 157.615C32.053 154.308 33.4603 152.38 35.7965 152.38C38.1327 152.38 39.54 154.308 39.54 157.615C39.54 160.951 38.1467 162.851 35.7965 162.851ZM35.7965 161.514C37.1757 161.514 37.9919 160.163 37.9919 157.615C37.9919 155.082 37.1616 153.689 35.7965 153.689C34.4314 153.689 33.601 155.082 33.601 157.615C33.601 160.163 34.4173 161.514 35.7965 161.514ZM40.7841 162.71V161.584L44.3165 158.024C45.4283 156.855 45.9912 156.208 45.9912 155.321C45.9912 154.322 45.175 153.675 44.1054 153.675C42.9795 153.675 42.2477 154.393 42.2477 155.476H40.7841C40.77 153.619 42.1914 152.38 44.1335 152.38C46.1038 152.38 47.4549 153.619 47.4689 155.279C47.4549 156.419 46.9201 157.32 45.0061 159.206L42.9373 161.303V161.387H47.6378V162.71H40.7841ZM52.4565 162.851C50.5285 162.851 49.0789 161.669 49.0085 160.05H50.5144C50.5988 160.923 51.4292 161.556 52.4565 161.556C53.695 161.556 54.5816 160.655 54.5816 159.445C54.5816 158.206 53.6668 157.306 52.3862 157.292C51.5699 157.292 50.9507 157.559 50.5988 158.192H49.1352L49.7967 152.521H55.5667V153.844H51.0773L50.7396 156.701H50.8381C51.2603 156.293 51.978 156.011 52.7521 156.011C54.666 156.011 56.0874 157.432 56.0874 159.403C56.0874 161.415 54.5816 162.851 52.4565 162.851ZM67.4503 151.311V160.627H66.1133V156.335H62.6513V155.265H66.1133V153.942H62.6513V152.873H66.1133V151.311H67.4503ZM67.774 162.555V163.639H59.2314V159.811H60.5825V162.555H67.774ZM59.0063 152.183V157.7C60.681 157.7 62.2713 157.594 64.0727 157.264L64.2134 158.361C62.215 158.741 60.5121 158.812 58.6544 158.826H57.6834V152.183H59.0063Z" fill="#7E8DF5"/>
<path d="M170.689 151.719C172.588 151.733 173.982 152.901 173.996 154.547C173.982 156.208 172.588 157.362 170.689 157.362C168.775 157.362 167.367 156.208 167.367 154.547C167.367 152.901 168.775 151.733 170.689 151.719ZM170.689 152.845C169.52 152.83 168.662 153.52 168.676 154.547C168.662 155.589 169.52 156.278 170.689 156.278C171.843 156.278 172.701 155.589 172.701 154.547C172.701 153.52 171.843 152.83 170.689 152.845ZM177.57 151.296V157.714H176.233V151.296H177.57ZM177.57 158.291V161.472H170.618V162.682H177.993V163.751H169.323V160.472H176.248V159.361H169.281V158.291H177.57ZM190.749 161.218V162.33H179.209V161.218H181.967V157.925C180.933 157.355 180.306 156.447 180.306 155.321C180.306 153.337 182.248 152.028 184.951 152.028C187.667 152.028 189.609 153.337 189.609 155.321C189.609 156.433 189.004 157.327 187.99 157.897V161.218H190.749ZM184.951 153.098C182.966 153.098 181.601 153.956 181.601 155.321C181.601 156.672 182.966 157.559 184.951 157.559C186.921 157.559 188.314 156.672 188.314 155.321C188.314 153.956 186.921 153.098 184.951 153.098ZM183.29 161.218H186.639V158.404C186.126 158.537 185.556 158.601 184.951 158.601C184.359 158.601 183.797 158.537 183.29 158.418V161.218ZM194.878 151.719C196.778 151.733 198.171 152.901 198.185 154.547C198.171 156.208 196.778 157.362 194.878 157.362C192.964 157.362 191.557 156.208 191.557 154.547C191.557 152.901 192.964 151.733 194.878 151.719ZM194.878 152.845C193.71 152.83 192.851 153.52 192.865 154.547C192.851 155.589 193.71 156.278 194.878 156.278C196.032 156.278 196.89 155.589 196.89 154.547C196.89 153.52 196.032 152.83 194.878 152.845ZM201.76 151.296V157.714H200.423V151.296H201.76ZM201.76 158.291V161.472H194.807V162.682H202.182V163.751H193.513V160.472H200.437V159.361H193.471V158.291H201.76Z" fill="#4842B2"/>
<path d="M8.72778 121.887C8.72778 115.255 14.1045 109.878 20.737 109.878H67.7463C74.3788 109.878 79.7556 115.255 79.7556 121.887V134.289H8.72778V121.887Z" fill="#FDFDFD"/>
<path d="M30.8793 117.981C32.6807 117.99 33.9848 118.872 33.9848 120.214C33.9848 121.476 32.8918 122.306 31.3202 122.437V124.088H34.7447V124.83H27.0513V124.088H30.4383V122.437C28.8762 122.306 27.7831 121.476 27.7831 120.214C27.7831 118.872 29.0873 117.99 30.8793 117.981ZM30.8793 118.712C29.5845 118.703 28.6463 119.304 28.6463 120.214C28.6463 121.161 29.5845 121.743 30.8793 121.752C32.1834 121.743 33.1216 121.161 33.1216 120.214C33.1216 119.304 32.1834 118.703 30.8793 118.712ZM41.8978 119.388V120.11H36.1277V117.596H37.0002V119.388H41.8978ZM42.7985 120.852V121.565H35.105V120.852H42.7985ZM41.8321 122.24V124.295H36.9533V125.074H42.1229V125.777H36.062V123.638H40.9502V122.934H36.0432V122.24H41.8321ZM51.888 117.474V119.163H53.1076V119.913H51.888V121.687H50.9966V117.474H51.888ZM46.5589 117.849V120.589C47.6894 120.58 48.881 120.49 50.171 120.232L50.2836 120.974C48.8669 121.255 47.5909 121.339 46.3524 121.339H45.6675V117.849H46.5589ZM51.888 122.071V124.21H47.3563V125.055H52.1788V125.777H46.4744V123.526H50.9966V122.775H46.4556V122.071H51.888ZM60.1199 117.474V120.758H61.227V121.508H60.1199V125.88H59.2286V117.474H60.1199ZM55.335 119.857C55.335 120.8 55.4476 122.09 56.1043 123C56.7283 122.109 56.8549 120.833 56.8643 119.857V119.013H56.2638V118.29H58.6094V119.013H57.7087V119.857C57.7087 121.152 57.9526 122.691 59.0034 123.46L58.4311 124.107C57.8307 123.643 57.4788 122.906 57.2771 122.071C57.0848 122.925 56.7283 123.704 56.095 124.182C55.471 123.709 55.1145 122.925 54.9222 122.081C54.7111 122.906 54.3592 123.648 53.7682 124.107L53.1958 123.46C54.2373 122.681 54.4906 121.114 54.4906 119.857V119.013H53.4867V118.29H55.9261V119.013H55.335V119.857Z" fill="#4842B2"/>
</g>
<g filter="url(#filter3_d_216_2207)">
<rect x="400.229" y="45.0273" width="369.885" height="32.425" rx="16.2125" fill="#FDFDFD"/>
<rect x="400.53" y="45.3276" width="369.285" height="31.8245" rx="15.9123" stroke="#E5E5E5" stroke-width="0.600463"/>
<path d="M415.616 55.9334C417.176 55.9452 418.314 56.8834 418.314 58.2438C418.314 59.6042 417.176 60.5424 415.616 60.5424C414.033 60.5424 412.907 59.6042 412.907 58.2438C412.907 56.8834 414.033 55.9452 415.616 55.9334ZM415.616 56.7075C414.573 56.7075 413.799 57.3408 413.81 58.2438C413.799 59.1586 414.573 59.7919 415.616 59.7919C416.648 59.7919 417.422 59.1586 417.422 58.2438C417.422 57.3408 416.648 56.7075 415.616 56.7075ZM421.269 55.5464V60.906H420.354V55.5464H421.269ZM421.269 61.4103V63.92H415.417V65.0928H421.644V65.8317H414.514V63.2281H420.354V62.1492H414.491V61.4103H421.269ZM431.383 55.5464V61.7621H430.457V59.0296H428.357V58.2673H430.457V55.5464H431.383ZM427.924 62.0905C430.093 62.0905 431.418 62.7942 431.418 64.0256C431.418 65.257 430.093 65.9607 427.924 65.9724C425.754 65.9607 424.429 65.257 424.429 64.0256C424.429 62.7942 425.754 62.0905 427.924 62.0905ZM427.924 62.8059C426.329 62.8059 425.332 63.2633 425.343 64.0256C425.332 64.7762 426.329 65.2336 427.924 65.2336C429.518 65.2336 430.504 64.7762 430.504 64.0256C430.504 63.2633 429.518 62.8059 427.924 62.8059ZM426.364 57.458C426.364 58.8185 427.407 60.1085 428.932 60.6363L428.451 61.3751C427.278 60.9529 426.37 60.0792 425.93 58.9944C425.472 60.2199 424.505 61.1992 423.268 61.6683L422.787 60.9295C424.335 60.3665 425.437 58.9592 425.437 57.4698V57.0827H423.08V56.3087H428.698V57.0827H426.364V57.458ZM437.568 55.7341C439.891 55.7341 441.251 56.3674 441.251 57.5284C441.251 58.7129 439.891 59.3462 437.568 59.3579C435.246 59.3462 433.874 58.7129 433.874 57.5284C433.874 56.3674 435.246 55.7341 437.568 55.7341ZM437.568 56.426C435.833 56.426 434.824 56.8482 434.836 57.5284C434.824 58.2555 435.833 58.6543 437.568 58.6543C439.292 58.6543 440.313 58.2555 440.313 57.5284C440.313 56.8482 439.292 56.426 437.568 56.426ZM442.318 60.0616V60.8122H432.819V60.0616H442.318ZM441.099 61.7152V64.0491H434.906V65.128H441.415V65.8551H433.991V63.3688H440.195V62.4189H433.968V61.7152H441.099ZM450.994 56.2266C450.983 58.8419 449.118 60.7184 446.116 61.5745L445.729 60.8474C448.221 60.1437 449.81 58.7598 450.009 56.9889H446.268V56.2266H450.994ZM454.255 55.5581V61.5041H453.328V59.0178H451.018V58.2438H453.328V55.5581H454.255ZM454.255 61.9498V65.8317H447.488V61.9498H454.255ZM448.379 62.6886V65.0811H453.34V62.6886H448.379ZM458.798 57.587C458.798 58.7715 459.596 59.9678 460.933 60.4955L460.44 61.2109C459.455 60.8005 458.734 60.0381 458.364 59.1117C457.977 60.1261 457.227 61.0116 456.206 61.4689L455.702 60.7535C457.074 60.1437 457.919 58.7715 457.919 57.587V56.1914H458.798V57.587ZM464.545 55.5581V61.856H463.665V59.053H462.281V61.7973H461.413V55.7458H462.281V58.279H463.665V55.5581H464.545ZM464.545 62.4306V65.9724H463.642V63.1929H457.52V62.4306H464.545ZM470.976 57.3525V58.1031H465.746V57.3525H467.915V55.8631H468.83V57.3525H470.976ZM468.361 58.8067C469.674 58.8067 470.613 59.7919 470.624 61.1757C470.613 62.5714 469.674 63.5682 468.361 63.5682C467.059 63.5682 466.121 62.5714 466.121 61.1757C466.121 59.7919 467.059 58.8067 468.361 58.8067ZM468.361 59.5808C467.54 59.5925 466.942 60.261 466.942 61.1757C466.942 62.1022 467.54 62.7707 468.361 62.759C469.194 62.7707 469.803 62.1022 469.803 61.1757C469.803 60.261 469.194 59.5925 468.361 59.5808ZM474.647 55.5464V65.9724H473.767V60.7066H472.384V65.4564H471.516V55.8044H472.384V59.9443H473.767V55.5464H474.647ZM483.828 57.0241C483.816 58.4197 485.681 59.6042 487.498 59.874L487.158 60.6011C485.528 60.3255 483.945 59.4576 483.312 58.1969C482.678 59.4576 481.089 60.3255 479.488 60.6011L479.125 59.874C480.931 59.6042 482.796 58.4197 482.796 57.0241V56.9537H479.453V56.2032H487.158V56.9537H483.828V57.0241ZM488.061 61.4924V62.2547H483.745V65.9724H482.842V62.2547H478.562V61.4924H488.061ZM491.737 58.5135C491.737 60.1672 492.546 61.9615 493.93 62.7825L493.402 63.4978C492.399 62.888 491.678 61.7739 491.315 60.5073C490.928 61.8911 490.154 63.0815 489.11 63.7207L488.523 63.0287C489.966 62.1843 490.845 60.3313 490.845 58.5487V56.5315H491.737V58.5135ZM497.577 55.5464V65.9724H496.686V55.5464H497.577ZM495.419 55.7692V65.4447H494.551V60.0733H492.781V59.2876H494.551V55.7692H495.419ZM508.266 63.8614V64.6354H498.72V63.8614H501.089V61.0467C500.197 60.5835 499.658 59.8329 499.658 58.8888C499.658 57.2704 501.241 56.2149 503.469 56.2032C505.698 56.2149 507.281 57.2704 507.281 58.8888C507.281 59.8153 506.759 60.56 505.897 61.0233V63.8614H508.266ZM503.469 56.9655C501.757 56.9537 500.549 57.7278 500.549 58.8888C500.549 60.0499 501.757 60.8356 503.469 60.8356C505.17 60.8356 506.389 60.0499 506.389 58.8888C506.389 57.7278 505.17 56.9537 503.469 56.9655ZM501.992 63.8614H504.97V61.3751C504.519 61.4983 504.015 61.5628 503.469 61.5628C502.936 61.5628 502.437 61.5041 501.992 61.3868V63.8614ZM510.487 56.5315L510.405 62.63H509.42L509.338 56.5315H510.487ZM509.913 65.0928C509.502 65.0928 509.15 64.7527 509.162 64.3305C509.15 63.92 509.502 63.5799 509.913 63.5799C510.323 63.5799 510.663 63.92 510.663 64.3305C510.663 64.7527 510.323 65.0928 509.913 65.0928Z" fill="#BDBDBD"/>
</g>
<g filter="url(#filter4_d_216_2207)">
<path d="M266.326 103.873H886.004C895.953 103.873 904.018 111.938 904.018 121.887V657.5H266.326V103.873Z" fill="#F4F6FF" shape-rendering="crispEdges"/>
<g clip-path="url(#clip3_216_2207)">
<mask id="path-60-inside-1_216_2207" fill="white">
<path d="M266.326 150.108H356.396V251.587H266.326V150.108Z"/>
</mask>
<path d="M266.326 150.108H356.396V251.587H266.326V150.108Z" fill="#FDFDFD"/>
<g clip-path="url(#clip4_216_2207)">
<rect width="90.0694" height="14.4111" transform="translate(266.326 150.108)" fill="#FDFDFD"/>
<path d="M272.732 156.948C273.668 156.955 274.653 157.518 274.653 159.383C274.653 161.17 273.886 162.184 272.662 162.184C271.726 162.184 271.065 161.607 270.945 160.776H271.712C271.817 161.206 272.148 161.508 272.662 161.508C273.45 161.508 273.907 160.819 273.914 159.657H273.851C273.577 160.087 273.098 160.347 272.549 160.347C271.635 160.347 270.903 159.65 270.903 158.672C270.903 157.701 271.628 156.941 272.732 156.948ZM272.732 157.596C272.113 157.596 271.656 158.074 271.656 158.658C271.656 159.249 272.099 159.714 272.718 159.714C273.33 159.714 273.809 159.214 273.809 158.651C273.809 158.102 273.359 157.596 272.732 157.596ZM280.314 156.414V160.108H279.645V159.805H278.414V159.383H279.645V156.414H280.314ZM275.057 158.736C276.275 158.743 277.823 158.729 279.181 158.581L279.216 159.01C278.621 159.091 278.006 159.14 277.4 159.172V160.122H276.739V159.2C276.169 159.214 275.627 159.218 275.135 159.214L275.057 158.736ZM280.314 160.319V161.677H276.683V162.163H280.504V162.648H276.028V161.234H279.652V160.783H276V160.319H280.314ZM277.105 156.519C278.041 156.519 278.674 156.892 278.681 157.469C278.674 158.06 278.041 158.412 277.105 158.412C276.148 158.412 275.522 158.06 275.529 157.469C275.522 156.892 276.148 156.519 277.105 156.519ZM277.105 156.969C276.521 156.969 276.155 157.166 276.155 157.469C276.155 157.772 276.521 157.962 277.105 157.962C277.675 157.962 278.048 157.772 278.048 157.469C278.048 157.166 277.675 156.969 277.105 156.969Z" fill="#BDBDBD"/>
<path d="M282.614 162.111V161.267L285.263 158.597C286.097 157.72 286.519 157.235 286.519 156.57C286.519 155.821 285.907 155.335 285.105 155.335C284.261 155.335 283.712 155.873 283.712 156.686H282.614C282.603 155.293 283.669 154.364 285.126 154.364C286.604 154.364 287.617 155.293 287.628 156.538C287.617 157.393 287.216 158.069 285.781 159.483L284.229 161.056V161.119H287.754V162.111H282.614ZM291.442 162.217C289.785 162.217 288.624 161.32 288.635 160.074C288.624 159.093 289.331 158.29 290.228 158.153V158.111C289.447 157.932 288.92 157.235 288.92 156.401C288.92 155.229 289.986 154.364 291.442 154.364C292.888 154.364 293.944 155.229 293.954 156.401C293.944 157.235 293.416 157.932 292.645 158.111V158.153C293.532 158.29 294.239 159.093 294.25 160.074C294.239 161.32 293.078 162.217 291.442 162.217ZM291.442 161.256C292.434 161.256 293.068 160.739 293.068 159.99C293.068 159.198 292.382 158.628 291.442 158.628C290.492 158.628 289.796 159.198 289.817 159.99C289.796 160.739 290.429 161.256 291.442 161.256ZM291.442 157.71C292.244 157.71 292.814 157.224 292.814 156.507C292.814 155.799 292.255 155.314 291.442 155.314C290.598 155.314 290.049 155.789 290.049 156.507C290.049 157.224 290.629 157.71 291.442 157.71ZM297.537 153.868C298.962 153.878 300.007 154.754 300.017 155.989C300.007 157.235 298.962 158.1 297.537 158.1C296.101 158.1 295.046 157.235 295.046 155.989C295.046 154.754 296.101 153.878 297.537 153.868ZM297.537 154.712C296.661 154.702 296.017 155.219 296.027 155.989C296.017 156.77 296.661 157.288 297.537 157.288C298.402 157.288 299.046 156.77 299.046 155.989C299.046 155.219 298.402 154.702 297.537 154.712ZM302.698 153.551V158.364H301.695V153.551H302.698ZM302.698 158.797V161.182H297.484V162.09H303.015V162.892H296.513V160.433H301.706V159.599H296.481V158.797H302.698Z" fill="#BDBDBD"/>
</g>
</g>
<path d="M356.396 251.587V252.187H356.996V251.587H356.396ZM356.396 150.108H355.795V251.587H356.396H356.996V150.108H356.396ZM356.396 251.587V250.986H266.326V251.587V252.187H356.396V251.587Z" fill="#EAEDFF" mask="url(#path-60-inside-1_216_2207)"/>
<g clip-path="url(#clip5_216_2207)">
<mask id="path-64-inside-2_216_2207" fill="white">
<path d="M356.396 150.108H447.666V251.587H356.396V150.108Z"/>
</mask>
<path d="M356.396 150.108H447.666V251.587H356.396V150.108Z" fill="#FDFDFD"/>
<g clip-path="url(#clip6_216_2207)">
<rect width="91.2704" height="14.4111" transform="translate(356.396 150.108)" fill="#FDFDFD"/>
<path d="M362.802 156.948C363.737 156.955 364.723 157.518 364.723 159.383C364.723 161.17 363.956 162.184 362.731 162.184C361.795 162.184 361.134 161.607 361.014 160.776H361.781C361.887 161.206 362.218 161.508 362.731 161.508C363.519 161.508 363.977 160.819 363.984 159.657H363.92C363.646 160.087 363.168 160.347 362.619 160.347C361.704 160.347 360.972 159.65 360.972 158.672C360.972 157.701 361.697 156.941 362.802 156.948ZM362.802 157.596C362.182 157.596 361.725 158.074 361.725 158.658C361.725 159.249 362.168 159.714 362.788 159.714C363.4 159.714 363.878 159.214 363.878 158.651C363.878 158.102 363.428 157.596 362.802 157.596ZM370.383 156.414V160.108H369.714V159.805H368.483V159.383H369.714V156.414H370.383ZM365.127 158.736C366.344 158.743 367.892 158.729 369.25 158.581L369.285 159.01C368.691 159.091 368.075 159.14 367.47 159.172V160.122H366.808V159.2C366.238 159.214 365.696 159.218 365.204 159.214L365.127 158.736ZM370.383 160.319V161.677H366.752V162.163H370.573V162.648H366.098V161.234H369.721V160.783H366.069V160.319H370.383ZM367.174 156.519C368.11 156.519 368.743 156.892 368.75 157.469C368.743 158.06 368.11 158.412 367.174 158.412C366.217 158.412 365.591 158.06 365.598 157.469C365.591 156.892 366.217 156.519 367.174 156.519ZM367.174 156.969C366.59 156.969 366.224 157.166 366.224 157.469C366.224 157.772 366.59 157.962 367.174 157.962C367.744 157.962 368.117 157.772 368.117 157.469C368.117 157.166 367.744 156.969 367.174 156.969Z" fill="#BDBDBD"/>
<path d="M372.683 162.111V161.267L375.333 158.597C376.166 157.72 376.589 157.235 376.589 156.57C376.589 155.821 375.976 155.335 375.174 155.335C374.33 155.335 373.781 155.873 373.781 156.686H372.683C372.673 155.293 373.739 154.364 375.195 154.364C376.673 154.364 377.686 155.293 377.697 156.538C377.686 157.393 377.285 158.069 375.85 159.483L374.298 161.056V161.119H377.824V162.111H372.683ZM381.469 154.364C382.873 154.375 384.351 155.219 384.351 158.016C384.351 160.697 383.2 162.217 381.364 162.217C379.96 162.217 378.968 161.351 378.788 160.106H379.939C380.097 160.75 380.593 161.204 381.364 161.204C382.546 161.204 383.232 160.169 383.243 158.428H383.148C382.736 159.071 382.018 159.462 381.195 159.462C379.823 159.462 378.725 158.417 378.725 156.95C378.725 155.493 379.812 154.353 381.469 154.364ZM381.469 155.335C380.54 155.335 379.854 156.053 379.854 156.929C379.854 157.815 380.519 158.512 381.448 158.512C382.367 158.512 383.084 157.763 383.084 156.918C383.084 156.095 382.409 155.335 381.469 155.335ZM387.659 153.868C389.084 153.878 390.129 154.754 390.139 155.989C390.129 157.235 389.084 158.1 387.659 158.1C386.223 158.1 385.168 157.235 385.168 155.989C385.168 154.754 386.223 153.878 387.659 153.868ZM387.659 154.712C386.783 154.702 386.139 155.219 386.149 155.989C386.139 156.77 386.783 157.288 387.659 157.288C388.524 157.288 389.168 156.77 389.168 155.989C389.168 155.219 388.524 154.702 387.659 154.712ZM392.82 153.551V158.364H391.817V153.551H392.82ZM392.82 158.797V161.182H387.606V162.09H393.137V162.892H386.635V160.433H391.828V159.599H386.603V158.797H392.82Z" fill="#BDBDBD"/>
</g>
<path d="M362.257 171.499C362.257 169.871 363.577 168.552 365.205 168.552H448.319V185.057H365.205C363.577 185.057 362.257 183.737 362.257 182.109V171.499Z" fill="#FFEBB5"/>
<path d="M381.415 172.618V180.871H380.577V176.588H379.554V180.475H378.735V172.839H379.554V175.879H380.577V172.618H381.415ZM377.915 173.668C377.906 175.842 377.187 177.785 374.83 179.121L374.323 178.513C376.156 177.477 376.929 176.072 377.068 174.387H374.673V173.668H377.915ZM389.109 172.627V178.623H388.234V172.627H389.109ZM389.358 179.987V180.696H383.712V178.016H384.596V179.987H389.358ZM384.633 173.18C385.876 173.18 386.825 174.027 386.825 175.225C386.825 176.441 385.876 177.279 384.633 177.279C383.39 177.279 382.432 176.441 382.432 175.225C382.432 174.027 383.39 173.18 384.633 173.18ZM384.633 173.945C383.859 173.945 383.288 174.47 383.288 175.225C383.288 175.998 383.859 176.514 384.633 176.514C385.388 176.514 385.969 175.998 385.969 175.225C385.969 174.47 385.388 173.945 384.633 173.945ZM394.588 172.895C395.831 172.904 396.743 173.668 396.752 174.746C396.743 175.833 395.831 176.588 394.588 176.588C393.335 176.588 392.414 175.833 392.414 174.746C392.414 173.668 393.335 172.904 394.588 172.895ZM394.588 173.631C393.823 173.622 393.261 174.073 393.271 174.746C393.261 175.427 393.823 175.879 394.588 175.879C395.343 175.879 395.905 175.427 395.905 174.746C395.905 174.073 395.343 173.622 394.588 173.631ZM399.092 172.618V176.818H398.217V172.618H399.092ZM399.092 177.196V179.277H394.542V180.069H399.368V180.769H393.694V178.623H398.226V177.896H393.667V177.196H399.092ZM407.044 172.618V177.527H406.169V175.437H404.631V174.718H406.169V172.618H407.044ZM404.281 177.758C406.012 177.758 407.071 178.329 407.071 179.314C407.071 180.3 406.012 180.862 404.281 180.871C402.549 180.862 401.481 180.3 401.49 179.314C401.481 178.329 402.549 177.758 404.281 177.758ZM404.281 178.439C403.074 178.439 402.356 178.752 402.356 179.314C402.356 179.867 403.074 180.189 404.281 180.18C405.487 180.189 406.206 179.867 406.206 179.314C406.206 178.752 405.487 178.439 404.281 178.439ZM403.12 174.073C403.12 175.123 403.866 176.137 405.11 176.56L404.658 177.251C403.733 176.929 403.051 176.27 402.697 175.455C402.333 176.381 401.61 177.122 400.624 177.481L400.164 176.781C401.444 176.339 402.227 175.225 402.227 174.083V173.899H400.44V173.189H404.889V173.899H403.12V174.073Z" fill="#606060"/>
<path d="M362.257 191.541C362.257 189.913 363.577 188.594 365.205 188.594H448.319V205.099H365.205C363.577 205.099 362.257 203.779 362.257 202.151V191.541Z" fill="#D9C9FF"/>
<path d="M381.175 192.661V200.914H380.3V192.661H381.175ZM374.397 198.666C375.074 198.662 375.852 198.657 376.662 198.63V197.81C375.695 197.685 375.069 197.119 375.078 196.309C375.069 195.378 375.88 194.761 377.077 194.761C378.283 194.761 379.112 195.378 379.112 196.309C379.112 197.11 378.486 197.672 377.528 197.801V198.602C378.293 198.57 379.066 198.51 379.794 198.418L379.858 199.072C378.026 199.376 376.027 199.394 374.516 199.394L374.397 198.666ZM379.61 193.647V194.347H374.572V193.647H376.662V192.68H377.537V193.647H379.61ZM377.077 195.443C376.386 195.443 375.898 195.784 375.907 196.309C375.898 196.834 376.386 197.156 377.077 197.156C377.786 197.156 378.274 196.834 378.274 196.309C378.274 195.784 377.786 195.443 377.077 195.443ZM384.955 193.251C386.263 193.241 387.194 194.052 387.203 195.213C387.194 196.373 386.263 197.184 384.955 197.184C383.657 197.184 382.699 196.373 382.708 195.213C382.699 194.052 383.657 193.241 384.955 193.251ZM384.955 194.006C384.154 194.006 383.565 194.485 383.574 195.213C383.565 195.94 384.154 196.419 384.955 196.419C385.757 196.419 386.346 195.94 386.346 195.213C386.346 194.485 385.757 194.006 384.955 194.006ZM389.091 192.661V200.932H388.216V192.661H389.091ZM382.312 198.427C383.813 198.427 385.895 198.409 387.7 198.151L387.765 198.786C385.895 199.145 383.896 199.155 382.423 199.155L382.312 198.427Z" fill="#606060"/>
<path d="M362.257 211.582C362.257 209.954 363.577 208.635 365.205 208.635H448.319V225.14H365.205C363.577 225.14 362.257 223.82 362.257 222.192V211.582Z" fill="#A0D4FF"/>
<path d="M381.903 219.186V219.923H374.351V219.186H381.903ZM381.212 213.494V214.213H379.95V216.967H381.185V217.667H375.014V216.967H376.248V214.213H374.995V213.494H381.212ZM377.114 216.967H379.094V214.213H377.114V216.967ZM389.819 219.232V219.969H382.266V219.232H385.591V217.786H383.187V215.161H388.032V214.001H383.169V213.282H388.897V215.861H384.053V217.068H389.091V217.786H386.457V219.232H389.819ZM395.597 212.877V217.676H394.768V215.511H393.617V214.802H394.768V212.877H395.597ZM392.677 214.471C392.677 215.364 393.221 216.294 394.271 216.727L393.829 217.4C393.078 217.091 392.562 216.52 392.272 215.843C391.977 216.603 391.434 217.243 390.633 217.584L390.163 216.893C391.259 216.451 391.83 215.429 391.83 214.471V214.065H390.366V213.356H394.059V214.065H392.677V214.471ZM397.218 212.702V217.74H396.389V212.702H397.218ZM397.218 218.081V220.955H396.352V218.79H391.609V218.081H397.218ZM404.793 217.096V217.796H399.046V213.384H404.71V214.093H399.93V215.207H404.535V215.898H399.93V217.096H404.793ZM405.649 219.196V219.914H398.097V219.196H405.649ZM414.904 212.702V220.955H414.029V212.702H414.904ZM408.125 218.707C408.802 218.703 409.58 218.698 410.391 218.671V217.851C409.424 217.727 408.797 217.16 408.807 216.35C408.797 215.419 409.608 214.802 410.805 214.802C412.012 214.802 412.841 215.419 412.841 216.35C412.841 217.151 412.215 217.713 411.257 217.842V218.643C412.021 218.611 412.795 218.551 413.522 218.459L413.587 219.113C411.754 219.417 409.755 219.435 408.245 219.435L408.125 218.707ZM413.338 213.688V214.388H408.3V213.688H410.391V212.721H411.266V213.688H413.338ZM410.805 215.484C410.115 215.484 409.626 215.825 409.636 216.35C409.626 216.875 410.115 217.197 410.805 217.197C411.515 217.197 412.003 216.875 412.003 216.35C412.003 215.825 411.515 215.484 410.805 215.484ZM418.684 213.292C419.992 213.282 420.922 214.093 420.931 215.254C420.922 216.414 419.992 217.225 418.684 217.225C417.385 217.225 416.427 216.414 416.437 215.254C416.427 214.093 417.385 213.282 418.684 213.292ZM418.684 214.047C417.883 214.047 417.293 214.526 417.302 215.254C417.293 215.981 417.883 216.46 418.684 216.46C419.485 216.46 420.075 215.981 420.075 215.254C420.075 214.526 419.485 214.047 418.684 214.047ZM422.819 212.702V220.973H421.944V212.702H422.819ZM416.041 218.468C417.542 218.468 419.623 218.45 421.429 218.192L421.493 218.827C419.623 219.186 417.625 219.196 416.151 219.196L416.041 218.468Z" fill="#606060"/>
<path d="M362.257 231.624C362.257 229.996 363.577 228.677 365.205 228.677H448.319V245.182H365.205C363.577 245.182 362.257 243.862 362.257 242.234V231.624Z" fill="#A0D4FF"/>
<path d="M381.903 239.229V239.966H374.351V239.229H381.903ZM381.212 233.537V234.256H379.95V237.01H381.185V237.71H375.014V237.01H376.248V234.256H374.995V233.537H381.212ZM377.114 237.01H379.094V234.256H377.114V237.01ZM389.819 239.275V240.012H382.266V239.275H385.591V237.829H383.187V235.204H388.032V234.044H383.169V233.325H388.897V235.904H384.053V237.111H389.091V237.829H386.457V239.275H389.819ZM395.597 232.92V237.719H394.768V235.554H393.617V234.845H394.768V232.92H395.597ZM392.677 234.514C392.677 235.407 393.221 236.337 394.271 236.77L393.829 237.443C393.078 237.134 392.562 236.563 392.272 235.886C391.977 236.646 391.434 237.286 390.633 237.627L390.163 236.936C391.259 236.494 391.83 235.471 391.83 234.514V234.108H390.366V233.399H394.059V234.108H392.677V234.514ZM397.218 232.745V237.783H396.389V232.745H397.218ZM397.218 238.124V240.998H396.352V238.833H391.609V238.124H397.218ZM404.793 237.139V237.839H399.046V233.427H404.71V234.136H399.93V235.25H404.535V235.941H399.93V237.139H404.793ZM405.649 239.239V239.957H398.097V239.239H405.649ZM414.904 232.745V240.998H414.029V232.745H414.904ZM408.125 238.75C408.802 238.746 409.58 238.741 410.391 238.714V237.894C409.424 237.769 408.797 237.203 408.807 236.393C408.797 235.462 409.608 234.845 410.805 234.845C412.012 234.845 412.841 235.462 412.841 236.393C412.841 237.194 412.215 237.756 411.257 237.885V238.686C412.021 238.654 412.795 238.594 413.522 238.502L413.587 239.156C411.754 239.46 409.755 239.478 408.245 239.478L408.125 238.75ZM413.338 233.731V234.431H408.3V233.731H410.391V232.764H411.266V233.731H413.338ZM410.805 235.527C410.115 235.527 409.626 235.868 409.636 236.393C409.626 236.918 410.115 237.24 410.805 237.24C411.515 237.24 412.003 236.918 412.003 236.393C412.003 235.868 411.515 235.527 410.805 235.527ZM418.684 233.335C419.992 233.325 420.922 234.136 420.931 235.296C420.922 236.457 419.992 237.268 418.684 237.268C417.385 237.268 416.427 236.457 416.437 235.296C416.427 234.136 417.385 233.325 418.684 233.335ZM418.684 234.09C417.883 234.09 417.293 234.569 417.302 235.296C417.293 236.024 417.883 236.503 418.684 236.503C419.485 236.503 420.075 236.024 420.075 235.296C420.075 234.569 419.485 234.09 418.684 234.09ZM422.819 232.745V241.016H421.944V232.745H422.819ZM416.041 238.511C417.542 238.511 419.623 238.492 421.429 238.235L421.493 238.87C419.623 239.229 417.625 239.239 416.151 239.239L416.041 238.511Z" fill="#606060"/>
</g>
<path d="M447.666 251.587V252.187H448.267V251.587H447.666ZM447.666 150.108H447.066V251.587H447.666H448.267V150.108H447.666ZM447.666 251.587V250.986H356.396V251.587V252.187H447.666V251.587Z" fill="#EAEDFF" mask="url(#path-64-inside-2_216_2207)"/>
<g clip-path="url(#clip7_216_2207)">
<mask id="path-76-inside-3_216_2207" fill="white">
<path d="M447.666 150.108H538.937V251.587H447.666V150.108Z"/>
</mask>
<path d="M447.666 150.108H538.937V251.587H447.666V150.108Z" fill="#FDFDFD"/>
<g clip-path="url(#clip8_216_2207)">
<rect width="91.2704" height="14.4111" transform="translate(447.666 150.108)" fill="#FDFDFD"/>
<path d="M454.072 156.948C455.008 156.955 455.993 157.518 455.993 159.383C455.993 161.17 455.226 162.184 454.002 162.184C453.066 162.184 452.404 161.607 452.285 160.776H453.052C453.157 161.206 453.488 161.508 454.002 161.508C454.79 161.508 455.247 160.819 455.254 159.657H455.191C454.917 160.087 454.438 160.347 453.889 160.347C452.974 160.347 452.243 159.65 452.243 158.672C452.243 157.701 452.967 156.941 454.072 156.948ZM454.072 157.596C453.453 157.596 452.995 158.074 452.995 158.658C452.995 159.249 453.439 159.714 454.058 159.714C454.67 159.714 455.149 159.214 455.149 158.651C455.149 158.102 454.698 157.596 454.072 157.596ZM461.653 156.414V160.108H460.985V159.805H459.754V159.383H460.985V156.414H461.653ZM456.397 158.736C457.614 158.743 459.162 158.729 460.521 158.581L460.556 159.01C459.961 159.091 459.345 159.14 458.74 159.172V160.122H458.079V159.2C457.509 159.214 456.967 159.218 456.474 159.214L456.397 158.736ZM461.653 160.319V161.677H458.022V162.163H461.843V162.648H457.368V161.234H460.992V160.783H457.34V160.319H461.653ZM458.445 156.519C459.381 156.519 460.014 156.892 460.021 157.469C460.014 158.06 459.381 158.412 458.445 158.412C457.488 158.412 456.861 158.06 456.868 157.469C456.861 156.892 457.488 156.519 458.445 156.519ZM458.445 156.969C457.861 156.969 457.495 157.166 457.495 157.469C457.495 157.772 457.861 157.962 458.445 157.962C459.015 157.962 459.388 157.772 459.388 157.469C459.388 157.166 459.015 156.969 458.445 156.969Z" fill="#BDBDBD"/>
<path d="M466.666 162.217C465.083 162.217 463.954 161.362 463.912 160.116H465.094C465.136 160.792 465.801 161.214 466.656 161.214C467.574 161.214 468.25 160.708 468.25 159.969C468.25 159.219 467.616 158.67 466.529 158.67H465.875V157.72H466.529C467.395 157.72 468.007 157.235 468.007 156.507C468.007 155.81 467.49 155.335 466.677 155.335C465.907 155.335 465.231 155.757 465.199 156.454H464.081C464.112 155.208 465.263 154.364 466.688 154.364C468.186 154.364 469.136 155.314 469.126 156.443C469.136 157.309 468.598 157.942 467.775 158.143V158.195C468.82 158.343 469.421 159.04 469.421 160.011C469.421 161.288 468.25 162.217 466.666 162.217ZM473.088 162.217C471.315 162.217 470.281 160.792 470.281 158.29C470.281 155.81 471.336 154.364 473.088 154.364C474.84 154.364 475.896 155.81 475.896 158.29C475.896 160.792 474.851 162.217 473.088 162.217ZM473.088 161.214C474.123 161.214 474.735 160.201 474.735 158.29C474.735 156.391 474.112 155.346 473.088 155.346C472.064 155.346 471.442 156.391 471.442 158.29C471.442 160.201 472.054 161.214 473.088 161.214ZM479.183 153.868C480.608 153.878 481.652 154.754 481.663 155.989C481.652 157.235 480.608 158.1 479.183 158.1C477.747 158.1 476.692 157.235 476.692 155.989C476.692 154.754 477.747 153.878 479.183 153.868ZM479.183 154.712C478.307 154.702 477.663 155.219 477.673 155.989C477.663 156.77 478.307 157.288 479.183 157.288C480.048 157.288 480.692 156.77 480.692 155.989C480.692 155.219 480.048 154.702 479.183 154.712ZM484.344 153.551V158.364H483.341V153.551H484.344ZM484.344 158.797V161.182H479.13V162.09H484.661V162.892H478.159V160.433H483.352V159.599H478.127V158.797H484.344Z" fill="#BDBDBD"/>
</g>
</g>
<path d="M538.937 251.587V252.187H539.537V251.587H538.937ZM538.937 150.108H538.336V251.587H538.937H539.537V150.108H538.937ZM538.937 251.587V250.986H447.666V251.587V252.187H538.937V251.587Z" fill="#EAEDFF" mask="url(#path-76-inside-3_216_2207)"/>
<g clip-path="url(#clip9_216_2207)">
<mask id="path-80-inside-4_216_2207" fill="white">
<path d="M266.326 251.587H356.396V353.065H266.326V251.587Z"/>
</mask>
<path d="M266.326 251.587H356.396V353.065H266.326V251.587Z" fill="#FDFDFD"/>
<g clip-path="url(#clip10_216_2207)">
<rect width="90.0694" height="14.4111" transform="translate(266.326 251.587)" fill="#EAEDFF"/>
<path d="M271.714 258.496V263.591H270.933V259.27H270.905L269.687 260.065V259.327L270.954 258.496H271.714ZM274.602 263.661C273.42 263.661 272.73 262.711 272.73 261.044C272.73 259.39 273.434 258.426 274.602 258.426C275.77 258.426 276.474 259.39 276.474 261.044C276.474 262.711 275.777 263.661 274.602 263.661ZM274.602 262.993C275.291 262.993 275.7 262.317 275.7 261.044C275.7 259.777 275.284 259.08 274.602 259.08C273.919 259.08 273.504 259.777 273.504 261.044C273.504 262.317 273.912 262.993 274.602 262.993ZM282.12 257.891V261.585H281.451V261.283H280.22V260.861H281.451V257.891H282.12ZM276.863 260.213C278.081 260.22 279.629 260.206 280.987 260.058L281.022 260.488C280.428 260.569 279.812 260.618 279.207 260.649V261.599H278.545V260.678C277.975 260.692 277.433 260.695 276.941 260.692L276.863 260.213ZM282.12 261.796V263.155H278.489V263.64H282.31V264.126H277.835V262.711H281.458V262.261H277.806V261.796H282.12ZM278.911 257.997C279.847 257.997 280.48 258.37 280.487 258.947C280.48 259.538 279.847 259.89 278.911 259.89C277.954 259.89 277.328 259.538 277.335 258.947C277.328 258.37 277.954 257.997 278.911 257.997ZM278.911 258.447C278.327 258.447 277.961 258.644 277.961 258.947C277.961 259.249 278.327 259.439 278.911 259.439C279.481 259.439 279.854 259.249 279.854 258.947C279.854 258.644 279.481 258.447 278.911 258.447Z" fill="#7E8DF5"/>
<path d="M287.012 263.694C285.566 263.694 284.479 262.808 284.426 261.594H285.555C285.619 262.248 286.241 262.723 287.012 262.723C287.941 262.723 288.606 262.048 288.606 261.14C288.606 260.211 287.92 259.536 286.959 259.525C286.347 259.525 285.882 259.726 285.619 260.201H284.521L285.017 255.947H289.344V256.939H285.977L285.724 259.082H285.798C286.115 258.776 286.653 258.565 287.233 258.565C288.669 258.565 289.735 259.631 289.735 261.108C289.735 262.618 288.606 263.694 287.012 263.694ZM293.053 255.345C294.478 255.356 295.523 256.232 295.534 257.467C295.523 258.712 294.478 259.578 293.053 259.578C291.618 259.578 290.563 258.712 290.563 257.467C290.563 256.232 291.618 255.356 293.053 255.345ZM293.053 256.19C292.177 256.179 291.534 256.696 291.544 257.467C291.534 258.248 292.177 258.765 293.053 258.765C293.919 258.765 294.563 258.248 294.563 257.467C294.563 256.696 293.919 256.179 293.053 256.19ZM298.215 255.029V259.842H297.212V255.029H298.215ZM298.215 260.275V262.66H293.001V263.568H298.532V264.37H292.03V261.911H297.223V261.077H291.998V260.275H298.215Z" fill="#4842B2"/>
</g>
</g>
<path d="M356.396 353.065V353.666H356.996V353.065H356.396ZM356.396 251.587H355.795V353.065H356.396H356.996V251.587H356.396ZM356.396 353.065V352.465H266.326V353.065V353.666H356.396V353.065Z" fill="#EAEDFF" mask="url(#path-80-inside-4_216_2207)"/>
<g clip-path="url(#clip11_216_2207)">
<mask id="path-84-inside-5_216_2207" fill="white">
<path d="M356.396 251.587H447.666V353.065H356.396V251.587Z"/>
</mask>
<path d="M356.396 251.587H447.666V353.065H356.396V251.587Z" fill="#FDFDFD"/>
<g clip-path="url(#clip12_216_2207)">
<rect width="91.2704" height="14.4111" transform="translate(356.396 251.587)" fill="#EAEDFF"/>
<path d="M362.985 258.496V263.591H362.203V259.27H362.175L360.958 260.065V259.327L362.225 258.496H362.985ZM365.872 263.661C364.69 263.661 364.001 262.711 364.001 261.044C364.001 259.39 364.704 258.426 365.872 258.426C367.04 258.426 367.744 259.39 367.744 261.044C367.744 262.711 367.048 263.661 365.872 263.661ZM365.872 262.993C366.562 262.993 366.97 262.317 366.97 261.044C366.97 259.777 366.555 259.08 365.872 259.08C365.19 259.08 364.775 259.777 364.775 261.044C364.775 262.317 365.183 262.993 365.872 262.993ZM373.39 257.891V261.585H372.722V261.283H371.49V260.861H372.722V257.891H373.39ZM368.134 260.213C369.351 260.22 370.899 260.206 372.257 260.058L372.293 260.488C371.698 260.569 371.082 260.618 370.477 260.649V261.599H369.816V260.678C369.246 260.692 368.704 260.695 368.211 260.692L368.134 260.213ZM373.39 261.796V263.155H369.759V263.64H373.58V264.126H369.105V262.711H372.729V262.261H369.077V261.796H373.39ZM370.182 257.997C371.118 257.997 371.751 258.37 371.758 258.947C371.751 259.538 371.118 259.89 370.182 259.89C369.225 259.89 368.598 259.538 368.605 258.947C368.598 258.37 369.225 257.997 370.182 257.997ZM370.182 258.447C369.598 258.447 369.232 258.644 369.232 258.947C369.232 259.249 369.598 259.439 370.182 259.439C370.752 259.439 371.125 259.249 371.125 258.947C371.125 258.644 370.752 258.447 370.182 258.447Z" fill="#7E8DF5"/>
<path d="M378.451 263.694C377.037 263.684 375.559 262.85 375.559 260.021C375.559 257.361 376.709 255.841 378.546 255.841C379.95 255.841 380.931 256.718 381.111 257.931H379.96C379.813 257.309 379.316 256.855 378.546 256.855C377.364 256.855 376.678 257.889 376.678 259.61H376.762C377.174 258.966 377.892 258.575 378.725 258.575C380.087 258.575 381.185 259.62 381.185 261.087C381.185 262.565 380.098 263.705 378.451 263.694ZM378.44 262.723C379.369 262.723 380.055 262.006 380.055 261.108C380.055 260.232 379.39 259.525 378.472 259.525C377.533 259.525 376.825 260.264 376.815 261.119C376.825 261.963 377.501 262.723 378.44 262.723ZM384.503 255.345C385.928 255.356 386.973 256.232 386.984 257.467C386.973 258.712 385.928 259.578 384.503 259.578C383.068 259.578 382.012 258.712 382.012 257.467C382.012 256.232 383.068 255.356 384.503 255.345ZM384.503 256.19C383.627 256.179 382.983 256.696 382.994 257.467C382.983 258.248 383.627 258.765 384.503 258.765C385.369 258.765 386.013 258.248 386.013 257.467C386.013 256.696 385.369 256.179 384.503 256.19ZM389.665 255.029V259.842H388.662V255.029H389.665ZM389.665 260.275V262.66H384.45V263.568H389.981V264.37H383.479V261.911H388.672V261.077H383.448V260.275H389.665Z" fill="#7E8DF5"/>
</g>
</g>
<path d="M447.666 353.065V353.666H448.267V353.065H447.666ZM447.666 251.587H447.066V353.065H447.666H448.267V251.587H447.666ZM447.666 353.065V352.465H356.396V353.065V353.666H447.666V353.065Z" fill="#EAEDFF" mask="url(#path-84-inside-5_216_2207)"/>
<g clip-path="url(#clip13_216_2207)">
<mask id="path-88-inside-6_216_2207" fill="white">
<path d="M447.666 251.587H538.937V353.065H447.666V251.587Z"/>
</mask>
<path d="M447.666 251.587H538.937V353.065H447.666V251.587Z" fill="#FDFDFD"/>
<g clip-path="url(#clip14_216_2207)">
<rect width="91.2704" height="14.4111" transform="translate(447.666 251.587)" fill="#EAEDFF"/>
<path d="M454.255 258.496V263.591H453.474V259.27H453.446L452.228 260.065V259.327L453.495 258.496H454.255ZM457.143 263.661C455.961 263.661 455.271 262.711 455.271 261.044C455.271 259.39 455.975 258.426 457.143 258.426C458.311 258.426 459.015 259.39 459.015 261.044C459.015 262.711 458.318 263.661 457.143 263.661ZM457.143 262.993C457.833 262.993 458.241 262.317 458.241 261.044C458.241 259.777 457.825 259.08 457.143 259.08C456.46 259.08 456.045 259.777 456.045 261.044C456.045 262.317 456.453 262.993 457.143 262.993ZM464.661 257.891V261.585H463.992V261.283H462.761V260.861H463.992V257.891H464.661ZM459.405 260.213C460.622 260.22 462.17 260.206 463.528 260.058L463.563 260.488C462.969 260.569 462.353 260.618 461.748 260.649V261.599H461.086V260.678C460.516 260.692 459.974 260.695 459.482 260.692L459.405 260.213ZM464.661 261.796V263.155H461.03V263.64H464.851V264.126H460.376V262.711H463.999V262.261H460.347V261.796H464.661ZM461.452 257.997C462.388 257.997 463.021 258.37 463.028 258.947C463.021 259.538 462.388 259.89 461.452 259.89C460.495 259.89 459.869 259.538 459.876 258.947C459.869 258.37 460.495 257.997 461.452 257.997ZM461.452 258.447C460.868 258.447 460.502 258.644 460.502 258.947C460.502 259.249 460.868 259.439 461.452 259.439C462.022 259.439 462.395 259.249 462.395 258.947C462.395 258.644 462.022 258.447 461.452 258.447Z" fill="#7E8DF5"/>
<path d="M467.22 263.589L470.629 257.003V256.939H466.692V255.947H471.833V256.981L468.434 263.589H467.22ZM475.088 255.345C476.513 255.356 477.558 256.232 477.568 257.467C477.558 258.712 476.513 259.578 475.088 259.578C473.652 259.578 472.597 258.712 472.597 257.467C472.597 256.232 473.652 255.356 475.088 255.345ZM475.088 256.19C474.212 256.179 473.568 256.696 473.578 257.467C473.568 258.248 474.212 258.765 475.088 258.765C475.953 258.765 476.597 258.248 476.597 257.467C476.597 256.696 475.953 256.179 475.088 256.19ZM480.249 255.029V259.842H479.247V255.029H480.249ZM480.249 260.275V262.66H475.035V263.568H480.566V264.37H474.064V261.911H479.257V261.077H474.032V260.275H480.249Z" fill="#7E8DF5"/>
</g>
</g>
<path d="M538.937 353.065V353.666H539.537V353.065H538.937ZM538.937 251.587H538.336V353.065H538.937H539.537V251.587H538.937ZM538.937 353.065V352.465H447.666V353.065V353.666H538.937V353.065Z" fill="#EAEDFF" mask="url(#path-88-inside-6_216_2207)"/>
<path d="M309.116 120.901C311.205 120.901 312.76 122.197 312.776 124.012C312.76 125.841 311.205 127.122 309.116 127.122C307.013 127.122 305.457 125.841 305.457 124.012C305.457 122.197 307.013 120.901 309.116 120.901ZM309.116 122.304C307.958 122.304 307.104 122.96 307.104 124.012C307.104 125.079 307.958 125.75 309.116 125.75C310.275 125.75 311.129 125.079 311.129 124.012C311.129 122.96 310.275 122.304 309.116 122.304ZM316.694 120.459V127.427H314.986V120.459H316.694ZM316.694 128.021V131.619H309.238V132.732H317.105V134.074H307.577V130.369H315.002V129.348H307.546V128.021H316.694Z" fill="#4842B2"/>
<path d="M407.44 120.474V128.509H405.732V127.945H403.156V126.908H405.732V120.474H407.44ZM395.868 125.445C398.536 125.445 401.86 125.414 404.818 125.124L404.909 126.192C403.651 126.367 402.355 126.474 401.082 126.527V128.524H399.405V126.603C398.224 126.634 397.088 126.641 396.051 126.634L395.868 125.445ZM407.44 128.936V132.031H399.603V132.915H407.806V134.12H397.942V130.918H405.763V130.095H397.881V128.936H407.44ZM400.32 120.688C402.363 120.688 403.766 121.511 403.766 122.761C403.766 124.042 402.363 124.82 400.32 124.82C398.231 124.82 396.844 124.042 396.844 122.761C396.844 121.511 398.231 120.688 400.32 120.688ZM400.32 121.816C399.161 121.816 398.445 122.182 398.46 122.761C398.445 123.341 399.161 123.691 400.32 123.691C401.448 123.691 402.18 123.341 402.18 122.761C402.18 122.182 401.448 121.816 400.32 121.816Z" fill="#7E8DF5"/>
<path d="M498.055 120.459V126.146H499.991V127.564H498.055V134.242H496.347V120.459H498.055ZM486.986 130.415C488.03 130.415 489.242 130.415 490.508 130.384V129.088C489.006 128.837 488.023 127.892 488.038 126.603C488.023 125.048 489.395 124.012 491.377 124.012C493.328 124.012 494.716 125.048 494.731 126.603C494.716 127.899 493.717 128.845 492.215 129.088V130.323C493.374 130.262 494.533 130.171 495.615 130.018L495.722 131.253C492.764 131.787 489.578 131.818 487.23 131.818L486.986 130.415ZM495.463 122.045V123.386H487.245V122.045H490.508V120.52H492.215V122.045H495.463ZM491.377 125.307C490.325 125.323 489.639 125.795 489.639 126.603C489.639 127.396 490.325 127.869 491.377 127.854C492.414 127.869 493.1 127.396 493.1 126.603C493.1 125.795 492.414 125.323 491.377 125.307Z" fill="#7E8DF5"/>
<path d="M266.326 82.2563C266.326 75.6238 271.703 70.2471 278.336 70.2471H327.345C333.977 70.2471 339.354 75.6238 339.354 82.2563V103.658H266.326V82.2563Z" fill="#F4F6FF"/>
<path d="M290.983 79.8667V93.4521H288.525V82.2498H288.45L285.279 84.2763V82.0434L288.637 79.8667H290.983ZM298.815 93.6398C295.55 93.6398 293.599 91.1066 293.599 86.6594C293.599 82.231 295.55 79.679 298.815 79.679C302.061 79.679 304.032 82.231 304.032 86.6594C304.032 91.1066 302.08 93.6398 298.815 93.6398ZM298.815 91.5945C300.523 91.5945 301.574 89.9244 301.574 86.6594C301.574 83.4132 300.504 81.7056 298.815 81.7056C297.126 81.7056 296.057 83.4132 296.057 86.6594C296.057 89.9244 297.108 91.5945 298.815 91.5945ZM319.257 78.1779V88.0667H317.156V87.3725H313.984V86.0965H317.156V78.1779H319.257ZM305.015 84.2951C308.299 84.2951 312.389 84.2576 316.03 83.901L316.142 85.2145C314.594 85.4303 312.999 85.5617 311.432 85.6274V88.0855H309.368V85.7212C307.914 85.7587 306.516 85.7681 305.24 85.7587L305.015 84.2951ZM319.257 88.5922V92.4013H309.612V93.4897H319.708V94.9721H307.567V91.0315H317.193V90.0183H307.492V88.5922H319.257ZM310.494 78.4406C313.009 78.4406 314.735 79.4539 314.735 80.9925C314.735 82.5688 313.009 83.5257 310.494 83.5257C307.924 83.5257 306.216 82.5688 306.216 80.9925C306.216 79.4539 307.924 78.4406 310.494 78.4406ZM310.494 79.8291C309.068 79.8291 308.186 80.2795 308.205 80.9925C308.186 81.7056 309.068 82.1372 310.494 82.1372C311.883 82.1372 312.784 81.7056 312.784 80.9925C312.784 80.2795 311.883 79.8291 310.494 79.8291Z" fill="#7E8DF5"/>
</g>
</g>
<rect x="-29" y="-8" width="571.87" height="322.534" fill="#606060" fill-opacity="0.15"/>
<path d="M194.128 204.007L363.401 245.182H446.894V168.551L366.833 93.0645L194.128 204.007Z" fill="url(#paint14_linear_216_2207)" fill-opacity="0.5"/>
<rect x="182.547" y="89.4902" width="192.436" height="115.805" rx="21.8748" fill="white"/>
<rect x="182.547" y="89.4902" width="192.436" height="115.805" rx="21.8748" stroke="url(#paint15_linear_216_2207)" stroke-width="2"/>
<path d="M254.801 150.8L261.226 144.375C261.665 143.936 262.186 143.587 262.76 143.349C263.334 143.111 263.949 142.989 264.571 142.989C265.192 142.989 265.807 143.111 266.381 143.349C266.955 143.587 267.477 143.936 267.916 144.375L274.34 150.8M219.631 131.261V123.445C219.631 121.373 220.455 119.385 221.92 117.919C223.386 116.453 225.374 115.63 227.447 115.63H235.262M219.631 162.523V170.339C219.631 172.412 220.455 174.399 221.92 175.865C223.386 177.331 225.374 178.154 227.447 178.154H235.262M266.525 178.154H274.34C276.413 178.154 278.401 177.331 279.867 175.865C281.332 174.399 282.156 172.412 282.156 170.339V162.523" stroke="url(#paint16_linear_216_2207)" stroke-width="6.67181" stroke-linecap="round" stroke-linejoin="round"/>
<path d="M280.321 108.406C279.7 108.02 278.984 107.814 278.253 107.814C277.437 107.814 276.642 108.069 275.978 108.543C275.314 109.018 274.816 109.688 274.552 110.46L273.184 114.473L269.175 115.841L268.714 116.029C268.019 116.369 267.441 116.908 267.052 117.577C266.664 118.246 266.483 119.016 266.532 119.788C266.582 120.56 266.859 121.3 267.33 121.914C267.8 122.529 268.442 122.99 269.175 123.238L273.188 124.606L274.556 128.616L274.744 129.073C275.084 129.768 275.622 130.346 276.291 130.735C276.96 131.124 277.729 131.305 278.502 131.256C279.274 131.207 280.014 130.93 280.629 130.46C281.243 129.99 281.704 129.348 281.954 128.616L283.321 124.602L287.331 123.235L287.792 123.047C288.487 122.707 289.065 122.168 289.453 121.499C289.842 120.829 290.023 120.06 289.973 119.288C289.924 118.516 289.646 117.775 289.176 117.161C288.706 116.547 288.063 116.086 287.331 115.837L283.317 114.469L281.95 110.46L281.762 110.003C281.44 109.346 280.941 108.793 280.321 108.406Z" fill="url(#paint17_linear_216_2207)"/>
<path d="M262.617 131.262H262.656M227.447 150.801L237.779 140.468C238.218 140.029 238.74 139.68 239.313 139.442C239.887 139.204 240.503 139.082 241.124 139.082C241.745 139.082 242.361 139.204 242.934 139.442C243.508 139.68 244.03 140.029 244.469 140.468L258.709 154.708" stroke="url(#paint18_linear_216_2207)" stroke-width="6.67181" stroke-linecap="round" stroke-linejoin="round"/>
<path d="M312 158V141.5C312 140.041 312.579 138.642 313.611 137.611C314.642 136.579 316.041 136 317.5 136C318.959 136 320.358 136.579 321.389 137.611C322.421 138.642 323 140.041 323 141.5V158M312 149.75H323M334 136V158" stroke="url(#paint19_linear_216_2207)" stroke-width="5.5" stroke-linecap="round" stroke-linejoin="round"/>
</g>
<rect x="20.5" y="20.5" width="472" height="265" rx="19.5" stroke="#B4BFFF" shape-rendering="crispEdges"/>
</g>
<defs>
<filter id="filter0_d_216_2207" x="0" y="0" width="513" height="306" filterUnits="userSpaceOnUse" color-interpolation-filters="sRGB">
<feFlood flood-opacity="0" result="BackgroundImageFix"/>
<feColorMatrix in="SourceAlpha" type="matrix" values="0 0 0 0 0 0 0 0 0 0 0 0 0 0 0 0 0 0 127 0" result="hardAlpha"/>
<feOffset/>
<feGaussianBlur stdDeviation="10"/>
<feComposite in2="hardAlpha" operator="out"/>
<feColorMatrix type="matrix" values="0 0 0 0 0.706731 0 0 0 0 0.750721 0 0 0 0 1 0 0 0 0.3 0"/>
<feBlend mode="normal" in2="BackgroundImageFix" result="effect1_dropShadow_216_2207"/>
<feBlend mode="normal" in="SourceGraphic" in2="effect1_dropShadow_216_2207" result="shape"/>
</filter>
<filter id="filter1_d_216_2207" x="-3.28148" y="187.337" width="237.183" height="208.961" filterUnits="userSpaceOnUse" color-interpolation-filters="sRGB">
<feFlood flood-opacity="0" result="BackgroundImageFix"/>
<feColorMatrix in="SourceAlpha" type="matrix" values="0 0 0 0 0 0 0 0 0 0 0 0 0 0 0 0 0 0 127 0" result="hardAlpha"/>
<feOffset/>
<feGaussianBlur stdDeviation="6.00463"/>
<feComposite in2="hardAlpha" operator="out"/>
<feColorMatrix type="matrix" values="0 0 0 0 0.706731 0 0 0 0 0.750721 0 0 0 0 1 0 0 0 0.3 0"/>
<feBlend mode="normal" in2="BackgroundImageFix" result="effect1_dropShadow_216_2207"/>
<feBlend mode="normal" in="SourceGraphic" in2="effect1_dropShadow_216_2207" result="shape"/>
</filter>
<filter id="filter2_d_216_2207" x="-3.28148" y="97.8687" width="237.183" height="96.0742" filterUnits="userSpaceOnUse" color-interpolation-filters="sRGB">
<feFlood flood-opacity="0" result="BackgroundImageFix"/>
<feColorMatrix in="SourceAlpha" type="matrix" values="0 0 0 0 0 0 0 0 0 0 0 0 0 0 0 0 0 0 127 0" result="hardAlpha"/>
<feOffset/>
<feGaussianBlur stdDeviation="6.00463"/>
<feComposite in2="hardAlpha" operator="out"/>
<feColorMatrix type="matrix" values="0 0 0 0 0.706731 0 0 0 0 0.750721 0 0 0 0 1 0 0 0 0.3 0"/>
<feBlend mode="normal" in2="BackgroundImageFix" result="effect1_dropShadow_216_2207"/>
<feBlend mode="normal" in="SourceGraphic" in2="effect1_dropShadow_216_2207" result="shape"/>
</filter>
<filter id="filter3_d_216_2207" x="396.627" y="41.4246" width="381.895" height="44.4341" filterUnits="userSpaceOnUse" color-interpolation-filters="sRGB">
<feFlood flood-opacity="0" result="BackgroundImageFix"/>
<feColorMatrix in="SourceAlpha" type="matrix" values="0 0 0 0 0 0 0 0 0 0 0 0 0 0 0 0 0 0 127 0" result="hardAlpha"/>
<feOffset dx="2.40185" dy="2.40185"/>
<feGaussianBlur stdDeviation="3.00231"/>
<feComposite in2="hardAlpha" operator="out"/>
<feColorMatrix type="matrix" values="0 0 0 0 0.898039 0 0 0 0 0.898039 0 0 0 0 0.898039 0 0 0 0.2 0"/>
<feBlend mode="normal" in2="BackgroundImageFix" result="effect1_dropShadow_216_2207"/>
<feBlend mode="normal" in="SourceGraphic" in2="effect1_dropShadow_216_2207" result="shape"/>
</filter>
<filter id="filter4_d_216_2207" x="254.317" y="58.2378" width="661.71" height="611.271" filterUnits="userSpaceOnUse" color-interpolation-filters="sRGB">
<feFlood flood-opacity="0" result="BackgroundImageFix"/>
<feColorMatrix in="SourceAlpha" type="matrix" values="0 0 0 0 0 0 0 0 0 0 0 0 0 0 0 0 0 0 127 0" result="hardAlpha"/>
<feOffset/>
<feGaussianBlur stdDeviation="6.00463"/>
<feComposite in2="hardAlpha" operator="out"/>
<feColorMatrix type="matrix" values="0 0 0 0 0.494118 0 0 0 0 0.552941 0 0 0 0 0.960784 0 0 0 0.2 0"/>
<feBlend mode="normal" in2="BackgroundImageFix" result="effect1_dropShadow_216_2207"/>
<feBlend mode="normal" in="SourceGraphic" in2="effect1_dropShadow_216_2207" result="shape"/>
</filter>
<linearGradient id="paint0_linear_216_2207" x1="128.199" y1="0" x2="128.199" y2="648.5" gradientUnits="userSpaceOnUse">
<stop stop-color="#FDFDFD"/>
<stop offset="1" stop-color="#EAEDFF"/>
</linearGradient>
<linearGradient id="paint1_linear_216_2207" x1="121.409" y1="65.0732" x2="121.409" y2="81.2042" gradientUnits="userSpaceOnUse">
<stop stop-color="#778BFF" stop-opacity="0"/>
<stop offset="1" stop-color="#4B34FF"/>
</linearGradient>
<linearGradient id="paint2_linear_216_2207" x1="70.1418" y1="45.0273" x2="70.2012" y2="64.2421" gradientUnits="userSpaceOnUse">
<stop stop-color="#778BFF" stop-opacity="0"/>
<stop offset="1" stop-color="#4B34FF"/>
</linearGradient>
<linearGradient id="paint3_linear_216_2207" x1="70.1418" y1="45.0273" x2="70.2012" y2="64.2421" gradientUnits="userSpaceOnUse">
<stop stop-color="#778BFF" stop-opacity="0"/>
<stop offset="1" stop-color="#4B34FF"/>
</linearGradient>
<linearGradient id="paint4_linear_216_2207" x1="73.7575" y1="81.8203" x2="73.7155" y2="65.6156" gradientUnits="userSpaceOnUse">
<stop stop-color="#4B34FF"/>
<stop offset="1" stop-color="#778BFF" stop-opacity="0"/>
</linearGradient>
<linearGradient id="paint5_linear_216_2207" x1="73.7575" y1="81.8203" x2="73.7155" y2="65.6156" gradientUnits="userSpaceOnUse">
<stop stop-color="#4B34FF"/>
<stop offset="1" stop-color="#778BFF" stop-opacity="0"/>
</linearGradient>
<linearGradient id="paint6_linear_216_2207" x1="90.6141" y1="65.0967" x2="90.7101" y2="81.3009" gradientUnits="userSpaceOnUse">
<stop stop-color="#778BFF" stop-opacity="0"/>
<stop offset="1" stop-color="#4B34FF"/>
</linearGradient>
<linearGradient id="paint7_linear_216_2207" x1="104.89" y1="65.0967" x2="104.89" y2="81.252" gradientUnits="userSpaceOnUse">
<stop stop-color="#778BFF" stop-opacity="0"/>
<stop offset="1" stop-color="#4B34FF"/>
</linearGradient>
<linearGradient id="paint8_linear_216_2207" x1="145.253" y1="53.9233" x2="145.253" y2="81.1798" gradientUnits="userSpaceOnUse">
<stop stop-color="#778BFF" stop-opacity="0"/>
<stop offset="1" stop-color="#4B34FF"/>
</linearGradient>
<linearGradient id="paint9_linear_216_2207" x1="162.282" y1="65.7725" x2="162.282" y2="93.0646" gradientUnits="userSpaceOnUse">
<stop stop-color="#778BFF" stop-opacity="0"/>
<stop offset="1" stop-color="#4B34FF"/>
</linearGradient>
<linearGradient id="paint10_linear_216_2207" x1="134.269" y1="77.7637" x2="134.269" y2="81.1796" gradientUnits="userSpaceOnUse">
<stop stop-color="#778BFF" stop-opacity="0"/>
<stop offset="1" stop-color="#4B34FF"/>
</linearGradient>
<linearGradient id="paint11_linear_216_2207" x1="134.269" y1="71.4775" x2="134.269" y2="74.8935" gradientUnits="userSpaceOnUse">
<stop stop-color="#778BFF" stop-opacity="0"/>
<stop offset="1" stop-color="#4B34FF"/>
</linearGradient>
<linearGradient id="paint12_linear_216_2207" x1="0" y1="22.2171" x2="314.643" y2="22.2171" gradientUnits="userSpaceOnUse">
<stop stop-color="#EAEDFF"/>
<stop offset="1" stop-color="#B4BFFF"/>
</linearGradient>
<linearGradient id="paint13_linear_216_2207" x1="77.1805" y1="157.915" x2="280.147" y2="157.915" gradientUnits="userSpaceOnUse">
<stop stop-color="#EAEDFF"/>
<stop offset="1" stop-color="#B4BFFF"/>
</linearGradient>
<linearGradient id="paint14_linear_216_2207" x1="298.78" y1="166.264" x2="428.5" y2="226.5" gradientUnits="userSpaceOnUse">
<stop offset="0.475812" stop-color="#B4BFFF"/>
<stop offset="1" stop-color="#EAEDFF"/>
</linearGradient>
<linearGradient id="paint15_linear_216_2207" x1="278.765" y1="88.4902" x2="278.765" y2="206.295" gradientUnits="userSpaceOnUse">
<stop stop-color="#B4BFFF"/>
<stop offset="1" stop-color="#7E8DF5"/>
</linearGradient>
<linearGradient id="paint16_linear_216_2207" x1="235.107" y1="132.302" x2="281.547" y2="176.942" gradientUnits="userSpaceOnUse">
<stop stop-color="#B4BFFF"/>
<stop offset="1" stop-color="#7E8DF5"/>
</linearGradient>
<linearGradient id="paint17_linear_216_2207" x1="272.33" y1="114.067" x2="289.748" y2="130.815" gradientUnits="userSpaceOnUse">
<stop stop-color="#B4BFFF"/>
<stop offset="1" stop-color="#7E8DF5"/>
</linearGradient>
<linearGradient id="paint18_linear_216_2207" x1="236.161" y1="137.514" x2="252.479" y2="161.067" gradientUnits="userSpaceOnUse">
<stop stop-color="#B4BFFF"/>
<stop offset="1" stop-color="#7E8DF5"/>
</linearGradient>
<linearGradient id="paint19_linear_216_2207" x1="317.445" y1="141.866" x2="333.786" y2="157.574" gradientUnits="userSpaceOnUse">
<stop stop-color="#B4BFFF"/>
<stop offset="1" stop-color="#7E8DF5"/>
</linearGradient>
<clipPath id="clip0_216_2207">
<rect x="20" y="20" width="473" height="266" rx="20" fill="white"/>
</clipPath>
<clipPath id="clip1_216_2207">
<rect width="1152.89" height="648.5" fill="white" transform="translate(-12.8889 9)"/>
</clipPath>
<clipPath id="clip2_216_2207">
<rect x="8.72778" y="199.347" width="213.164" height="184.943" rx="12.0093" fill="white"/>
</clipPath>
<clipPath id="clip3_216_2207">
<path d="M266.326 150.108H356.396V251.587H266.326V150.108Z" fill="white"/>
</clipPath>
<clipPath id="clip4_216_2207">
<rect width="90.0694" height="14.4111" fill="white" transform="translate(266.326 150.108)"/>
</clipPath>
<clipPath id="clip5_216_2207">
<path d="M356.396 150.108H447.666V251.587H356.396V150.108Z" fill="white"/>
</clipPath>
<clipPath id="clip6_216_2207">
<rect width="91.2704" height="14.4111" fill="white" transform="translate(356.396 150.108)"/>
</clipPath>
<clipPath id="clip7_216_2207">
<path d="M447.666 150.108H538.937V251.587H447.666V150.108Z" fill="white"/>
</clipPath>
<clipPath id="clip8_216_2207">
<rect width="91.2704" height="14.4111" fill="white" transform="translate(447.666 150.108)"/>
</clipPath>
<clipPath id="clip9_216_2207">
<path d="M266.326 251.587H356.396V353.065H266.326V251.587Z" fill="white"/>
</clipPath>
<clipPath id="clip10_216_2207">
<rect width="90.0694" height="14.4111" fill="white" transform="translate(266.326 251.587)"/>
</clipPath>
<clipPath id="clip11_216_2207">
<path d="M356.396 251.587H447.666V353.065H356.396V251.587Z" fill="white"/>
</clipPath>
<clipPath id="clip12_216_2207">
<rect width="91.2704" height="14.4111" fill="white" transform="translate(356.396 251.587)"/>
</clipPath>
<clipPath id="clip13_216_2207">
<path d="M447.666 251.587H538.937V353.065H447.666V251.587Z" fill="white"/>
</clipPath>
<clipPath id="clip14_216_2207">
<rect width="91.2704" height="14.4111" fill="white" transform="translate(447.666 251.587)"/>
</clipPath>
</defs>
</svg>
