<svg width="473" height="266" viewBox="0 0 473 266" fill="none" xmlns="http://www.w3.org/2000/svg">
<g clip-path="url(#clip0_216_2207)">
<g clip-path="url(#clip1_216_2207)">
<rect width="1152.89" height="648.5" transform="translate(-32.8889 -11)" fill="#FDFDFD"/>
<rect width="256.398" height="648.5" transform="translate(-32.8889 -11)" fill="url(#paint0_linear_216_2207)"/>
<path d="M100.282 50.2262H105.06C105.85 50.2262 106.49 50.8667 106.49 51.6568L106.49 60.0607C106.49 60.6927 107.003 61.2052 107.635 61.2052H108.175C108.807 61.2052 109.32 60.6927 109.32 60.0607V48.6507C109.32 46.6755 107.718 45.0742 105.743 45.0742H98.6793C96.704 45.0742 95.1028 46.6755 95.1028 48.6507V60.0607C95.1028 60.6927 95.6152 61.2052 96.2473 61.2052H97.707C98.3391 61.2052 98.8515 60.6927 98.8515 60.0607L98.8515 51.6568C98.8515 50.8667 99.492 50.2262 100.282 50.2262Z" fill="#B4BFFF"/>
<path d="M100.282 50.2262H105.06C105.85 50.2262 106.49 50.8667 106.49 51.6568L106.49 60.0607C106.49 60.6927 107.003 61.2052 107.635 61.2052H108.175C108.807 61.2052 109.32 60.6927 109.32 60.0607V48.6507C109.32 46.6755 107.718 45.0742 105.743 45.0742H98.6793C96.704 45.0742 95.1028 46.6755 95.1028 48.6507V60.0607C95.1028 60.6927 95.6152 61.2052 96.2473 61.2052H97.707C98.3391 61.2052 98.8515 60.6927 98.8515 60.0607L98.8515 51.6568C98.8515 50.8667 99.492 50.2262 100.282 50.2262Z" fill="url(#paint1_linear_216_2207)" fill-opacity="0.2"/>
<path d="M50.4617 28.4335V26.458C50.4617 25.6678 49.8212 25.0273 49.0311 25.0273H43.9442C41.9689 25.0273 40.3677 26.6286 40.3677 28.6039L40.3677 40.6063C40.3677 42.5816 41.969 44.1828 43.9442 44.1828H45.699H62.0395C62.8296 44.1828 63.4702 43.5423 63.4702 42.7522V42.5405C63.4702 40.5653 61.8689 38.964 59.8936 38.964H47.1296C46.3395 38.964 45.699 38.3235 45.699 37.5334L45.699 32.01C45.699 30.8248 46.6598 29.8641 47.8449 29.8641H49.0311C49.8212 29.8641 50.4617 29.2236 50.4617 28.4335Z" fill="#B4BFFF"/>
<path d="M50.4617 28.4335V26.458C50.4617 25.6678 49.8212 25.0273 49.0311 25.0273H43.9442C41.9689 25.0273 40.3677 26.6286 40.3677 28.6039L40.3677 40.6063C40.3677 42.5816 41.969 44.1828 43.9442 44.1828H45.699H62.0395C62.8296 44.1828 63.4702 43.5423 63.4702 42.7522V42.5405C63.4702 40.5653 61.8689 38.964 59.8936 38.964H47.1296C46.3395 38.964 45.699 38.3235 45.699 37.5334L45.699 32.01C45.699 30.8248 46.6598 29.8641 47.8449 29.8641H49.0311C49.8212 29.8641 50.4617 29.2236 50.4617 28.4335Z" fill="url(#paint2_linear_216_2207)" fill-opacity="0.2"/>
<path d="M53.6605 28.4335V26.458C53.6605 25.6678 54.301 25.0273 55.0911 25.0273H58.8274C60.8026 25.0273 62.4039 26.6286 62.4039 28.6039V30.654C62.4039 31.4441 61.7634 32.0846 60.9733 32.0846H59.2136C58.6004 32.0846 58.1033 31.5875 58.1033 30.9743C58.1033 30.3612 57.6062 29.8641 56.993 29.8641H55.0911C54.301 29.8641 53.6605 29.2236 53.6605 28.4335Z" fill="#B4BFFF"/>
<path d="M53.6605 28.4335V26.458C53.6605 25.6678 54.301 25.0273 55.0911 25.0273H58.8274C60.8026 25.0273 62.4039 26.6286 62.4039 28.6039V30.654C62.4039 31.4441 61.7634 32.0846 60.9733 32.0846H59.2136C58.6004 32.0846 58.1033 31.5875 58.1033 30.9743C58.1033 30.3612 57.6062 29.8641 56.993 29.8641H55.0911C54.301 29.8641 53.6605 29.2236 53.6605 28.4335Z" fill="url(#paint3_linear_216_2207)" fill-opacity="0.2"/>
<path d="M52.0966 58.4142V60.3897C52.0966 61.1798 52.7371 61.8203 53.5273 61.8203H60.0003C61.9755 61.8203 63.5768 60.219 63.5768 58.2438V47.0963C63.5768 46.3062 62.9363 45.6657 62.1462 45.6657H59.552C58.7548 45.6657 58.1115 46.3172 58.1215 47.1142L58.2181 54.8107C58.2332 56.0063 57.2681 56.9836 56.0724 56.9836H53.5272C52.7371 56.9836 52.0966 57.6241 52.0966 58.4142Z" fill="#B4BFFF"/>
<path d="M52.0966 58.4142V60.3897C52.0966 61.1798 52.7371 61.8203 53.5273 61.8203H60.0003C61.9755 61.8203 63.5768 60.219 63.5768 58.2438V47.0963C63.5768 46.3062 62.9363 45.6657 62.1462 45.6657H59.552C58.7548 45.6657 58.1115 46.3172 58.1215 47.1142L58.2181 54.8107C58.2332 56.0063 57.2681 56.9836 56.0724 56.9836H53.5272C52.7371 56.9836 52.0966 57.6241 52.0966 58.4142Z" fill="url(#paint4_linear_216_2207)" fill-opacity="0.2"/>
<path d="M49.1111 58.4142V60.3897C49.1111 61.1798 48.4706 61.8203 47.6805 61.8203H43.9442C41.9689 61.8203 40.3677 60.219 40.3677 58.2438V54.3908C40.3677 53.6007 41.0082 52.9602 41.7983 52.9602H43.2377C44.0278 52.9602 44.6683 53.6007 44.6683 54.3908V55.553C44.6683 56.3431 45.3088 56.9836 46.0989 56.9836H47.6805C48.4706 56.9836 49.1111 57.6241 49.1111 58.4142Z" fill="#B4BFFF"/>
<path d="M49.1111 58.4142V60.3897C49.1111 61.1798 48.4706 61.8203 47.6805 61.8203H43.9442C41.9689 61.8203 40.3677 60.219 40.3677 58.2438V54.3908C40.3677 53.6007 41.0082 52.9602 41.7983 52.9602H43.2377C44.0278 52.9602 44.6683 53.6007 44.6683 54.3908V55.553C44.6683 56.3431 45.3088 56.9836 46.0989 56.9836H47.6805C48.4706 56.9836 49.1111 57.6241 49.1111 58.4142Z" fill="url(#paint5_linear_216_2207)" fill-opacity="0.2"/>
<path d="M70.081 54.3063V49.1444C70.081 48.3543 70.7215 47.7138 71.5116 47.7138H73.3769C73.8598 47.7138 74.2513 48.1053 74.2513 48.5881C74.2513 49.071 74.6427 49.4625 75.1256 49.4625H75.3649C75.98 49.4625 76.4786 48.9639 76.4786 48.3488V47.7138C76.4786 46.2689 75.3073 45.0977 73.8624 45.0977H69.89C67.9147 45.0977 66.3135 46.6989 66.3135 48.6742V57.6758C66.3135 59.651 67.9147 61.2523 69.89 61.2523H72.902C74.8773 61.2523 76.4786 59.651 76.4786 57.6758V57.1676C76.4786 56.3775 75.8381 55.737 75.048 55.737H71.5116C70.7215 55.737 70.081 55.0965 70.081 54.3063Z" fill="#B4BFFF"/>
<path d="M70.081 54.3063V49.1444C70.081 48.3543 70.7215 47.7138 71.5116 47.7138H73.3769C73.8598 47.7138 74.2513 48.1053 74.2513 48.5881C74.2513 49.071 74.6427 49.4625 75.1256 49.4625H75.3649C75.98 49.4625 76.4786 48.9639 76.4786 48.3488V47.7138C76.4786 46.2689 75.3073 45.0977 73.8624 45.0977H69.89C67.9147 45.0977 66.3135 46.6989 66.3135 48.6742V57.6758C66.3135 59.651 67.9147 61.2523 69.89 61.2523H72.902C74.8773 61.2523 76.4786 59.651 76.4786 57.6758V57.1676C76.4786 56.3775 75.8381 55.737 75.048 55.737H71.5116C70.7215 55.737 70.081 55.0965 70.081 54.3063Z" fill="url(#paint6_linear_216_2207)" fill-opacity="0.2"/>
<path d="M87.4744 45.0977C89.4496 45.0977 91.0505 46.6995 91.0505 48.6748V53.8467C91.0507 54.5133 91.464 55.1102 92.0876 55.3457C92.7113 55.5812 93.1236 56.1781 93.1238 56.8447V57.9912C93.1238 59.7922 91.664 61.2529 89.863 61.2529H81.9031C79.928 61.2528 78.3269 59.6509 78.3269 57.6758V48.6748C78.3269 46.6997 79.928 45.0978 81.9031 45.0977H87.4744ZM83.5603 47.7139C82.7703 47.714 82.1296 48.3545 82.1296 49.1445V54.3066C82.1299 55.0965 82.7704 55.7372 83.5603 55.7373H86.7771C87.567 55.7373 88.2075 55.0965 88.2078 54.3066V49.1445C88.2078 48.3545 87.5672 47.7139 86.7771 47.7139H83.5603Z" fill="#B4BFFF"/>
<path d="M87.4744 45.0977C89.4496 45.0977 91.0505 46.6995 91.0505 48.6748V53.8467C91.0507 54.5133 91.464 55.1102 92.0876 55.3457C92.7113 55.5812 93.1236 56.1781 93.1238 56.8447V57.9912C93.1238 59.7922 91.664 61.2529 89.863 61.2529H81.9031C79.928 61.2528 78.3269 59.6509 78.3269 57.6758V48.6748C78.3269 46.6997 79.928 45.0978 81.9031 45.0977H87.4744ZM83.5603 47.7139C82.7703 47.714 82.1296 48.3545 82.1296 49.1445V54.3066C82.1299 55.0965 82.7704 55.7372 83.5603 55.7373H86.7771C87.567 55.7373 88.2075 55.0965 88.2078 54.3066V49.1445C88.2078 48.3545 87.5672 47.7139 86.7771 47.7139H83.5603Z" fill="url(#paint7_linear_216_2207)" fill-opacity="0.2"/>
<path d="M132.06 39.2617C132.692 39.2617 133.204 39.7741 133.204 40.4062V57.6043C133.204 59.5795 131.603 61.1808 129.627 61.1808H122.493C120.517 61.1808 118.916 59.5795 118.916 57.6043V49.172C118.916 47.1967 120.517 45.5955 122.493 45.5955H128.93C129.72 45.5955 130.361 44.955 130.361 44.1649V40.4062C130.361 39.7741 130.873 39.2617 131.505 39.2617H132.06ZM122.406 54.1993C122.406 54.9894 123.047 55.6299 123.837 55.6299H128.93C129.72 55.6299 130.361 54.9894 130.361 54.1993V49.8727C130.361 49.0826 129.72 48.4421 128.93 48.4421H123.837C123.047 48.4421 122.406 49.0826 122.406 49.8727V54.1993Z" fill="#B4BFFF"/>
<path d="M132.06 39.2617C132.692 39.2617 133.204 39.7741 133.204 40.4062V57.6043C133.204 59.5795 131.603 61.1808 129.627 61.1808H122.493C120.517 61.1808 118.916 59.5795 118.916 57.6043V49.172C118.916 47.1967 120.517 45.5955 122.493 45.5955H128.93C129.72 45.5955 130.361 44.955 130.361 44.1649V40.4062C130.361 39.7741 130.873 39.2617 131.505 39.2617H132.06ZM122.406 54.1993C122.406 54.9894 123.047 55.6299 123.837 55.6299H128.93C129.72 55.6299 130.361 54.9894 130.361 54.1993V49.8727C130.361 49.0826 129.72 48.4421 128.93 48.4421H123.837C123.047 48.4421 122.406 49.0826 122.406 49.8727V54.1993Z" fill="url(#paint8_linear_216_2207)" fill-opacity="0.2"/>
<path d="M138.623 45.7734C139.255 45.7734 139.767 46.2858 139.767 46.9179L139.767 54.2349C139.767 55.025 140.408 55.6655 141.198 55.6655H145.978C146.768 55.6655 147.409 55.025 147.409 54.2349L147.409 46.9179C147.409 46.2858 147.921 45.7734 148.553 45.7734H149.108C149.74 45.7734 150.252 46.2858 150.252 46.9179L150.252 69.489C150.252 71.4643 148.651 73.0656 146.676 73.0656H139.505C137.53 73.0656 135.929 71.4643 135.929 69.489V68.3745C135.929 67.7424 136.441 67.23 137.073 67.23H139.103C139.47 67.23 139.767 67.5273 139.767 67.8942C139.767 68.3527 140.139 68.7244 140.598 68.7244H145.978C146.768 68.7244 147.409 68.0839 147.409 67.2938V62.6115C147.409 61.8214 146.768 61.1809 145.978 61.1809H139.505C137.53 61.1809 135.929 59.5796 135.929 57.6043L135.929 46.9179C135.929 46.2858 136.441 45.7734 137.073 45.7734H138.623Z" fill="#B4BFFF"/>
<path d="M138.623 45.7734C139.255 45.7734 139.767 46.2858 139.767 46.9179L139.767 54.2349C139.767 55.025 140.408 55.6655 141.198 55.6655H145.978C146.768 55.6655 147.409 55.025 147.409 54.2349L147.409 46.9179C147.409 46.2858 147.921 45.7734 148.553 45.7734H149.108C149.74 45.7734 150.252 46.2858 150.252 46.9179L150.252 69.489C150.252 71.4643 148.651 73.0656 146.676 73.0656H139.505C137.53 73.0656 135.929 71.4643 135.929 69.489V68.3745C135.929 67.7424 136.441 67.23 137.073 67.23H139.103C139.47 67.23 139.767 67.5273 139.767 67.8942C139.767 68.3527 140.139 68.7244 140.598 68.7244H145.978C146.768 68.7244 147.409 68.0839 147.409 67.2938V62.6115C147.409 61.8214 146.768 61.1809 145.978 61.1809H139.505C137.53 61.1809 135.929 59.5796 135.929 57.6043L135.929 46.9179C135.929 46.2858 136.441 45.7734 137.073 45.7734H138.623Z" fill="url(#paint9_linear_216_2207)" fill-opacity="0.2"/>
<rect x="112.755" y="57.7656" width="3.41206" height="3.41596" rx="1.35104" fill="#B4BFFF"/>
<rect x="112.755" y="57.7656" width="3.41206" height="3.41596" rx="1.35104" fill="url(#paint10_linear_216_2207)" fill-opacity="0.2"/>
<rect x="112.755" y="51.4785" width="3.41206" height="3.41596" rx="1.35104" fill="#B4BFFF"/>
<rect x="112.755" y="51.4785" width="3.41206" height="3.41596" rx="1.35104" fill="url(#paint11_linear_216_2207)" fill-opacity="0.2"/>
<g filter="url(#filter0_d_216_2207)">
<g clip-path="url(#clip2_216_2207)">
<rect x="-11.2722" y="179.346" width="213.164" height="184.943" rx="12.0093" fill="#FCFCFC"/>
<rect x="-11.2722" y="232.186" width="213.164" height="19.2148" fill="#F4F6FF"/>
<rect width="213.164" height="44.4343" transform="translate(-11.2722 179.346)" fill="url(#paint12_linear_216_2207)"/>
<path d="M158.058 196.158L149.652 201.863L158.058 207.567" stroke="#EAEDFF" stroke-width="1.80139" stroke-linecap="round" stroke-linejoin="round"/>
<path d="M178.474 196.158L186.881 201.863L178.474 207.567" stroke="#EAEDFF" stroke-width="1.80139" stroke-linecap="round" stroke-linejoin="round"/>
<path d="M-3.01584 199.756V199.193L-1.24963 197.413C-0.693737 196.829 -0.41227 196.505 -0.41227 196.062C-0.41227 195.562 -0.820397 195.238 -1.35518 195.238C-1.91812 195.238 -2.28403 195.597 -2.28403 196.139H-3.01584C-3.02288 195.21 -2.31217 194.591 -1.34111 194.591C-0.355976 194.591 0.319545 195.21 0.326581 196.04C0.319545 196.61 0.0521509 197.061 -0.904837 198.004L-1.93923 199.052V199.094H0.411021V199.756H-3.01584ZM2.8626 199.826C1.68044 199.826 0.990843 198.876 0.990843 197.209C0.990843 195.555 1.69451 194.591 2.8626 194.591C4.03069 194.591 4.73435 195.555 4.73435 197.209C4.73435 198.876 4.03772 199.826 2.8626 199.826ZM2.8626 199.158C3.55219 199.158 3.96032 198.482 3.96032 197.209C3.96032 195.942 3.54516 195.245 2.8626 195.245C2.18004 195.245 1.76488 195.942 1.76488 197.209C1.76488 198.482 2.173 199.158 2.8626 199.158ZM5.3564 199.756V199.193L7.1226 197.413C7.6785 196.829 7.95997 196.505 7.95997 196.062C7.95997 195.562 7.55184 195.238 7.01705 195.238C6.45412 195.238 6.08821 195.597 6.08821 196.139H5.3564C5.34936 195.21 6.06006 194.591 7.03112 194.591C8.01626 194.591 8.69178 195.21 8.69882 196.04C8.69178 196.61 8.42439 197.061 7.4674 198.004L6.43301 199.052V199.094H8.78326V199.756H5.3564ZM11.1926 199.826C10.2286 199.826 9.50381 199.235 9.46863 198.426H10.2216C10.2638 198.862 10.6789 199.179 11.1926 199.179C11.8118 199.179 12.2552 198.729 12.2552 198.123C12.2552 197.504 11.7978 197.054 11.1574 197.047C10.7493 197.047 10.4397 197.18 10.2638 197.497H9.53196L9.86268 194.661H12.7477V195.323H10.503L10.3341 196.751H10.3834C10.5945 196.547 10.9534 196.406 11.3404 196.406C12.2974 196.406 13.0081 197.117 13.0081 198.102C13.0081 199.108 12.2552 199.826 11.1926 199.826Z" fill="#7E8DF5"/>
<path d="M0.907107 203.824V213.164H-0.524856V205.243H-0.576459L-2.80826 206.701V205.346L-0.486155 203.824H0.907107ZM6.2015 213.293C4.03421 213.293 2.76995 211.551 2.76995 208.494C2.76995 205.462 4.06001 203.695 6.2015 203.695C8.343 203.695 9.63305 205.462 9.63305 208.494C9.63305 211.551 8.3559 213.293 6.2015 213.293ZM6.2015 212.068C7.46576 212.068 8.21399 210.829 8.21399 208.494C8.21399 206.172 7.45286 204.895 6.2015 204.895C4.95015 204.895 4.18901 206.172 4.18901 208.494C4.18901 210.829 4.93725 212.068 6.2015 212.068ZM19.9845 202.715V209.487H18.7589V208.933H16.5013V208.159H18.7589V202.715H19.9845ZM10.3477 206.972C12.5795 206.985 15.4177 206.959 17.9075 206.688L17.972 207.475C16.8819 207.623 15.7531 207.714 14.6436 207.772V209.513H13.431V207.823C12.386 207.849 11.3927 207.855 10.4897 207.849L10.3477 206.972ZM19.9845 209.874V212.364H13.3278V213.254H20.3328V214.145H12.128V211.551H18.7718V210.726H12.0764V209.874H19.9845ZM14.1018 202.908C15.8176 202.908 16.9786 203.592 16.9915 204.65C16.9786 205.733 15.8176 206.378 14.1018 206.378C12.3473 206.378 11.1992 205.733 11.2121 204.65C11.1992 203.592 12.3473 202.908 14.1018 202.908ZM14.1018 203.734C13.0311 203.734 12.3602 204.095 12.3602 204.65C12.3602 205.204 13.0311 205.553 14.1018 205.553C15.1468 205.553 15.8305 205.204 15.8305 204.65C15.8305 204.095 15.1468 203.734 14.1018 203.734Z" fill="#4842B2"/>
<path d="M33.6007 209.118C33.6007 211.827 31.9706 213.481 29.7775 213.481C27.5609 213.481 25.9425 211.827 25.9425 209.118C25.9425 206.397 27.5609 204.755 29.7775 204.755C31.9706 204.755 33.6007 206.397 33.6007 209.118ZM32.3224 209.118C32.3224 207.054 31.2317 205.94 29.7775 205.94C28.3115 205.94 27.2208 207.054 27.2208 209.118C27.2208 211.182 28.3115 212.296 29.7775 212.296C31.2317 212.296 32.3224 211.182 32.3224 209.118ZM37.3466 213.492C35.4936 213.492 34.3677 212.12 34.3677 210.209C34.3677 208.262 35.5288 206.913 37.3231 206.913C38.7774 206.913 39.8329 207.769 39.9619 209.059H38.7422C38.6132 208.461 38.1323 207.957 37.3466 207.957C36.3145 207.957 35.6226 208.813 35.6226 210.173C35.6226 211.569 36.3028 212.425 37.3466 212.425C38.0502 212.425 38.5897 212.038 38.7422 211.346H39.9619C39.8211 212.578 38.8477 213.492 37.3466 213.492ZM43.825 206.995V207.992H42.5232V211.487C42.5232 212.202 42.8868 212.331 43.2855 212.343C43.4614 212.343 43.7429 212.32 43.9188 212.308V213.398C43.7429 213.422 43.4732 213.445 43.1331 213.445C42.1479 213.445 41.2683 212.906 41.2801 211.745V207.992H40.3419V206.995H41.2801V205.47H42.5232V206.995H43.825ZM47.3715 213.492C45.5654 213.492 44.3926 212.179 44.3926 210.209C44.3926 208.227 45.5654 206.913 47.3715 206.913C49.1658 206.913 50.3386 208.227 50.3386 210.209C50.3386 212.179 49.1658 213.492 47.3715 213.492ZM47.3715 212.449C48.5208 212.449 49.072 211.428 49.072 210.209C49.072 208.989 48.5208 207.945 47.3715 207.945C46.1987 207.945 45.6475 208.989 45.6475 210.209C45.6475 211.428 46.1987 212.449 47.3715 212.449ZM51.3754 213.363V204.872H52.6185V208.027H52.6889C52.9234 207.628 53.3456 206.913 54.5184 206.913C56.0547 206.913 57.2041 208.121 57.2041 210.197C57.2041 212.249 56.0782 213.492 54.5301 213.492C53.3691 213.492 52.9234 212.789 52.6889 212.366H52.595V213.363H51.3754ZM52.595 210.173C52.595 211.51 53.1932 212.425 54.2487 212.425C55.3511 212.425 55.9257 211.452 55.9257 210.173C55.9257 208.918 55.3628 207.98 54.2487 207.98C53.1814 207.98 52.595 208.848 52.595 210.173ZM60.8913 213.492C59.0148 213.492 57.8655 212.202 57.8655 210.22C57.8655 208.262 59.0383 206.913 60.8092 206.913C62.2634 206.913 63.6356 207.816 63.6356 210.115V210.56H59.1087C59.1438 211.768 59.8534 212.46 60.903 212.46C61.6184 212.46 62.0758 212.155 62.2869 211.768H63.5535C63.272 212.8 62.2869 213.492 60.8913 213.492ZM59.1204 209.622H62.4042C62.4042 208.649 61.7826 207.945 60.8209 207.945C59.8182 207.945 59.1673 208.719 59.1204 209.622ZM64.5785 213.363V206.995H65.7865V208.004H65.8568C66.0914 207.323 66.7247 206.901 67.4753 206.901C67.6277 206.901 67.874 206.913 68.003 206.925V208.121C67.8975 208.098 67.6043 208.051 67.3463 208.051C66.4784 208.051 65.8334 208.649 65.8334 209.481V213.363H64.5785Z" fill="#4842B2"/>
<rect x="-2.56549" y="232.632" width="18.6143" height="18.4088" rx="3.30255" stroke="#B4BFFF" stroke-width="0.600463"/>
<path d="M5.26122 238.84C6.21118 238.847 6.90781 239.431 6.91484 240.255C6.90781 241.085 6.21118 241.662 5.26122 241.662C4.30424 241.662 3.60057 241.085 3.60057 240.255C3.60057 239.431 4.30424 238.847 5.26122 238.84ZM5.26122 239.403C4.67718 239.396 4.24794 239.741 4.25498 240.255C4.24794 240.775 4.67718 241.12 5.26122 241.12C5.83823 241.12 6.26747 240.775 6.26747 240.255C6.26747 239.741 5.83823 239.396 5.26122 239.403ZM8.70216 238.629V241.838H8.03367V238.629H8.70216ZM8.70216 242.126V243.717H5.22604V244.322H8.91326V244.857H4.57867V243.217H8.04071V242.661H4.55756V242.126H8.70216Z" fill="#4842B2"/>
<path d="M2.69205 264.547V263.984L4.45825 262.204C5.01415 261.62 5.29562 261.296 5.29562 260.853C5.29562 260.353 4.88749 260.029 4.3527 260.029C3.78977 260.029 3.42386 260.388 3.42386 260.93H2.69205C2.68501 260.001 3.39571 259.382 4.36677 259.382C5.35191 259.382 6.02743 260.001 6.03447 260.832C6.02743 261.401 5.76004 261.852 4.80305 262.795L3.76866 263.843V263.885H6.11891V264.547H2.69205ZM8.57752 264.617C7.47276 264.617 6.69873 264.019 6.70577 263.189C6.69873 262.534 7.17019 262 7.7683 261.908V261.88C7.24759 261.76 6.89576 261.296 6.89576 260.74C6.89576 259.959 7.60646 259.382 8.57752 259.382C9.54155 259.382 10.2452 259.959 10.2522 260.74C10.2452 261.296 9.89338 261.76 9.3797 261.88V261.908C9.97078 262 10.4422 262.534 10.4493 263.189C10.4422 264.019 9.66821 264.617 8.57752 264.617ZM8.57752 263.977C9.23897 263.977 9.66117 263.632 9.66117 263.133C9.66117 262.605 9.20379 262.225 8.57752 262.225C7.94422 262.225 7.4798 262.605 7.49387 263.133C7.4798 263.632 7.902 263.977 8.57752 263.977ZM8.57752 261.613C9.11231 261.613 9.49229 261.289 9.49229 260.81C9.49229 260.339 9.11935 260.015 8.57752 260.015C8.01459 260.015 7.64868 260.332 7.64868 260.81C7.64868 261.289 8.0357 261.613 8.57752 261.613Z" fill="#BDBDBD"/>
<path d="M38.439 238.636V242.33H37.7705V242.028H36.5391V241.606H37.7705V238.636H38.439ZM33.1826 240.958C34.4 240.965 35.948 240.951 37.3061 240.804L37.3413 241.233C36.7467 241.314 36.131 241.363 35.5258 241.395V242.345H34.8644V241.423C34.2944 241.437 33.7526 241.44 33.26 241.437L33.1826 240.958ZM38.439 242.542V243.9H34.8081V244.385H38.629V244.871H34.1537V243.456H37.7776V243.006H34.1255V242.542H38.439ZM35.2303 238.742C36.1662 238.742 36.7995 239.115 36.8065 239.692C36.7995 240.283 36.1662 240.635 35.2303 240.635C34.2733 240.635 33.647 240.283 33.6541 239.692C33.647 239.115 34.2733 238.742 35.2303 238.742ZM35.2303 239.192C34.6462 239.192 34.2803 239.389 34.2803 239.692C34.2803 239.994 34.6462 240.184 35.2303 240.184C35.8003 240.184 36.1732 239.994 36.1732 239.692C36.1732 239.389 35.8003 239.192 35.2303 239.192Z" fill="#7E8DF5"/>
<path d="M32.4148 264.547V263.984L34.181 262.204C34.7369 261.62 35.0184 261.296 35.0184 260.853C35.0184 260.353 34.6103 260.029 34.0755 260.029C33.5125 260.029 33.1466 260.388 33.1466 260.93H32.4148C32.4078 260.001 33.1185 259.382 34.0896 259.382C35.0747 259.382 35.7502 260.001 35.7572 260.832C35.7502 261.401 35.4828 261.852 34.5258 262.795L33.4914 263.843V263.885H35.8417V264.547H32.4148ZM38.2722 259.382C39.208 259.389 40.1932 259.952 40.1932 261.817C40.1932 263.604 39.4262 264.617 38.2018 264.617C37.2659 264.617 36.6045 264.04 36.4848 263.21H37.2518C37.3574 263.639 37.6881 263.942 38.2018 263.942C38.9899 263.942 39.4473 263.252 39.4543 262.091H39.391C39.1166 262.52 38.6381 262.781 38.0892 262.781C37.1744 262.781 36.4426 262.084 36.4426 261.106C36.4426 260.135 37.1674 259.375 38.2722 259.382ZM38.2722 260.029C37.6529 260.029 37.1955 260.508 37.1955 261.092C37.1955 261.683 37.6389 262.147 38.2581 262.147C38.8703 262.147 39.3488 261.648 39.3488 261.085C39.3488 260.536 38.8984 260.029 38.2722 260.029Z" fill="#BDBDBD"/>
<path d="M67.8595 238.629V241.268H68.8094V241.831H67.8595V244.934H67.191V238.629H67.8595ZM62.8423 243.217C63.3384 243.217 63.9154 243.217 64.517 243.196V242.556C63.8063 242.457 63.3419 242.028 63.3489 241.416C63.3419 240.705 63.9541 240.234 64.8548 240.234C65.7485 240.234 66.3677 240.705 66.3747 241.416C66.3677 242.028 65.8962 242.461 65.1855 242.563V243.168C65.7449 243.147 66.3079 243.101 66.8321 243.027L66.8743 243.52C65.5092 243.766 64.0315 243.773 62.9479 243.773L62.8423 243.217ZM66.7406 239.375V239.91H62.9619V239.375H64.517V238.643H65.1855V239.375H66.7406ZM64.8548 240.754C64.327 240.754 63.9752 241.015 63.9752 241.416C63.9752 241.817 64.327 242.063 64.8548 242.063C65.3825 242.063 65.7344 241.817 65.7344 241.416C65.7344 241.015 65.3825 240.754 64.8548 240.754Z" fill="#7E8DF5"/>
<path d="M63.9463 264.617C62.8908 264.617 62.1378 264.047 62.1097 263.217H62.8978C62.926 263.667 63.3693 263.949 63.9392 263.949C64.5514 263.949 65.0018 263.611 65.0018 263.118C65.0018 262.619 64.5796 262.253 63.8548 262.253H63.4185V261.62H63.8548C64.4318 261.62 64.8399 261.296 64.8399 260.81C64.8399 260.346 64.4951 260.029 63.9533 260.029C63.4396 260.029 62.9893 260.311 62.9682 260.775H62.2223C62.2434 259.945 63.0104 259.382 63.9603 259.382C64.9596 259.382 65.5929 260.015 65.5858 260.768C65.5929 261.345 65.234 261.767 64.6851 261.901V261.936C65.3818 262.035 65.7828 262.499 65.7828 263.147C65.7828 263.998 65.0018 264.617 63.9463 264.617ZM68.2274 264.617C67.0452 264.617 66.3556 263.667 66.3556 262C66.3556 260.346 67.0593 259.382 68.2274 259.382C69.3955 259.382 70.0991 260.346 70.0991 262C70.0991 263.667 69.4025 264.617 68.2274 264.617ZM68.2274 263.949C68.917 263.949 69.3251 263.273 69.3251 262C69.3251 260.733 68.9099 260.036 68.2274 260.036C67.5448 260.036 67.1297 260.733 67.1297 262C67.1297 263.273 67.5378 263.949 68.2274 263.949Z" fill="#BDBDBD"/>
<path d="M95.5723 239.185C95.5652 240.022 96.5926 240.811 97.831 240.972L97.5707 241.521C96.5398 241.356 95.6321 240.821 95.2275 240.079C94.8123 240.825 93.9081 241.356 92.8843 241.521L92.6169 240.972C93.8553 240.811 94.8686 240.029 94.8756 239.185V238.84H95.5723V239.185ZM98.0914 242.14V242.689H95.5301V244.934H94.8756V242.689H92.3424V242.14H98.0914Z" fill="#7E8DF5"/>
<path d="M95.9957 259.452V264.547H95.2146V260.226H95.1864L93.9691 261.022V260.283L95.2357 259.452H95.9957Z" fill="#7E8DF5"/>
<path d="M126.782 238.89V241.05H124.967V241.782H127.514V242.323H121.765V241.782H124.305V241.05H122.497V238.89H126.782ZM123.151 239.417V240.515H126.121V239.417H123.151ZM126.81 242.922V244.934H126.135V243.449H122.405V242.922H126.81Z" fill="#7E8DF5"/>
<path d="M122.983 264.547V263.984L124.749 262.204C125.305 261.62 125.587 261.296 125.587 260.853C125.587 260.353 125.179 260.029 124.644 260.029C124.081 260.029 123.715 260.388 123.715 260.93H122.983C122.976 260.001 123.687 259.382 124.658 259.382C125.643 259.382 126.319 260.001 126.326 260.832C126.319 261.401 126.051 261.852 125.094 262.795L124.06 263.843V263.885H126.41V264.547H122.983Z" fill="#7E8DF5"/>
<path d="M156.226 238.946V239.424C156.226 239.92 156.226 240.483 156.064 241.247H156.958V241.796H151.188V241.247H155.389C155.558 240.512 155.565 239.973 155.565 239.495H151.913V238.946H156.226ZM156.233 242.598V244.857H151.891V242.598H156.233ZM152.546 243.126V244.315H155.572V243.126H152.546Z" fill="#7E8DF5"/>
<path d="M154.214 264.617C153.159 264.617 152.406 264.047 152.378 263.217H153.166C153.194 263.667 153.637 263.949 154.207 263.949C154.819 263.949 155.27 263.611 155.27 263.118C155.27 262.619 154.848 262.253 154.123 262.253H153.687V261.62H154.123C154.7 261.62 155.108 261.296 155.108 260.81C155.108 260.346 154.763 260.029 154.221 260.029C153.708 260.029 153.257 260.311 153.236 260.775H152.49C152.511 259.945 153.278 259.382 154.228 259.382C155.228 259.382 155.861 260.015 155.854 260.768C155.861 261.345 155.502 261.767 154.953 261.901V261.936C155.65 262.035 156.051 262.499 156.051 263.147C156.051 263.998 155.27 264.617 154.214 264.617Z" fill="#7E8DF5"/>
<path d="M185.726 241.859V242.394H183.819V243.625H186.381V244.174H180.611V243.625H183.151V242.394H181.335V239.115H185.663V239.664H182.011V240.473H185.529V241.001H182.011V241.859H185.726Z" fill="#4842B2"/>
<path d="M181.716 263.555V262.928L183.968 259.452H184.925V262.9H185.621V263.555H184.925V264.547H184.193V263.555H181.716ZM182.532 262.9H184.193V260.374H184.137L182.532 262.858V262.9Z" fill="#4842B2"/>
</g>
</g>
<g filter="url(#filter1_d_216_2207)">
<path d="M-11.2722 113.898H177.874C191.139 113.898 201.892 124.652 201.892 137.917C201.892 151.182 191.139 161.935 177.874 161.935H0.73704C-5.89549 161.935 -11.2722 156.559 -11.2722 149.926V113.898Z" fill="#FDFDFD"/>
<rect x="57.1805" y="121.104" width="137.506" height="33.6259" rx="16.813" fill="url(#paint13_linear_216_2207)" fill-opacity="0.5"/>
<path d="M71.5588 132.522V142.711H69.9967V134.07H69.9404L67.5057 135.66V134.182L70.0389 132.522H71.5588ZM77.3345 142.852C74.9702 142.852 73.591 140.952 73.591 137.616C73.591 134.309 74.9984 132.381 77.3345 132.381C79.6707 132.381 81.078 134.309 81.078 137.616C81.078 140.952 79.6848 142.852 77.3345 142.852ZM77.3345 141.515C78.7137 141.515 79.53 140.164 79.53 137.616C79.53 135.083 78.6996 133.69 77.3345 133.69C75.9694 133.69 75.1391 135.083 75.1391 137.616C75.1391 140.164 75.9553 141.515 77.3345 141.515ZM92.3705 131.312V138.7H91.0335V138.095H88.5707V137.25H91.0335V131.312H92.3705ZM81.8577 135.956C84.2924 135.97 87.3885 135.942 90.1047 135.646L90.1751 136.505C88.9859 136.666 87.7544 136.765 86.5441 136.828V138.728H85.2212V136.885C84.0813 136.913 82.9976 136.92 82.0125 136.913L81.8577 135.956ZM92.3705 139.122V141.838H85.1087V142.809H92.7505V143.781H83.7998V140.952H91.0476V140.051H83.7435V139.122H92.3705ZM85.9531 131.523C87.8248 131.523 89.0914 132.269 89.1055 133.423C89.0914 134.605 87.8248 135.308 85.9531 135.308C84.0391 135.308 82.7865 134.605 82.8006 133.423C82.7865 132.269 84.0391 131.523 85.9531 131.523ZM85.9531 132.423C84.785 132.423 84.0531 132.817 84.0531 133.423C84.0531 134.028 84.785 134.408 85.9531 134.408C87.093 134.408 87.8389 134.028 87.8389 133.423C87.8389 132.817 87.093 132.423 85.9531 132.423Z" fill="#4842B2"/>
<path d="M104.317 142.711V141.585L107.849 138.025C108.961 136.856 109.524 136.209 109.524 135.322C109.524 134.323 108.708 133.676 107.638 133.676C106.512 133.676 105.781 134.394 105.781 135.477H104.317C104.303 133.62 105.724 132.381 107.666 132.381C109.637 132.381 110.988 133.62 111.002 135.28C110.988 136.42 110.453 137.321 108.539 139.207L106.47 141.304V141.388H111.171V142.711H104.317ZM116.215 142.852C114.329 142.838 112.358 141.726 112.358 137.954C112.358 134.408 113.892 132.381 116.341 132.381C118.213 132.381 119.522 133.549 119.761 135.168H118.227C118.03 134.337 117.369 133.732 116.341 133.732C114.765 133.732 113.85 135.111 113.85 137.405H113.963C114.512 136.547 115.469 136.026 116.58 136.026C118.396 136.026 119.86 137.419 119.86 139.376C119.86 141.346 118.41 142.866 116.215 142.852ZM116.2 141.557C117.439 141.557 118.354 140.6 118.354 139.404C118.354 138.236 117.467 137.293 116.243 137.293C114.99 137.293 114.047 138.278 114.033 139.418C114.047 140.544 114.948 141.557 116.2 141.557ZM124.284 131.72C126.184 131.734 127.577 132.902 127.591 134.548C127.577 136.209 126.184 137.363 124.284 137.363C122.37 137.363 120.963 136.209 120.963 134.548C120.963 132.902 122.37 131.734 124.284 131.72ZM124.284 132.846C123.116 132.831 122.258 133.521 122.272 134.548C122.258 135.59 123.116 136.279 124.284 136.279C125.438 136.279 126.297 135.59 126.297 134.548C126.297 133.521 125.438 132.831 124.284 132.846ZM131.166 131.297V137.715H129.829V131.297H131.166ZM131.166 138.292V141.472H124.214V142.683H131.588V143.752H122.919V140.473H129.843V139.361H122.877V138.292H131.166Z" fill="#4842B2"/>
<path d="M140.645 128.309V147.523" stroke="#B4BFFF" stroke-width="1.20093"/>
<path d="M4.03961 142.711V141.585L7.57202 138.025C8.68382 136.856 9.24675 136.209 9.24675 135.322C9.24675 134.323 8.4305 133.676 7.36092 133.676C6.23505 133.676 5.50324 134.394 5.50324 135.477H4.03961C4.02554 133.62 5.44695 132.381 7.38907 132.381C9.35934 132.381 10.7104 133.62 10.7245 135.28C10.7104 136.42 10.1756 137.321 8.26162 139.207L6.19283 141.304V141.388H10.8933V142.711H4.03961ZM15.7965 142.852C13.4322 142.852 12.053 140.952 12.053 137.616C12.053 134.309 13.4603 132.381 15.7965 132.381C18.1327 132.381 19.54 134.309 19.54 137.616C19.54 140.952 18.1467 142.852 15.7965 142.852ZM15.7965 141.515C17.1757 141.515 17.9919 140.164 17.9919 137.616C17.9919 135.083 17.1616 133.69 15.7965 133.69C14.4314 133.69 13.601 135.083 13.601 137.616C13.601 140.164 14.4173 141.515 15.7965 141.515ZM20.7841 142.711V141.585L24.3165 138.025C25.4283 136.856 25.9912 136.209 25.9912 135.322C25.9912 134.323 25.175 133.676 24.1054 133.676C22.9795 133.676 22.2477 134.394 22.2477 135.477H20.7841C20.77 133.62 22.1914 132.381 24.1335 132.381C26.1038 132.381 27.4549 133.62 27.4689 135.28C27.4549 136.42 26.9201 137.321 25.0061 139.207L22.9373 141.304V141.388H27.6378V142.711H20.7841ZM32.4565 142.852C30.5285 142.852 29.0789 141.67 29.0085 140.051H30.5144C30.5988 140.924 31.4292 141.557 32.4565 141.557C33.695 141.557 34.5816 140.656 34.5816 139.446C34.5816 138.207 33.6668 137.307 32.3862 137.293C31.5699 137.293 30.9507 137.56 30.5988 138.193H29.1352L29.7967 132.522H35.5667V133.845H31.0773L30.7396 136.702H30.8381C31.2603 136.293 31.978 136.012 32.7521 136.012C34.666 136.012 36.0874 137.433 36.0874 139.404C36.0874 141.416 34.5816 142.852 32.4565 142.852ZM47.4503 131.312V140.628H46.1133V136.336H42.6513V135.266H46.1133V133.943H42.6513V132.874H46.1133V131.312H47.4503ZM47.774 142.556V143.64H39.2314V139.812H40.5825V142.556H47.774ZM39.0063 132.184V137.701C40.681 137.701 42.2713 137.595 44.0727 137.265L44.2134 138.362C42.215 138.742 40.5121 138.813 38.6544 138.827H37.6834V132.184H39.0063Z" fill="#7E8DF5"/>
<path d="M150.689 131.72C152.588 131.734 153.982 132.902 153.996 134.548C153.982 136.209 152.588 137.363 150.689 137.363C148.775 137.363 147.367 136.209 147.367 134.548C147.367 132.902 148.775 131.734 150.689 131.72ZM150.689 132.846C149.52 132.831 148.662 133.521 148.676 134.548C148.662 135.59 149.52 136.279 150.689 136.279C151.843 136.279 152.701 135.59 152.701 134.548C152.701 133.521 151.843 132.831 150.689 132.846ZM157.57 131.297V137.715H156.233V131.297H157.57ZM157.57 138.292V141.472H150.618V142.683H157.993V143.752H149.323V140.473H156.248V139.361H149.281V138.292H157.57ZM170.749 141.219V142.331H159.209V141.219H161.967V137.926C160.933 137.356 160.306 136.448 160.306 135.322C160.306 133.338 162.248 132.029 164.951 132.029C167.667 132.029 169.609 133.338 169.609 135.322C169.609 136.434 169.004 137.328 167.99 137.898V141.219H170.749ZM164.951 133.099C162.966 133.099 161.601 133.957 161.601 135.322C161.601 136.673 162.966 137.56 164.951 137.56C166.921 137.56 168.314 136.673 168.314 135.322C168.314 133.957 166.921 133.099 164.951 133.099ZM163.29 141.219H166.639V138.404C166.126 138.538 165.556 138.602 164.951 138.602C164.359 138.602 163.797 138.538 163.29 138.419V141.219ZM174.878 131.72C176.778 131.734 178.171 132.902 178.185 134.548C178.171 136.209 176.778 137.363 174.878 137.363C172.964 137.363 171.557 136.209 171.557 134.548C171.557 132.902 172.964 131.734 174.878 131.72ZM174.878 132.846C173.71 132.831 172.851 133.521 172.865 134.548C172.851 135.59 173.71 136.279 174.878 136.279C176.032 136.279 176.89 135.59 176.89 134.548C176.89 133.521 176.032 132.831 174.878 132.846ZM181.76 131.297V137.715H180.423V131.297H181.76ZM181.76 138.292V141.472H174.807V142.683H182.182V143.752H173.513V140.473H180.437V139.361H173.471V138.292H181.76Z" fill="#4842B2"/>
<path d="M-11.2722 101.888C-11.2722 95.2556 -5.89549 89.8789 0.737042 89.8789H47.7463C54.3788 89.8789 59.7556 95.2556 59.7556 101.888V114.29H-11.2722V101.888Z" fill="#FDFDFD"/>
<path d="M10.8793 97.9816C12.6807 97.991 13.9848 98.8729 13.9848 100.215C13.9848 101.477 12.8918 102.307 11.3202 102.438V104.089H14.7447V104.831H7.05131V104.089H10.4383V102.438C8.87616 102.307 7.78313 101.477 7.78313 100.215C7.78313 98.8729 9.08726 97.991 10.8793 97.9816ZM10.8793 98.7134C9.58452 98.7041 8.64629 99.3045 8.64629 100.215C8.64629 101.162 9.58452 101.744 10.8793 101.753C12.1834 101.744 13.1216 101.162 13.1216 100.215C13.1216 99.3045 12.1834 98.7041 10.8793 98.7134ZM21.8978 99.389V100.111H16.1277V97.597H17.0002V99.389H21.8978ZM22.7985 100.853V101.566H15.105V100.853H22.7985ZM21.8321 102.241V104.296H16.9533V105.075H22.1229V105.778H16.062V103.639H20.9502V102.935H16.0432V102.241H21.8321ZM31.888 97.475V99.1638H33.1076V99.9144H31.888V101.688H30.9966V97.475H31.888ZM26.5589 97.8503V100.59C27.6894 100.581 28.881 100.491 30.171 100.233L30.2836 100.975C28.8669 101.256 27.5909 101.34 26.3524 101.34H25.6675V97.8503H26.5589ZM31.888 102.072V104.211H27.3563V105.056H32.1788V105.778H26.4744V103.527H30.9966V102.776H26.4556V102.072H31.888ZM40.1199 97.475V100.759H41.227V101.509H40.1199V105.881H39.2286V97.475H40.1199ZM35.335 99.8581C35.335 100.801 35.4476 102.091 36.1043 103.001C36.7283 102.11 36.8549 100.834 36.8643 99.8581V99.0137H36.2638V98.2912H38.6094V99.0137H37.7087V99.8581C37.7087 101.153 37.9526 102.692 39.0034 103.461L38.4311 104.108C37.8307 103.644 37.4788 102.907 37.2771 102.072C37.0848 102.926 36.7283 103.705 36.095 104.183C35.471 103.709 35.1145 102.926 34.9222 102.082C34.7111 102.907 34.3592 103.649 33.7682 104.108L33.1958 103.461C34.2373 102.682 34.4906 101.115 34.4906 99.8581V99.0137H33.4867V98.2912H35.9261V99.0137H35.335V99.8581Z" fill="#4842B2"/>
</g>
<g filter="url(#filter2_d_216_2207)">
<rect x="380.229" y="25.0273" width="369.885" height="32.425" rx="16.2125" fill="#FDFDFD"/>
<rect x="380.53" y="25.3276" width="369.285" height="31.8245" rx="15.9123" stroke="#E5E5E5" stroke-width="0.600463"/>
<path d="M395.616 35.9344C397.176 35.9461 398.314 36.8844 398.314 38.2448C398.314 39.6052 397.176 40.5434 395.616 40.5434C394.033 40.5434 392.907 39.6052 392.907 38.2448C392.907 36.8844 394.033 35.9461 395.616 35.9344ZM395.616 36.7084C394.573 36.7084 393.799 37.3417 393.81 38.2448C393.799 39.1595 394.573 39.7928 395.616 39.7928C396.648 39.7928 397.422 39.1595 397.422 38.2448C397.422 37.3417 396.648 36.7084 395.616 36.7084ZM401.269 35.5474V40.907H400.354V35.5474H401.269ZM401.269 41.4113V43.921H395.417V45.0938H401.644V45.8327H394.514V43.2291H400.354V42.1501H394.491V41.4113H401.269ZM411.383 35.5474V41.7631H410.457V39.0305H408.357V38.2682H410.457V35.5474H411.383ZM407.924 42.0915C410.093 42.0915 411.418 42.7952 411.418 44.0266C411.418 45.258 410.093 45.9617 407.924 45.9734C405.754 45.9617 404.429 45.258 404.429 44.0266C404.429 42.7952 405.754 42.0915 407.924 42.0915ZM407.924 42.8069C406.329 42.8069 405.332 43.2643 405.343 44.0266C405.332 44.7772 406.329 45.2345 407.924 45.2345C409.518 45.2345 410.504 44.7772 410.504 44.0266C410.504 43.2643 409.518 42.8069 407.924 42.8069ZM406.364 37.459C406.364 38.8194 407.407 40.1095 408.932 40.6372L408.451 41.3761C407.278 40.9539 406.37 40.0802 405.93 38.9954C405.472 40.2209 404.505 41.2002 403.268 41.6693L402.787 40.9304C404.335 40.3675 405.437 38.9602 405.437 37.4707V37.0837H403.08V36.3097H408.698V37.0837H406.364V37.459ZM417.568 35.735C419.891 35.735 421.251 36.3683 421.251 37.5294C421.251 38.7139 419.891 39.3472 417.568 39.3589C415.246 39.3472 413.874 38.7139 413.874 37.5294C413.874 36.3683 415.246 35.735 417.568 35.735ZM417.568 36.427C415.833 36.427 414.824 36.8492 414.836 37.5294C414.824 38.2565 415.833 38.6552 417.568 38.6552C419.292 38.6552 420.313 38.2565 420.313 37.5294C420.313 36.8492 419.292 36.427 417.568 36.427ZM422.318 40.0626V40.8132H412.819V40.0626H422.318ZM421.099 41.7162V44.05H414.906V45.129H421.415V45.8561H413.991V43.3698H420.195V42.4199H413.968V41.7162H421.099ZM430.994 36.2276C430.983 38.8429 429.118 40.7193 426.116 41.5755L425.729 40.8483C428.221 40.1447 429.81 38.7608 430.009 36.9899H426.268V36.2276H430.994ZM434.255 35.5591V41.5051H433.328V39.0188H431.018V38.2448H433.328V35.5591H434.255ZM434.255 41.9508V45.8327H427.488V41.9508H434.255ZM428.379 42.6896V45.0821H433.34V42.6896H428.379ZM438.798 37.588C438.798 38.7725 439.596 39.9688 440.933 40.4965L440.44 41.2119C439.455 40.8014 438.734 40.0391 438.364 39.1126C437.977 40.1271 437.227 41.0125 436.206 41.4699L435.702 40.7545C437.074 40.1447 437.919 38.7725 437.919 37.588V36.1924H438.798V37.588ZM444.545 35.5591V41.8569H443.665V39.054H442.281V41.7983H441.413V35.7468H442.281V38.28H443.665V35.5591H444.545ZM444.545 42.4316V45.9734H443.642V43.1939H437.52V42.4316H444.545ZM450.976 37.3535V38.104H445.746V37.3535H447.915V35.864H448.83V37.3535H450.976ZM448.361 38.8077C449.674 38.8077 450.613 39.7928 450.624 41.1767C450.613 42.5723 449.674 43.5692 448.361 43.5692C447.059 43.5692 446.121 42.5723 446.121 41.1767C446.121 39.7928 447.059 38.8077 448.361 38.8077ZM448.361 39.5817C447.54 39.5935 446.942 40.262 446.942 41.1767C446.942 42.1032 447.54 42.7717 448.361 42.76C449.194 42.7717 449.803 42.1032 449.803 41.1767C449.803 40.262 449.194 39.5935 448.361 39.5817ZM454.647 35.5474V45.9734H453.767V40.7076H452.384V45.4574H451.516V35.8054H452.384V39.9453H453.767V35.5474H454.647ZM463.828 37.0251C463.816 38.4207 465.681 39.6052 467.498 39.8749L467.158 40.6021C465.528 40.3265 463.945 39.4586 463.312 38.1979C462.678 39.4586 461.089 40.3265 459.488 40.6021L459.125 39.8749C460.931 39.6052 462.796 38.4207 462.796 37.0251V36.9547H459.453V36.2041H467.158V36.9547H463.828V37.0251ZM468.061 41.4934V42.2557H463.745V45.9734H462.842V42.2557H458.562V41.4934H468.061ZM471.737 38.5145C471.737 40.1681 472.546 41.9625 473.93 42.7834L473.402 43.4988C472.399 42.889 471.678 41.7748 471.315 40.5082C470.928 41.8921 470.154 43.0825 469.11 43.7217L468.523 43.0297C469.966 42.1853 470.845 40.3323 470.845 38.5497V36.5325H471.737V38.5145ZM477.577 35.5474V45.9734H476.686V35.5474H477.577ZM475.419 35.7702V45.4456H474.551V40.0743H472.781V39.2885H474.551V35.7702H475.419ZM488.266 43.8624V44.6364H478.72V43.8624H481.089V41.0477C480.197 40.5845 479.658 39.8339 479.658 38.8898C479.658 37.2714 481.241 36.2159 483.469 36.2041C485.698 36.2159 487.281 37.2714 487.281 38.8898C487.281 39.8163 486.759 40.561 485.897 41.0243V43.8624H488.266ZM483.469 36.9664C481.757 36.9547 480.549 37.7288 480.549 38.8898C480.549 40.0509 481.757 40.8366 483.469 40.8366C485.17 40.8366 486.389 40.0509 486.389 38.8898C486.389 37.7288 485.17 36.9547 483.469 36.9664ZM481.992 43.8624H484.97V41.3761C484.519 41.4992 484.015 41.5637 483.469 41.5637C482.936 41.5637 482.437 41.5051 481.992 41.3878V43.8624ZM490.487 36.5325L490.405 42.631H489.42L489.338 36.5325H490.487ZM489.913 45.0938C489.502 45.0938 489.15 44.7537 489.162 44.3315C489.15 43.921 489.502 43.5809 489.913 43.5809C490.323 43.5809 490.663 43.921 490.663 44.3315C490.663 44.7537 490.323 45.0938 489.913 45.0938Z" fill="#BDBDBD"/>
</g>
<g filter="url(#filter3_d_216_2207)">
<path d="M246.326 83.873H866.004C875.953 83.873 884.018 91.9381 884.018 101.887V637.5H246.326V83.873Z" fill="#F4F6FF" shape-rendering="crispEdges"/>
<g clip-path="url(#clip3_216_2207)">
<mask id="path-60-inside-1_216_2207" fill="white">
<path d="M246.326 130.109H336.396V231.588H246.326V130.109Z"/>
</mask>
<path d="M246.326 130.109H336.396V231.588H246.326V130.109Z" fill="#FDFDFD"/>
<g clip-path="url(#clip4_216_2207)">
<rect width="90.0694" height="14.4111" transform="translate(246.326 130.109)" fill="#FDFDFD"/>
<path d="M252.732 136.95C253.668 136.957 254.653 137.52 254.653 139.385C254.653 141.172 253.886 142.186 252.662 142.186C251.726 142.186 251.064 141.609 250.945 140.778H251.712C251.817 141.208 252.148 141.51 252.662 141.51C253.45 141.51 253.907 140.82 253.914 139.659H253.851C253.577 140.089 253.098 140.349 252.549 140.349C251.634 140.349 250.903 139.652 250.903 138.674C250.903 137.703 251.627 136.943 252.732 136.95ZM252.732 137.598C252.113 137.598 251.656 138.076 251.656 138.66C251.656 139.251 252.099 139.716 252.718 139.716C253.33 139.716 253.809 139.216 253.809 138.653C253.809 138.104 253.358 137.598 252.732 137.598ZM260.313 136.416V140.11H259.645V139.807H258.414V139.385H259.645V136.416H260.313ZM255.057 138.738C256.274 138.745 257.822 138.731 259.181 138.583L259.216 139.012C258.621 139.093 258.005 139.142 257.4 139.174V140.124H256.739V139.202C256.169 139.216 255.627 139.22 255.134 139.216L255.057 138.738ZM260.313 140.321V141.679H256.683V142.164H260.503V142.65H256.028V141.236H259.652V140.785H256V140.321H260.313ZM257.105 136.521C258.041 136.521 258.674 136.894 258.681 137.471C258.674 138.062 258.041 138.414 257.105 138.414C256.148 138.414 255.521 138.062 255.529 137.471C255.521 136.894 256.148 136.521 257.105 136.521ZM257.105 136.971C256.521 136.971 256.155 137.168 256.155 137.471C256.155 137.774 256.521 137.964 257.105 137.964C257.675 137.964 258.048 137.774 258.048 137.471C258.048 137.168 257.675 136.971 257.105 136.971Z" fill="#BDBDBD"/>
<path d="M262.614 142.111V141.267L265.263 138.597C266.097 137.72 266.519 137.235 266.519 136.57C266.519 135.821 265.907 135.335 265.105 135.335C264.261 135.335 263.712 135.873 263.712 136.686H262.614C262.603 135.293 263.669 134.364 265.126 134.364C266.604 134.364 267.617 135.293 267.628 136.538C267.617 137.393 267.216 138.069 265.781 139.483L264.229 141.056V141.119H267.754V142.111H262.614ZM271.442 142.217C269.785 142.217 268.624 141.32 268.635 140.074C268.624 139.093 269.331 138.29 270.228 138.153V138.111C269.447 137.932 268.92 137.235 268.92 136.401C268.92 135.229 269.986 134.364 271.442 134.364C272.888 134.364 273.944 135.229 273.954 136.401C273.944 137.235 273.416 137.932 272.645 138.111V138.153C273.532 138.29 274.239 139.093 274.25 140.074C274.239 141.32 273.078 142.217 271.442 142.217ZM271.442 141.256C272.434 141.256 273.068 140.739 273.068 139.99C273.068 139.198 272.382 138.628 271.442 138.628C270.492 138.628 269.796 139.198 269.817 139.99C269.796 140.739 270.429 141.256 271.442 141.256ZM271.442 137.71C272.244 137.71 272.814 137.224 272.814 136.507C272.814 135.799 272.255 135.314 271.442 135.314C270.598 135.314 270.049 135.789 270.049 136.507C270.049 137.224 270.629 137.71 271.442 137.71ZM277.537 133.868C278.962 133.878 280.007 134.754 280.017 135.989C280.007 137.235 278.962 138.1 277.537 138.1C276.101 138.1 275.046 137.235 275.046 135.989C275.046 134.754 276.101 133.878 277.537 133.868ZM277.537 134.712C276.661 134.702 276.017 135.219 276.027 135.989C276.017 136.77 276.661 137.288 277.537 137.288C278.402 137.288 279.046 136.77 279.046 135.989C279.046 135.219 278.402 134.702 277.537 134.712ZM282.698 133.551V138.364H281.695V133.551H282.698ZM282.698 138.797V141.182H277.484V142.09H283.015V142.892H276.513V140.433H281.706V139.599H276.481V138.797H282.698Z" fill="#BDBDBD"/>
</g>
</g>
<path d="M336.396 231.588V232.188H336.996V231.588H336.396ZM336.396 130.109H335.795V231.588H336.396H336.996V130.109H336.396ZM336.396 231.588V230.987H246.326V231.588V232.188H336.396V231.588Z" fill="#EAEDFF" mask="url(#path-60-inside-1_216_2207)"/>
<g clip-path="url(#clip5_216_2207)">
<mask id="path-64-inside-2_216_2207" fill="white">
<path d="M336.396 130.109H427.666V231.588H336.396V130.109Z"/>
</mask>
<path d="M336.396 130.109H427.666V231.588H336.396V130.109Z" fill="#FDFDFD"/>
<g clip-path="url(#clip6_216_2207)">
<rect width="91.2704" height="14.4111" transform="translate(336.396 130.109)" fill="#FDFDFD"/>
<path d="M342.802 136.95C343.737 136.957 344.723 137.52 344.723 139.385C344.723 141.172 343.956 142.186 342.731 142.186C341.795 142.186 341.134 141.609 341.014 140.778H341.781C341.887 141.208 342.218 141.51 342.731 141.51C343.519 141.51 343.977 140.82 343.984 139.659H343.92C343.646 140.089 343.168 140.349 342.619 140.349C341.704 140.349 340.972 139.652 340.972 138.674C340.972 137.703 341.697 136.943 342.802 136.95ZM342.802 137.598C342.182 137.598 341.725 138.076 341.725 138.66C341.725 139.251 342.168 139.716 342.788 139.716C343.4 139.716 343.878 139.216 343.878 138.653C343.878 138.104 343.428 137.598 342.802 137.598ZM350.383 136.416V140.11H349.714V139.807H348.483V139.385H349.714V136.416H350.383ZM345.127 138.738C346.344 138.745 347.892 138.731 349.25 138.583L349.285 139.012C348.691 139.093 348.075 139.142 347.47 139.174V140.124H346.808V139.202C346.238 139.216 345.696 139.22 345.204 139.216L345.127 138.738ZM350.383 140.321V141.679H346.752V142.164H350.573V142.65H346.098V141.236H349.721V140.785H346.069V140.321H350.383ZM347.174 136.521C348.11 136.521 348.743 136.894 348.75 137.471C348.743 138.062 348.11 138.414 347.174 138.414C346.217 138.414 345.591 138.062 345.598 137.471C345.591 136.894 346.217 136.521 347.174 136.521ZM347.174 136.971C346.59 136.971 346.224 137.168 346.224 137.471C346.224 137.774 346.59 137.964 347.174 137.964C347.744 137.964 348.117 137.774 348.117 137.471C348.117 137.168 347.744 136.971 347.174 136.971Z" fill="#BDBDBD"/>
<path d="M352.683 142.111V141.267L355.333 138.597C356.166 137.72 356.589 137.235 356.589 136.57C356.589 135.821 355.976 135.335 355.174 135.335C354.33 135.335 353.781 135.873 353.781 136.686H352.683C352.673 135.293 353.739 134.364 355.195 134.364C356.673 134.364 357.686 135.293 357.697 136.538C357.686 137.393 357.285 138.069 355.85 139.483L354.298 141.056V141.119H357.824V142.111H352.683ZM361.469 134.364C362.873 134.375 364.351 135.219 364.351 138.016C364.351 140.697 363.2 142.217 361.364 142.217C359.96 142.217 358.968 141.351 358.788 140.106H359.939C360.097 140.75 360.593 141.204 361.364 141.204C362.546 141.204 363.232 140.169 363.243 138.428H363.148C362.736 139.071 362.018 139.462 361.195 139.462C359.823 139.462 358.725 138.417 358.725 136.95C358.725 135.493 359.812 134.353 361.469 134.364ZM361.469 135.335C360.54 135.335 359.854 136.053 359.854 136.929C359.854 137.815 360.519 138.512 361.448 138.512C362.367 138.512 363.084 137.763 363.084 136.918C363.084 136.095 362.409 135.335 361.469 135.335ZM367.659 133.868C369.084 133.878 370.129 134.754 370.139 135.989C370.129 137.235 369.084 138.1 367.659 138.1C366.223 138.1 365.168 137.235 365.168 135.989C365.168 134.754 366.223 133.878 367.659 133.868ZM367.659 134.712C366.783 134.702 366.139 135.219 366.149 135.989C366.139 136.77 366.783 137.288 367.659 137.288C368.524 137.288 369.168 136.77 369.168 135.989C369.168 135.219 368.524 134.702 367.659 134.712ZM372.82 133.551V138.364H371.817V133.551H372.82ZM372.82 138.797V141.182H367.606V142.09H373.137V142.892H366.635V140.433H371.828V139.599H366.603V138.797H372.82Z" fill="#BDBDBD"/>
</g>
<path d="M342.257 151.5C342.257 149.872 343.577 148.553 345.205 148.553H428.319V165.058H345.205C343.577 165.058 342.257 163.738 342.257 162.11V151.5Z" fill="#FFEBB5"/>
<path d="M361.415 152.618V160.871H360.577V156.588H359.554V160.475H358.735V152.839H359.554V155.879H360.577V152.618H361.415ZM357.915 153.668C357.906 155.842 357.187 157.785 354.83 159.121L354.323 158.513C356.156 157.477 356.929 156.072 357.068 154.387H354.673V153.668H357.915ZM369.109 152.627V158.623H368.234V152.627H369.109ZM369.358 159.987V160.696H363.712V158.016H364.596V159.987H369.358ZM364.633 153.18C365.876 153.18 366.825 154.027 366.825 155.225C366.825 156.441 365.876 157.279 364.633 157.279C363.39 157.279 362.432 156.441 362.432 155.225C362.432 154.027 363.39 153.18 364.633 153.18ZM364.633 153.945C363.859 153.945 363.288 154.47 363.288 155.225C363.288 155.998 363.859 156.514 364.633 156.514C365.388 156.514 365.969 155.998 365.969 155.225C365.969 154.47 365.388 153.945 364.633 153.945ZM374.588 152.895C375.831 152.904 376.743 153.668 376.752 154.746C376.743 155.833 375.831 156.588 374.588 156.588C373.335 156.588 372.414 155.833 372.414 154.746C372.414 153.668 373.335 152.904 374.588 152.895ZM374.588 153.631C373.823 153.622 373.261 154.073 373.271 154.746C373.261 155.427 373.823 155.879 374.588 155.879C375.343 155.879 375.905 155.427 375.905 154.746C375.905 154.073 375.343 153.622 374.588 153.631ZM379.092 152.618V156.818H378.217V152.618H379.092ZM379.092 157.196V159.277H374.542V160.069H379.368V160.769H373.694V158.623H378.226V157.896H373.667V157.196H379.092ZM387.044 152.618V157.527H386.169V155.437H384.631V154.718H386.169V152.618H387.044ZM384.281 157.758C386.012 157.758 387.071 158.329 387.071 159.314C387.071 160.3 386.012 160.862 384.281 160.871C382.549 160.862 381.481 160.3 381.49 159.314C381.481 158.329 382.549 157.758 384.281 157.758ZM384.281 158.439C383.074 158.439 382.356 158.752 382.356 159.314C382.356 159.867 383.074 160.189 384.281 160.18C385.487 160.189 386.206 159.867 386.206 159.314C386.206 158.752 385.487 158.439 384.281 158.439ZM383.12 154.073C383.12 155.123 383.866 156.137 385.11 156.56L384.658 157.251C383.733 156.929 383.051 156.27 382.697 155.455C382.333 156.381 381.61 157.122 380.624 157.481L380.164 156.781C381.444 156.339 382.227 155.225 382.227 154.083V153.899H380.44V153.189H384.889V153.899H383.12V154.073Z" fill="#606060"/>
<path d="M342.257 171.543C342.257 169.915 343.577 168.596 345.205 168.596H428.319V185.101H345.205C343.577 185.101 342.257 183.781 342.257 182.153V171.543Z" fill="#D9C9FF"/>
<path d="M361.175 172.663V180.916H360.3V172.663H361.175ZM354.397 178.668C355.074 178.664 355.852 178.659 356.662 178.632V177.812C355.695 177.687 355.069 177.121 355.078 176.31C355.069 175.38 355.88 174.763 357.077 174.763C358.283 174.763 359.112 175.38 359.112 176.31C359.112 177.112 358.486 177.674 357.528 177.803V178.604C358.293 178.572 359.066 178.512 359.794 178.42L359.858 179.074C358.026 179.378 356.027 179.396 354.516 179.396L354.397 178.668ZM359.61 173.649V174.349H354.572V173.649H356.662V172.682H357.537V173.649H359.61ZM357.077 175.445C356.386 175.445 355.898 175.786 355.907 176.31C355.898 176.835 356.386 177.158 357.077 177.158C357.786 177.158 358.274 176.835 358.274 176.31C358.274 175.786 357.786 175.445 357.077 175.445ZM364.955 173.253C366.263 173.243 367.194 174.054 367.203 175.214C367.194 176.375 366.263 177.185 364.955 177.185C363.657 177.185 362.699 176.375 362.708 175.214C362.699 174.054 363.657 173.243 364.955 173.253ZM364.955 174.008C364.154 174.008 363.565 174.487 363.574 175.214C363.565 175.942 364.154 176.421 364.955 176.421C365.757 176.421 366.346 175.942 366.346 175.214C366.346 174.487 365.757 174.008 364.955 174.008ZM369.091 172.663V180.934H368.216V172.663H369.091ZM362.312 178.429C363.813 178.429 365.895 178.41 367.7 178.153L367.765 178.788C365.895 179.147 363.896 179.157 362.423 179.157L362.312 178.429Z" fill="#606060"/>
<path d="M342.257 191.584C342.257 189.956 343.577 188.637 345.205 188.637H428.319V205.142H345.205C343.577 205.142 342.257 203.822 342.257 202.194V191.584Z" fill="#A0D4FF"/>
<path d="M361.903 199.188V199.925H354.351V199.188H361.903ZM361.212 193.496V194.215H359.95V196.969H361.185V197.669H355.014V196.969H356.248V194.215H354.995V193.496H361.212ZM357.114 196.969H359.094V194.215H357.114V196.969ZM369.819 199.234V199.971H362.266V199.234H365.591V197.788H363.187V195.163H368.032V194.003H363.169V193.284H368.897V195.863H364.053V197.07H369.091V197.788H366.457V199.234H369.819ZM375.597 192.879V197.678H374.768V195.513H373.617V194.804H374.768V192.879H375.597ZM372.677 194.473C372.677 195.366 373.221 196.296 374.271 196.729L373.829 197.401C373.078 197.093 372.562 196.522 372.272 195.845C371.977 196.605 371.434 197.245 370.633 197.586L370.163 196.895C371.259 196.453 371.83 195.43 371.83 194.473V194.067H370.366V193.358H374.059V194.067H372.677V194.473ZM377.218 192.704V197.742H376.389V192.704H377.218ZM377.218 198.083V200.957H376.352V198.792H371.609V198.083H377.218ZM384.793 197.098V197.798H379.046V193.386H384.71V194.095H379.93V195.209H384.535V195.9H379.93V197.098H384.793ZM385.649 199.198V199.916H378.097V199.198H385.649ZM394.904 192.704V200.957H394.029V192.704H394.904ZM388.125 198.709C388.802 198.705 389.58 198.7 390.391 198.673V197.853C389.424 197.728 388.797 197.162 388.807 196.352C388.797 195.421 389.608 194.804 390.805 194.804C392.012 194.804 392.841 195.421 392.841 196.352C392.841 197.153 392.215 197.715 391.257 197.844V198.645C392.021 198.613 392.795 198.553 393.522 198.461L393.587 199.115C391.754 199.419 389.755 199.437 388.245 199.437L388.125 198.709ZM393.338 193.69V194.39H388.3V193.69H390.391V192.723H391.266V193.69H393.338ZM390.805 195.486C390.115 195.486 389.626 195.827 389.636 196.352C389.626 196.877 390.115 197.199 390.805 197.199C391.515 197.199 392.003 196.877 392.003 196.352C392.003 195.827 391.515 195.486 390.805 195.486ZM398.684 193.294C399.992 193.284 400.922 194.095 400.931 195.255C400.922 196.416 399.992 197.226 398.684 197.226C397.385 197.226 396.427 196.416 396.437 195.255C396.427 194.095 397.385 193.284 398.684 193.294ZM398.684 194.049C397.883 194.049 397.293 194.528 397.302 195.255C397.293 195.983 397.883 196.462 398.684 196.462C399.485 196.462 400.075 195.983 400.075 195.255C400.075 194.528 399.485 194.049 398.684 194.049ZM402.819 192.704V200.975H401.944V192.704H402.819ZM396.041 198.47C397.542 198.47 399.623 198.451 401.429 198.194L401.493 198.829C399.623 199.188 397.625 199.198 396.151 199.198L396.041 198.47Z" fill="#606060"/>
<path d="M342.257 211.625C342.257 209.997 343.577 208.678 345.205 208.678H428.319V225.183H345.205C343.577 225.183 342.257 223.863 342.257 222.235V211.625Z" fill="#A0D4FF"/>
<path d="M361.903 219.229V219.966H354.351V219.229H361.903ZM361.212 213.537V214.256H359.95V217.01H361.185V217.71H355.014V217.01H356.248V214.256H354.995V213.537H361.212ZM357.114 217.01H359.094V214.256H357.114V217.01ZM369.819 219.275V220.012H362.266V219.275H365.591V217.829H363.187V215.204H368.032V214.044H363.169V213.325H368.897V215.904H364.053V217.111H369.091V217.829H366.457V219.275H369.819ZM375.597 212.92V217.719H374.768V215.554H373.617V214.845H374.768V212.92H375.597ZM372.677 214.514C372.677 215.407 373.221 216.337 374.271 216.77L373.829 217.443C373.078 217.134 372.562 216.563 372.272 215.886C371.977 216.646 371.434 217.286 370.633 217.627L370.163 216.936C371.259 216.494 371.83 215.471 371.83 214.514V214.108H370.366V213.399H374.059V214.108H372.677V214.514ZM377.218 212.745V217.783H376.389V212.745H377.218ZM377.218 218.124V220.998H376.352V218.833H371.609V218.124H377.218ZM384.793 217.139V217.839H379.046V213.427H384.71V214.136H379.93V215.25H384.535V215.941H379.93V217.139H384.793ZM385.649 219.239V219.957H378.097V219.239H385.649ZM394.904 212.745V220.998H394.029V212.745H394.904ZM388.125 218.75C388.802 218.746 389.58 218.741 390.391 218.714V217.894C389.424 217.769 388.797 217.203 388.807 216.393C388.797 215.462 389.608 214.845 390.805 214.845C392.012 214.845 392.841 215.462 392.841 216.393C392.841 217.194 392.215 217.756 391.257 217.885V218.686C392.021 218.654 392.795 218.594 393.522 218.502L393.587 219.156C391.754 219.46 389.755 219.478 388.245 219.478L388.125 218.75ZM393.338 213.731V214.431H388.3V213.731H390.391V212.764H391.266V213.731H393.338ZM390.805 215.527C390.115 215.527 389.626 215.868 389.636 216.393C389.626 216.918 390.115 217.24 390.805 217.24C391.515 217.24 392.003 216.918 392.003 216.393C392.003 215.868 391.515 215.527 390.805 215.527ZM398.684 213.335C399.992 213.325 400.922 214.136 400.931 215.296C400.922 216.457 399.992 217.268 398.684 217.268C397.385 217.268 396.427 216.457 396.437 215.296C396.427 214.136 397.385 213.325 398.684 213.335ZM398.684 214.09C397.883 214.09 397.293 214.569 397.302 215.296C397.293 216.024 397.883 216.503 398.684 216.503C399.485 216.503 400.075 216.024 400.075 215.296C400.075 214.569 399.485 214.09 398.684 214.09ZM402.819 212.745V221.016H401.944V212.745H402.819ZM396.041 218.511C397.542 218.511 399.623 218.492 401.429 218.235L401.493 218.87C399.623 219.229 397.625 219.239 396.151 219.239L396.041 218.511Z" fill="#606060"/>
</g>
<path d="M427.666 231.588V232.188H428.267V231.588H427.666ZM427.666 130.109H427.066V231.588H427.666H428.267V130.109H427.666ZM427.666 231.588V230.987H336.396V231.588V232.188H427.666V231.588Z" fill="#EAEDFF" mask="url(#path-64-inside-2_216_2207)"/>
<g clip-path="url(#clip7_216_2207)">
<mask id="path-76-inside-3_216_2207" fill="white">
<path d="M427.666 130.109H518.937V231.588H427.666V130.109Z"/>
</mask>
<path d="M427.666 130.109H518.937V231.588H427.666V130.109Z" fill="#FDFDFD"/>
<g clip-path="url(#clip8_216_2207)">
<rect width="91.2704" height="14.4111" transform="translate(427.666 130.109)" fill="#FDFDFD"/>
<path d="M434.072 136.95C435.008 136.957 435.993 137.52 435.993 139.385C435.993 141.172 435.226 142.186 434.002 142.186C433.066 142.186 432.404 141.609 432.285 140.778H433.052C433.157 141.208 433.488 141.51 434.002 141.51C434.79 141.51 435.247 140.82 435.254 139.659H435.191C434.917 140.089 434.438 140.349 433.889 140.349C432.974 140.349 432.243 139.652 432.243 138.674C432.243 137.703 432.967 136.943 434.072 136.95ZM434.072 137.598C433.453 137.598 432.995 138.076 432.995 138.66C432.995 139.251 433.439 139.716 434.058 139.716C434.67 139.716 435.149 139.216 435.149 138.653C435.149 138.104 434.698 137.598 434.072 137.598ZM441.653 136.416V140.11H440.985V139.807H439.754V139.385H440.985V136.416H441.653ZM436.397 138.738C437.614 138.745 439.162 138.731 440.521 138.583L440.556 139.012C439.961 139.093 439.345 139.142 438.74 139.174V140.124H438.079V139.202C437.509 139.216 436.967 139.22 436.474 139.216L436.397 138.738ZM441.653 140.321V141.679H438.022V142.164H441.843V142.65H437.368V141.236H440.992V140.785H437.34V140.321H441.653ZM438.445 136.521C439.381 136.521 440.014 136.894 440.021 137.471C440.014 138.062 439.381 138.414 438.445 138.414C437.488 138.414 436.861 138.062 436.868 137.471C436.861 136.894 437.488 136.521 438.445 136.521ZM438.445 136.971C437.861 136.971 437.495 137.168 437.495 137.471C437.495 137.774 437.861 137.964 438.445 137.964C439.015 137.964 439.388 137.774 439.388 137.471C439.388 137.168 439.015 136.971 438.445 136.971Z" fill="#BDBDBD"/>
<path d="M446.666 142.217C445.083 142.217 443.954 141.362 443.912 140.116H445.094C445.136 140.792 445.801 141.214 446.656 141.214C447.574 141.214 448.25 140.708 448.25 139.969C448.25 139.219 447.616 138.67 446.529 138.67H445.875V137.72H446.529C447.395 137.72 448.007 137.235 448.007 136.507C448.007 135.81 447.49 135.335 446.677 135.335C445.907 135.335 445.231 135.757 445.199 136.454H444.081C444.112 135.208 445.263 134.364 446.688 134.364C448.186 134.364 449.136 135.314 449.126 136.443C449.136 137.309 448.598 137.942 447.775 138.143V138.195C448.82 138.343 449.421 139.04 449.421 140.011C449.421 141.288 448.25 142.217 446.666 142.217ZM453.088 142.217C451.315 142.217 450.281 140.792 450.281 138.29C450.281 135.81 451.336 134.364 453.088 134.364C454.84 134.364 455.896 135.81 455.896 138.29C455.896 140.792 454.851 142.217 453.088 142.217ZM453.088 141.214C454.123 141.214 454.735 140.201 454.735 138.29C454.735 136.391 454.112 135.346 453.088 135.346C452.064 135.346 451.442 136.391 451.442 138.29C451.442 140.201 452.054 141.214 453.088 141.214ZM459.183 133.868C460.608 133.878 461.652 134.754 461.663 135.989C461.652 137.235 460.608 138.1 459.183 138.1C457.747 138.1 456.692 137.235 456.692 135.989C456.692 134.754 457.747 133.878 459.183 133.868ZM459.183 134.712C458.307 134.702 457.663 135.219 457.673 135.989C457.663 136.77 458.307 137.288 459.183 137.288C460.048 137.288 460.692 136.77 460.692 135.989C460.692 135.219 460.048 134.702 459.183 134.712ZM464.344 133.551V138.364H463.341V133.551H464.344ZM464.344 138.797V141.182H459.13V142.09H464.661V142.892H458.159V140.433H463.352V139.599H458.127V138.797H464.344Z" fill="#BDBDBD"/>
</g>
</g>
<path d="M518.937 231.588V232.188H519.537V231.588H518.937ZM518.937 130.109H518.336V231.588H518.937H519.537V130.109H518.937ZM518.937 231.588V230.987H427.666V231.588V232.188H518.937V231.588Z" fill="#EAEDFF" mask="url(#path-76-inside-3_216_2207)"/>
<g clip-path="url(#clip9_216_2207)">
<mask id="path-80-inside-4_216_2207" fill="white">
<path d="M246.326 231.588H336.396V333.066H246.326V231.588Z"/>
</mask>
<path d="M246.326 231.588H336.396V333.066H246.326V231.588Z" fill="#FDFDFD"/>
<g clip-path="url(#clip10_216_2207)">
<rect width="90.0694" height="14.4111" transform="translate(246.326 231.588)" fill="#EAEDFF"/>
<path d="M251.714 238.497V243.592H250.933V239.271H250.905L249.688 240.066V239.328L250.954 238.497H251.714ZM254.602 243.662C253.42 243.662 252.73 242.712 252.73 241.045C252.73 239.391 253.434 238.427 254.602 238.427C255.77 238.427 256.474 239.391 256.474 241.045C256.474 242.712 255.777 243.662 254.602 243.662ZM254.602 242.994C255.292 242.994 255.7 242.318 255.7 241.045C255.7 239.778 255.285 239.081 254.602 239.081C253.919 239.081 253.504 239.778 253.504 241.045C253.504 242.318 253.912 242.994 254.602 242.994ZM262.12 237.892V241.586H261.452V241.284H260.22V240.862H261.452V237.892H262.12ZM256.864 240.214C258.081 240.221 259.629 240.207 260.987 240.059L261.022 240.489C260.428 240.57 259.812 240.619 259.207 240.65V241.6H258.545V240.679C257.975 240.693 257.434 240.696 256.941 240.693L256.864 240.214ZM262.12 241.797V243.156H258.489V243.641H262.31V244.127H257.835V242.712H261.459V242.262H257.807V241.797H262.12ZM258.911 237.998C259.847 237.998 260.48 238.371 260.487 238.948C260.48 239.539 259.847 239.891 258.911 239.891C257.954 239.891 257.328 239.539 257.335 238.948C257.328 238.371 257.954 237.998 258.911 237.998ZM258.911 238.448C258.327 238.448 257.961 238.645 257.961 238.948C257.961 239.25 258.327 239.44 258.911 239.44C259.481 239.44 259.854 239.25 259.854 238.948C259.854 238.645 259.481 238.448 258.911 238.448Z" fill="#7E8DF5"/>
<path d="M267.012 243.695C265.566 243.695 264.479 242.809 264.426 241.595H265.555C265.619 242.249 266.241 242.724 267.012 242.724C267.941 242.724 268.606 242.049 268.606 241.141C268.606 240.212 267.92 239.537 266.959 239.526C266.347 239.526 265.882 239.727 265.619 240.202H264.521L265.017 235.948H269.344V236.94H265.977L265.724 239.083H265.798C266.115 238.777 266.653 238.566 267.233 238.566C268.669 238.566 269.735 239.632 269.735 241.109C269.735 242.619 268.606 243.695 267.012 243.695ZM273.053 235.346C274.478 235.357 275.523 236.233 275.534 237.468C275.523 238.713 274.478 239.579 273.053 239.579C271.618 239.579 270.563 238.713 270.563 237.468C270.563 236.233 271.618 235.357 273.053 235.346ZM273.053 236.191C272.177 236.18 271.534 236.697 271.544 237.468C271.534 238.249 272.177 238.766 273.053 238.766C273.919 238.766 274.563 238.249 274.563 237.468C274.563 236.697 273.919 236.18 273.053 236.191ZM278.215 235.03V239.843H277.212V235.03H278.215ZM278.215 240.276V242.661H273.001V243.569H278.532V244.371H272.03V241.912H277.223V241.078H271.998V240.276H278.215Z" fill="#4842B2"/>
</g>
</g>
<path d="M336.396 333.066V333.667H336.996V333.066H336.396ZM336.396 231.588H335.795V333.066H336.396H336.996V231.588H336.396ZM336.396 333.066V332.466H246.326V333.066V333.667H336.396V333.066Z" fill="#EAEDFF" mask="url(#path-80-inside-4_216_2207)"/>
<g clip-path="url(#clip11_216_2207)">
<mask id="path-84-inside-5_216_2207" fill="white">
<path d="M336.396 231.588H427.666V333.066H336.396V231.588Z"/>
</mask>
<path d="M336.396 231.588H427.666V333.066H336.396V231.588Z" fill="#FDFDFD"/>
<g clip-path="url(#clip12_216_2207)">
<rect width="91.2704" height="14.4111" transform="translate(336.396 231.588)" fill="#EAEDFF"/>
<path d="M342.985 238.497V243.592H342.203V239.271H342.175L340.958 240.066V239.328L342.225 238.497H342.985ZM345.872 243.662C344.69 243.662 344.001 242.712 344.001 241.045C344.001 239.391 344.704 238.427 345.872 238.427C347.04 238.427 347.744 239.391 347.744 241.045C347.744 242.712 347.048 243.662 345.872 243.662ZM345.872 242.994C346.562 242.994 346.97 242.318 346.97 241.045C346.97 239.778 346.555 239.081 345.872 239.081C345.19 239.081 344.775 239.778 344.775 241.045C344.775 242.318 345.183 242.994 345.872 242.994ZM353.39 237.892V241.586H352.722V241.284H351.49V240.862H352.722V237.892H353.39ZM348.134 240.214C349.351 240.221 350.899 240.207 352.257 240.059L352.293 240.489C351.698 240.57 351.082 240.619 350.477 240.65V241.6H349.816V240.679C349.246 240.693 348.704 240.696 348.211 240.693L348.134 240.214ZM353.39 241.797V243.156H349.759V243.641H353.58V244.127H349.105V242.712H352.729V242.262H349.077V241.797H353.39ZM350.182 237.998C351.118 237.998 351.751 238.371 351.758 238.948C351.751 239.539 351.118 239.891 350.182 239.891C349.225 239.891 348.598 239.539 348.605 238.948C348.598 238.371 349.225 237.998 350.182 237.998ZM350.182 238.448C349.598 238.448 349.232 238.645 349.232 238.948C349.232 239.25 349.598 239.44 350.182 239.44C350.752 239.44 351.125 239.25 351.125 238.948C351.125 238.645 350.752 238.448 350.182 238.448Z" fill="#7E8DF5"/>
<path d="M358.451 243.695C357.037 243.685 355.559 242.851 355.559 240.022C355.559 237.362 356.709 235.842 358.546 235.842C359.95 235.842 360.931 236.719 361.111 237.932H359.96C359.813 237.31 359.316 236.856 358.546 236.856C357.364 236.856 356.678 237.89 356.678 239.611H356.762C357.174 238.967 357.892 238.576 358.725 238.576C360.087 238.576 361.185 239.621 361.185 241.088C361.185 242.566 360.098 243.706 358.451 243.695ZM358.44 242.724C359.369 242.724 360.055 242.007 360.055 241.109C360.055 240.233 359.39 239.526 358.472 239.526C357.533 239.526 356.825 240.265 356.815 241.12C356.825 241.964 357.501 242.724 358.44 242.724ZM364.503 235.346C365.928 235.357 366.973 236.233 366.984 237.468C366.973 238.713 365.928 239.579 364.503 239.579C363.068 239.579 362.012 238.713 362.012 237.468C362.012 236.233 363.068 235.357 364.503 235.346ZM364.503 236.191C363.627 236.18 362.983 236.697 362.994 237.468C362.983 238.249 363.627 238.766 364.503 238.766C365.369 238.766 366.013 238.249 366.013 237.468C366.013 236.697 365.369 236.18 364.503 236.191ZM369.665 235.03V239.843H368.662V235.03H369.665ZM369.665 240.276V242.661H364.45V243.569H369.981V244.371H363.479V241.912H368.672V241.078H363.448V240.276H369.665Z" fill="#7E8DF5"/>
</g>
</g>
<path d="M427.666 333.066V333.667H428.267V333.066H427.666ZM427.666 231.588H427.066V333.066H427.666H428.267V231.588H427.666ZM427.666 333.066V332.466H336.396V333.066V333.667H427.666V333.066Z" fill="#EAEDFF" mask="url(#path-84-inside-5_216_2207)"/>
<g clip-path="url(#clip13_216_2207)">
<mask id="path-88-inside-6_216_2207" fill="white">
<path d="M427.666 231.588H518.937V333.066H427.666V231.588Z"/>
</mask>
<path d="M427.666 231.588H518.937V333.066H427.666V231.588Z" fill="#FDFDFD"/>
<g clip-path="url(#clip14_216_2207)">
<rect width="91.2704" height="14.4111" transform="translate(427.666 231.588)" fill="#EAEDFF"/>
<path d="M434.255 238.497V243.592H433.474V239.271H433.446L432.228 240.066V239.328L433.495 238.497H434.255ZM437.143 243.662C435.961 243.662 435.271 242.712 435.271 241.045C435.271 239.391 435.975 238.427 437.143 238.427C438.311 238.427 439.015 239.391 439.015 241.045C439.015 242.712 438.318 243.662 437.143 243.662ZM437.143 242.994C437.833 242.994 438.241 242.318 438.241 241.045C438.241 239.778 437.825 239.081 437.143 239.081C436.46 239.081 436.045 239.778 436.045 241.045C436.045 242.318 436.453 242.994 437.143 242.994ZM444.661 237.892V241.586H443.992V241.284H442.761V240.862H443.992V237.892H444.661ZM439.405 240.214C440.622 240.221 442.17 240.207 443.528 240.059L443.563 240.489C442.969 240.57 442.353 240.619 441.748 240.65V241.6H441.086V240.679C440.516 240.693 439.974 240.696 439.482 240.693L439.405 240.214ZM444.661 241.797V243.156H441.03V243.641H444.851V244.127H440.376V242.712H443.999V242.262H440.347V241.797H444.661ZM441.452 237.998C442.388 237.998 443.021 238.371 443.028 238.948C443.021 239.539 442.388 239.891 441.452 239.891C440.495 239.891 439.869 239.539 439.876 238.948C439.869 238.371 440.495 237.998 441.452 237.998ZM441.452 238.448C440.868 238.448 440.502 238.645 440.502 238.948C440.502 239.25 440.868 239.44 441.452 239.44C442.022 239.44 442.395 239.25 442.395 238.948C442.395 238.645 442.022 238.448 441.452 238.448Z" fill="#7E8DF5"/>
<path d="M447.22 243.59L450.629 237.004V236.94H446.692V235.948H451.833V236.982L448.434 243.59H447.22ZM455.088 235.346C456.513 235.357 457.558 236.233 457.568 237.468C457.558 238.713 456.513 239.579 455.088 239.579C453.652 239.579 452.597 238.713 452.597 237.468C452.597 236.233 453.652 235.357 455.088 235.346ZM455.088 236.191C454.212 236.18 453.568 236.697 453.578 237.468C453.568 238.249 454.212 238.766 455.088 238.766C455.953 238.766 456.597 238.249 456.597 237.468C456.597 236.697 455.953 236.18 455.088 236.191ZM460.249 235.03V239.843H459.247V235.03H460.249ZM460.249 240.276V242.661H455.035V243.569H460.566V244.371H454.064V241.912H459.257V241.078H454.032V240.276H460.249Z" fill="#7E8DF5"/>
</g>
</g>
<path d="M518.937 333.066V333.667H519.537V333.066H518.937ZM518.937 231.588H518.336V333.066H518.937H519.537V231.588H518.937ZM518.937 333.066V332.466H427.666V333.066V333.667H518.937V333.066Z" fill="#EAEDFF" mask="url(#path-88-inside-6_216_2207)"/>
<path d="M289.116 100.901C291.205 100.901 292.76 102.197 292.776 104.012C292.76 105.841 291.205 107.122 289.116 107.122C287.013 107.122 285.457 105.841 285.457 104.012C285.457 102.197 287.013 100.901 289.116 100.901ZM289.116 102.304C287.958 102.304 287.104 102.96 287.104 104.012C287.104 105.079 287.958 105.75 289.116 105.75C290.275 105.75 291.129 105.079 291.129 104.012C291.129 102.96 290.275 102.304 289.116 102.304ZM296.694 100.459V107.427H294.986V100.459H296.694ZM296.694 108.021V111.619H289.238V112.732H297.105V114.074H287.577V110.369H295.002V109.348H287.546V108.021H296.694Z" fill="#4842B2"/>
<path d="M387.44 100.474V108.509H385.732V107.945H383.156V106.908H385.732V100.474H387.44ZM375.868 105.445C378.536 105.445 381.86 105.414 384.818 105.124L384.909 106.192C383.651 106.367 382.355 106.474 381.082 106.527V108.524H379.405V106.603C378.224 106.634 377.088 106.641 376.051 106.634L375.868 105.445ZM387.44 108.936V112.031H379.603V112.915H387.806V114.12H377.942V110.918H385.763V110.095H377.881V108.936H387.44ZM380.32 100.688C382.363 100.688 383.766 101.511 383.766 102.761C383.766 104.042 382.363 104.82 380.32 104.82C378.231 104.82 376.844 104.042 376.844 102.761C376.844 101.511 378.231 100.688 380.32 100.688ZM380.32 101.816C379.161 101.816 378.445 102.182 378.46 102.761C378.445 103.341 379.161 103.691 380.32 103.691C381.448 103.691 382.18 103.341 382.18 102.761C382.18 102.182 381.448 101.816 380.32 101.816Z" fill="#7E8DF5"/>
<path d="M478.055 100.459V106.146H479.991V107.564H478.055V114.242H476.347V100.459H478.055ZM466.986 110.415C468.03 110.415 469.242 110.415 470.508 110.384V109.088C469.006 108.837 468.023 107.892 468.038 106.603C468.023 105.048 469.395 104.012 471.377 104.012C473.328 104.012 474.716 105.048 474.731 106.603C474.716 107.899 473.717 108.845 472.215 109.088V110.323C473.374 110.262 474.533 110.171 475.615 110.018L475.722 111.253C472.764 111.787 469.578 111.818 467.23 111.818L466.986 110.415ZM475.463 102.045V103.386H467.245V102.045H470.508V100.52H472.215V102.045H475.463ZM471.377 105.307C470.325 105.323 469.639 105.795 469.639 106.603C469.639 107.396 470.325 107.869 471.377 107.854C472.414 107.869 473.1 107.396 473.1 106.603C473.1 105.795 472.414 105.323 471.377 105.307Z" fill="#7E8DF5"/>
<path d="M246.326 62.2553C246.326 55.6228 251.703 50.2461 258.336 50.2461H307.345C313.977 50.2461 319.354 55.6228 319.354 62.2554V83.6572H246.326V62.2553Z" fill="#F4F6FF"/>
<path d="M270.983 59.8657V73.4512H268.525V62.2488H268.45L265.279 64.2753V62.0424L268.637 59.8657H270.983ZM278.815 73.6388C275.55 73.6388 273.599 71.1056 273.599 66.6584C273.599 62.23 275.55 59.6781 278.815 59.6781C282.061 59.6781 284.032 62.23 284.032 66.6584C284.032 71.1056 282.08 73.6388 278.815 73.6388ZM278.815 71.5935C280.523 71.5935 281.574 69.9235 281.574 66.6584C281.574 63.4122 280.504 61.7046 278.815 61.7046C277.126 61.7046 276.057 63.4122 276.057 66.6584C276.057 69.9235 277.108 71.5935 278.815 71.5935ZM299.257 58.1769V68.0658H297.156V67.3715H293.984V66.0955H297.156V58.1769H299.257ZM285.015 64.2941C288.299 64.2941 292.389 64.2566 296.03 63.9001L296.142 65.2136C294.594 65.4294 292.999 65.5607 291.432 65.6264V68.0845H289.368V65.7202C287.914 65.7577 286.516 65.7671 285.24 65.7577L285.015 64.2941ZM299.257 68.5912V72.4004H289.612V73.4887H299.708V74.9711H287.567V71.0306H297.193V70.0173H287.492V68.5912H299.257ZM290.494 58.4396C293.009 58.4396 294.735 59.4529 294.735 60.9916C294.735 62.5678 293.009 63.5248 290.494 63.5248C287.924 63.5248 286.216 62.5678 286.216 60.9916C286.216 59.4529 287.924 58.4396 290.494 58.4396ZM290.494 59.8282C289.068 59.8282 288.186 60.2785 288.205 60.9916C288.186 61.7046 289.068 62.1362 290.494 62.1362C291.883 62.1362 292.784 61.7046 292.784 60.9916C292.784 60.2785 291.883 59.8282 290.494 59.8282Z" fill="#7E8DF5"/>
</g>
</g>
<rect x="-49" y="-28" width="571.87" height="322.534" fill="#606060" fill-opacity="0.15"/>
<path d="M174.128 184.007L343.401 225.182H426.894V148.551L346.832 73.0645L174.128 184.007Z" fill="url(#paint14_linear_216_2207)" fill-opacity="0.5"/>
<rect x="162.547" y="69.4902" width="192.436" height="115.805" rx="21.8748" fill="white"/>
<rect x="162.547" y="69.4902" width="192.436" height="115.805" rx="21.8748" stroke="url(#paint15_linear_216_2207)" stroke-width="2"/>
<path d="M234.801 130.801L241.225 124.376C241.665 123.937 242.186 123.588 242.76 123.35C243.334 123.112 243.949 122.99 244.571 122.99C245.192 122.99 245.807 123.112 246.381 123.35C246.955 123.588 247.476 123.937 247.916 124.376L254.34 130.801M199.631 111.262V103.446C199.631 101.374 200.455 99.3857 201.92 97.92C203.386 96.4543 205.374 95.6309 207.447 95.6309H215.262M199.631 142.524V150.34C199.631 152.413 200.455 154.4 201.92 155.866C203.386 157.332 205.374 158.155 207.447 158.155H215.262M246.524 158.155H254.34C256.413 158.155 258.401 157.332 259.866 155.866C261.332 154.4 262.156 152.413 262.156 150.34V142.524" stroke="url(#paint16_linear_216_2207)" stroke-width="6.67181" stroke-linecap="round" stroke-linejoin="round"/>
<path d="M260.321 88.4064C259.7 88.0195 258.984 87.8145 258.253 87.8145C257.437 87.814 256.641 88.0688 255.978 88.5432C255.314 89.0177 254.816 89.6879 254.552 90.46L253.184 94.4733L249.175 95.841L248.714 96.0286C248.019 96.3688 247.441 96.9077 247.052 97.5769C246.664 98.2461 246.483 99.0156 246.532 99.7878C246.582 100.56 246.859 101.3 247.33 101.914C247.8 102.529 248.442 102.99 249.175 103.238L253.188 104.606L254.556 108.616L254.744 109.073C255.083 109.768 255.622 110.346 256.291 110.735C256.96 111.124 257.729 111.305 258.501 111.256C259.274 111.207 260.014 110.93 260.628 110.46C261.243 109.99 261.704 109.348 261.953 108.616L263.321 104.602L267.331 103.235L267.792 103.047C268.487 102.707 269.065 102.168 269.453 101.499C269.842 100.829 270.023 100.06 269.973 99.2878C269.924 98.5156 269.646 97.7754 269.176 97.1611C268.705 96.5468 268.063 96.086 267.331 95.8371L263.317 94.4694L261.95 90.46L261.762 90.0028C261.44 89.3463 260.941 88.7932 260.321 88.4064Z" fill="url(#paint17_linear_216_2207)"/>
<path d="M242.617 111.262H242.656M207.447 130.801L217.779 120.468C218.218 120.029 218.739 119.68 219.313 119.442C219.887 119.204 220.502 119.082 221.124 119.082C221.745 119.082 222.36 119.204 222.934 119.442C223.508 119.68 224.03 120.029 224.469 120.468L238.709 134.708" stroke="url(#paint18_linear_216_2207)" stroke-width="6.67181" stroke-linecap="round" stroke-linejoin="round"/>
<path d="M292 138V121.5C292 120.041 292.579 118.642 293.611 117.611C294.642 116.579 296.041 116 297.5 116C298.959 116 300.358 116.579 301.389 117.611C302.421 118.642 303 120.041 303 121.5V138M292 129.75H303M314 116V138" stroke="url(#paint19_linear_216_2207)" stroke-width="5.5" stroke-linecap="round" stroke-linejoin="round"/>
</g>
<rect x="0.5" y="0.5" width="472" height="265" rx="19.5" stroke="#B4BFFF"/>
<defs>
<filter id="filter0_d_216_2207" x="-23.2815" y="167.336" width="237.183" height="208.962" filterUnits="userSpaceOnUse" color-interpolation-filters="sRGB">
<feFlood flood-opacity="0" result="BackgroundImageFix"/>
<feColorMatrix in="SourceAlpha" type="matrix" values="0 0 0 0 0 0 0 0 0 0 0 0 0 0 0 0 0 0 127 0" result="hardAlpha"/>
<feOffset/>
<feGaussianBlur stdDeviation="6.00463"/>
<feComposite in2="hardAlpha" operator="out"/>
<feColorMatrix type="matrix" values="0 0 0 0 0.706731 0 0 0 0 0.750721 0 0 0 0 1 0 0 0 0.3 0"/>
<feBlend mode="normal" in2="BackgroundImageFix" result="effect1_dropShadow_216_2207"/>
<feBlend mode="normal" in="SourceGraphic" in2="effect1_dropShadow_216_2207" result="shape"/>
</filter>
<filter id="filter1_d_216_2207" x="-23.2815" y="77.8696" width="237.183" height="96.0752" filterUnits="userSpaceOnUse" color-interpolation-filters="sRGB">
<feFlood flood-opacity="0" result="BackgroundImageFix"/>
<feColorMatrix in="SourceAlpha" type="matrix" values="0 0 0 0 0 0 0 0 0 0 0 0 0 0 0 0 0 0 127 0" result="hardAlpha"/>
<feOffset/>
<feGaussianBlur stdDeviation="6.00463"/>
<feComposite in2="hardAlpha" operator="out"/>
<feColorMatrix type="matrix" values="0 0 0 0 0.706731 0 0 0 0 0.750721 0 0 0 0 1 0 0 0 0.3 0"/>
<feBlend mode="normal" in2="BackgroundImageFix" result="effect1_dropShadow_216_2207"/>
<feBlend mode="normal" in="SourceGraphic" in2="effect1_dropShadow_216_2207" result="shape"/>
</filter>
<filter id="filter2_d_216_2207" x="376.627" y="21.4246" width="381.895" height="44.435" filterUnits="userSpaceOnUse" color-interpolation-filters="sRGB">
<feFlood flood-opacity="0" result="BackgroundImageFix"/>
<feColorMatrix in="SourceAlpha" type="matrix" values="0 0 0 0 0 0 0 0 0 0 0 0 0 0 0 0 0 0 127 0" result="hardAlpha"/>
<feOffset dx="2.40185" dy="2.40185"/>
<feGaussianBlur stdDeviation="3.00231"/>
<feComposite in2="hardAlpha" operator="out"/>
<feColorMatrix type="matrix" values="0 0 0 0 0.898039 0 0 0 0 0.898039 0 0 0 0 0.898039 0 0 0 0.2 0"/>
<feBlend mode="normal" in2="BackgroundImageFix" result="effect1_dropShadow_216_2207"/>
<feBlend mode="normal" in="SourceGraphic" in2="effect1_dropShadow_216_2207" result="shape"/>
</filter>
<filter id="filter3_d_216_2207" x="234.317" y="38.2368" width="661.71" height="611.272" filterUnits="userSpaceOnUse" color-interpolation-filters="sRGB">
<feFlood flood-opacity="0" result="BackgroundImageFix"/>
<feColorMatrix in="SourceAlpha" type="matrix" values="0 0 0 0 0 0 0 0 0 0 0 0 0 0 0 0 0 0 127 0" result="hardAlpha"/>
<feOffset/>
<feGaussianBlur stdDeviation="6.00463"/>
<feComposite in2="hardAlpha" operator="out"/>
<feColorMatrix type="matrix" values="0 0 0 0 0.494118 0 0 0 0 0.552941 0 0 0 0 0.960784 0 0 0 0.2 0"/>
<feBlend mode="normal" in2="BackgroundImageFix" result="effect1_dropShadow_216_2207"/>
<feBlend mode="normal" in="SourceGraphic" in2="effect1_dropShadow_216_2207" result="shape"/>
</filter>
<linearGradient id="paint0_linear_216_2207" x1="128.199" y1="0" x2="128.199" y2="648.5" gradientUnits="userSpaceOnUse">
<stop stop-color="#FDFDFD"/>
<stop offset="1" stop-color="#EAEDFF"/>
</linearGradient>
<linearGradient id="paint1_linear_216_2207" x1="101.409" y1="45.0742" x2="101.409" y2="61.2052" gradientUnits="userSpaceOnUse">
<stop stop-color="#778BFF" stop-opacity="0"/>
<stop offset="1" stop-color="#4B34FF"/>
</linearGradient>
<linearGradient id="paint2_linear_216_2207" x1="50.1418" y1="25.0273" x2="50.2012" y2="44.2421" gradientUnits="userSpaceOnUse">
<stop stop-color="#778BFF" stop-opacity="0"/>
<stop offset="1" stop-color="#4B34FF"/>
</linearGradient>
<linearGradient id="paint3_linear_216_2207" x1="50.1418" y1="25.0273" x2="50.2012" y2="44.2421" gradientUnits="userSpaceOnUse">
<stop stop-color="#778BFF" stop-opacity="0"/>
<stop offset="1" stop-color="#4B34FF"/>
</linearGradient>
<linearGradient id="paint4_linear_216_2207" x1="53.7575" y1="61.8203" x2="53.7155" y2="45.6156" gradientUnits="userSpaceOnUse">
<stop stop-color="#4B34FF"/>
<stop offset="1" stop-color="#778BFF" stop-opacity="0"/>
</linearGradient>
<linearGradient id="paint5_linear_216_2207" x1="53.7575" y1="61.8203" x2="53.7155" y2="45.6156" gradientUnits="userSpaceOnUse">
<stop stop-color="#4B34FF"/>
<stop offset="1" stop-color="#778BFF" stop-opacity="0"/>
</linearGradient>
<linearGradient id="paint6_linear_216_2207" x1="70.6141" y1="45.0977" x2="70.7101" y2="61.3019" gradientUnits="userSpaceOnUse">
<stop stop-color="#778BFF" stop-opacity="0"/>
<stop offset="1" stop-color="#4B34FF"/>
</linearGradient>
<linearGradient id="paint7_linear_216_2207" x1="84.89" y1="45.0977" x2="84.89" y2="61.2529" gradientUnits="userSpaceOnUse">
<stop stop-color="#778BFF" stop-opacity="0"/>
<stop offset="1" stop-color="#4B34FF"/>
</linearGradient>
<linearGradient id="paint8_linear_216_2207" x1="125.253" y1="33.9243" x2="125.253" y2="61.1808" gradientUnits="userSpaceOnUse">
<stop stop-color="#778BFF" stop-opacity="0"/>
<stop offset="1" stop-color="#4B34FF"/>
</linearGradient>
<linearGradient id="paint9_linear_216_2207" x1="142.282" y1="45.7734" x2="142.282" y2="73.0656" gradientUnits="userSpaceOnUse">
<stop stop-color="#778BFF" stop-opacity="0"/>
<stop offset="1" stop-color="#4B34FF"/>
</linearGradient>
<linearGradient id="paint10_linear_216_2207" x1="114.269" y1="57.7656" x2="114.269" y2="61.1816" gradientUnits="userSpaceOnUse">
<stop stop-color="#778BFF" stop-opacity="0"/>
<stop offset="1" stop-color="#4B34FF"/>
</linearGradient>
<linearGradient id="paint11_linear_216_2207" x1="114.269" y1="51.4785" x2="114.269" y2="54.8945" gradientUnits="userSpaceOnUse">
<stop stop-color="#778BFF" stop-opacity="0"/>
<stop offset="1" stop-color="#4B34FF"/>
</linearGradient>
<linearGradient id="paint12_linear_216_2207" x1="0" y1="22.2171" x2="314.643" y2="22.2171" gradientUnits="userSpaceOnUse">
<stop stop-color="#EAEDFF"/>
<stop offset="1" stop-color="#B4BFFF"/>
</linearGradient>
<linearGradient id="paint13_linear_216_2207" x1="57.1805" y1="137.916" x2="260.147" y2="137.916" gradientUnits="userSpaceOnUse">
<stop stop-color="#EAEDFF"/>
<stop offset="1" stop-color="#B4BFFF"/>
</linearGradient>
<linearGradient id="paint14_linear_216_2207" x1="278.78" y1="146.264" x2="408.5" y2="206.5" gradientUnits="userSpaceOnUse">
<stop offset="0.475812" stop-color="#B4BFFF"/>
<stop offset="1" stop-color="#EAEDFF"/>
</linearGradient>
<linearGradient id="paint15_linear_216_2207" x1="258.765" y1="68.4902" x2="258.765" y2="186.295" gradientUnits="userSpaceOnUse">
<stop stop-color="#B4BFFF"/>
<stop offset="1" stop-color="#7E8DF5"/>
</linearGradient>
<linearGradient id="paint16_linear_216_2207" x1="215.107" y1="112.303" x2="261.547" y2="156.943" gradientUnits="userSpaceOnUse">
<stop stop-color="#B4BFFF"/>
<stop offset="1" stop-color="#7E8DF5"/>
</linearGradient>
<linearGradient id="paint17_linear_216_2207" x1="252.33" y1="94.0673" x2="269.748" y2="110.815" gradientUnits="userSpaceOnUse">
<stop stop-color="#B4BFFF"/>
<stop offset="1" stop-color="#7E8DF5"/>
</linearGradient>
<linearGradient id="paint18_linear_216_2207" x1="216.161" y1="117.514" x2="232.479" y2="141.067" gradientUnits="userSpaceOnUse">
<stop stop-color="#B4BFFF"/>
<stop offset="1" stop-color="#7E8DF5"/>
</linearGradient>
<linearGradient id="paint19_linear_216_2207" x1="297.445" y1="121.866" x2="313.786" y2="137.574" gradientUnits="userSpaceOnUse">
<stop stop-color="#B4BFFF"/>
<stop offset="1" stop-color="#7E8DF5"/>
</linearGradient>
<clipPath id="clip0_216_2207">
<rect width="473" height="266" rx="20" fill="white"/>
</clipPath>
<clipPath id="clip1_216_2207">
<rect width="1152.89" height="648.5" fill="white" transform="translate(-32.8889 -11)"/>
</clipPath>
<clipPath id="clip2_216_2207">
<rect x="-11.2722" y="179.346" width="213.164" height="184.943" rx="12.0093" fill="white"/>
</clipPath>
<clipPath id="clip3_216_2207">
<path d="M246.326 130.109H336.396V231.588H246.326V130.109Z" fill="white"/>
</clipPath>
<clipPath id="clip4_216_2207">
<rect width="90.0694" height="14.4111" fill="white" transform="translate(246.326 130.109)"/>
</clipPath>
<clipPath id="clip5_216_2207">
<path d="M336.396 130.109H427.666V231.588H336.396V130.109Z" fill="white"/>
</clipPath>
<clipPath id="clip6_216_2207">
<rect width="91.2704" height="14.4111" fill="white" transform="translate(336.396 130.109)"/>
</clipPath>
<clipPath id="clip7_216_2207">
<path d="M427.666 130.109H518.937V231.588H427.666V130.109Z" fill="white"/>
</clipPath>
<clipPath id="clip8_216_2207">
<rect width="91.2704" height="14.4111" fill="white" transform="translate(427.666 130.109)"/>
</clipPath>
<clipPath id="clip9_216_2207">
<path d="M246.326 231.588H336.396V333.066H246.326V231.588Z" fill="white"/>
</clipPath>
<clipPath id="clip10_216_2207">
<rect width="90.0694" height="14.4111" fill="white" transform="translate(246.326 231.588)"/>
</clipPath>
<clipPath id="clip11_216_2207">
<path d="M336.396 231.588H427.666V333.066H336.396V231.588Z" fill="white"/>
</clipPath>
<clipPath id="clip12_216_2207">
<rect width="91.2704" height="14.4111" fill="white" transform="translate(336.396 231.588)"/>
</clipPath>
<clipPath id="clip13_216_2207">
<path d="M427.666 231.588H518.937V333.066H427.666V231.588Z" fill="white"/>
</clipPath>
<clipPath id="clip14_216_2207">
<rect width="91.2704" height="14.4111" fill="white" transform="translate(427.666 231.588)"/>
</clipPath>
</defs>
</svg>
