<svg width="245" height="160" viewBox="0 0 245 160" fill="none" xmlns="http://www.w3.org/2000/svg">
<path d="M128 64.998L136.22 56.778C136.782 56.2157 137.45 55.7695 138.184 55.4651C138.918 55.1607 139.706 55.004 140.5 55.004C141.295 55.004 142.083 55.1607 142.817 55.4651C143.551 55.7695 144.219 56.2157 144.78 56.778L153 64.998M83.0005 39.998V29.998C83.0005 27.3459 84.0541 24.8023 85.9294 22.927C87.8048 21.0516 90.3483 19.998 93.0005 19.998H103M83.0005 79.998V89.998C83.0005 92.6502 84.0541 95.1937 85.9294 97.0691C87.8048 98.9445 90.3483 99.998 93.0005 99.998H103M143 99.998H153C155.653 99.998 158.196 98.9445 160.072 97.0691C161.947 95.1937 163 92.6502 163 89.998V79.998" stroke="url(#paint0_linear_218_3757)" stroke-width="8.53659" stroke-linecap="round" stroke-linejoin="round"/>
<path d="M160.653 10.7554C159.859 10.2604 158.942 9.99805 158.007 9.99805C156.963 9.99742 155.945 10.3235 155.096 10.9305C154.247 11.5376 153.609 12.3952 153.272 13.383L151.522 18.518L146.392 20.268L145.802 20.508C144.913 20.9434 144.173 21.6328 143.676 22.4891C143.179 23.3454 142.947 24.3299 143.011 25.3179C143.074 26.306 143.429 27.253 144.031 28.039C144.633 28.825 145.455 29.4146 146.392 29.733L151.527 31.483L153.277 36.613L153.517 37.198C153.952 38.0874 154.641 38.8276 155.497 39.3249C156.353 39.8223 157.337 40.0543 158.325 39.9917C159.313 39.929 160.26 39.5745 161.047 38.973C161.833 38.3715 162.423 37.5502 162.742 36.613L164.492 31.478L169.622 29.728L170.212 29.488C171.101 29.0527 171.841 28.3633 172.338 27.507C172.835 26.6507 173.067 25.6662 173.003 24.6782C172.94 23.6901 172.585 22.7431 171.983 21.9571C171.381 21.1711 170.559 20.5815 169.622 20.263L164.487 18.513L162.737 13.383L162.497 12.798C162.085 11.9581 161.447 11.2504 160.653 10.7554Z" fill="url(#paint1_linear_218_3757)"/>
<path d="M138 39.999H138.05M93.0005 64.999L106.22 51.779C106.782 51.2166 107.45 50.7705 108.184 50.4661C108.918 50.1617 109.706 50.005 110.5 50.005C111.295 50.005 112.083 50.1617 112.817 50.4661C113.551 50.7705 114.219 51.2166 114.78 51.779L133 69.999" stroke="url(#paint2_linear_218_3757)" stroke-width="8.53659" stroke-linecap="round" stroke-linejoin="round"/>
<path d="M30.3945 122.32V157.398H26.6836V122.32H30.3945ZM11.6836 124.938C16.8789 124.938 20.707 129.703 20.707 137.203C20.707 144.742 16.8789 149.508 11.6836 149.508C6.41016 149.508 2.62109 144.742 2.62109 137.203C2.62109 129.703 6.41016 124.938 11.6836 124.938ZM11.6836 128.258C8.44141 128.258 6.21484 131.695 6.21484 137.203C6.21484 142.75 8.44141 146.188 11.6836 146.188C14.8867 146.188 17.1133 142.75 17.1133 137.203C17.1133 131.695 14.8867 128.258 11.6836 128.258ZM53.3398 125.68V148.688H36.9336V125.68H53.3398ZM40.6055 128.609V145.68H49.7461V128.609H40.6055ZM63.9648 122.32V157.398H60.2539V122.32H63.9648ZM81.4414 132.633C81.4414 138.492 85.2695 144.547 90.6602 146.852L88.6289 149.742C84.5078 147.926 81.2266 144.078 79.6055 139.391C77.9844 144.391 74.6836 148.648 70.6211 150.641L68.4727 147.711C73.7461 145.25 77.6523 138.648 77.6914 132.633V128.922H69.6836V125.836H89.4102V128.922H81.4414V132.633ZM97.5352 122.32V157.32H93.8242V122.32H97.5352ZM118.738 122.867V125.914H134.949V122.867H138.66V134.469H115.066V122.867H118.738ZM118.738 131.656H134.949V128.648H118.738V131.656ZM142.801 137.008V140.016H128.66V143.023H138.777V151.188H118.387V154.117H139.754V156.969H114.754V148.531H135.105V145.797H114.715V143.023H124.949V140.016H110.887V137.008H142.801ZM173.598 122.32V157.398H169.926V138.57H163.52V135.484H169.926V122.32H173.598ZM161.449 125.484V137.984H149.457V145.953C155.043 145.934 159.34 145.738 164.223 144.859L164.535 147.906C159.301 148.844 154.691 149.039 148.52 149.078H145.746V134.977H157.855V128.492H145.668V125.484H161.449ZM193.965 124.43C201.465 124.469 206.895 128.141 206.895 133.727C206.895 138.98 202.344 142.438 195.801 142.984V149.859H210.059V152.945H178.027V149.859H192.129V142.984C185.625 142.438 181.074 138.98 181.074 133.727C181.074 128.141 186.504 124.469 193.965 124.43ZM193.965 127.477C188.574 127.438 184.668 129.938 184.668 133.727C184.668 137.672 188.574 140.094 193.965 140.133C199.395 140.094 203.301 137.672 203.301 133.727C203.301 129.938 199.395 127.438 193.965 127.477ZM240.699 122.32V157.32H236.949V122.32H240.699ZM230.27 126.07C230.27 136.305 225.895 145.211 213.902 150.953L211.949 147.945C221.266 143.512 225.797 137.203 226.52 129.039H213.629V126.07H230.27Z" fill="#7E8DF5"/>
<defs>
<linearGradient id="paint0_linear_218_3757" x1="102.802" y1="41.3303" x2="162.222" y2="98.4474" gradientUnits="userSpaceOnUse">
<stop stop-color="#B4BFFF"/>
<stop offset="1" stop-color="#7E8DF5"/>
</linearGradient>
<linearGradient id="paint1_linear_218_3757" x1="150.429" y1="17.9986" x2="172.715" y2="39.4272" gradientUnits="userSpaceOnUse">
<stop stop-color="#B4BFFF"/>
<stop offset="1" stop-color="#7E8DF5"/>
</linearGradient>
<linearGradient id="paint2_linear_218_3757" x1="104.151" y1="47.9986" x2="125.029" y2="78.135" gradientUnits="userSpaceOnUse">
<stop stop-color="#B4BFFF"/>
<stop offset="1" stop-color="#7E8DF5"/>
</linearGradient>
</defs>
</svg>
