<svg width="38" height="42" viewBox="0 0 38 42" fill="none" xmlns="http://www.w3.org/2000/svg">
<path d="M31.6667 42C29.9074 42 28.412 41.3875 27.1806 40.1625C25.9491 38.9375 25.3333 37.45 25.3333 35.7C25.3333 35.49 25.3861 35 25.4917 34.23L10.6611 25.62C10.0981 26.145 9.44722 26.5566 8.70833 26.8548C7.96944 27.153 7.17778 27.3014 6.33333 27.3C4.57407 27.3 3.0787 26.6875 1.84722 25.4625C0.615741 24.2375 0 22.75 0 21C0 19.25 0.615741 17.7625 1.84722 16.5375C3.0787 15.3125 4.57407 14.7 6.33333 14.7C7.17778 14.7 7.96944 14.8491 8.70833 15.1473C9.44722 15.4455 10.0981 15.8564 10.6611 16.38L25.4917 7.77C25.4213 7.525 25.3777 7.2891 25.3608 7.0623C25.3439 6.8355 25.3347 6.5814 25.3333 6.3C25.3333 4.55 25.9491 3.0625 27.1806 1.8375C28.412 0.6125 29.9074 0 31.6667 0C33.4259 0 34.9213 0.6125 36.1528 1.8375C37.3843 3.0625 38 4.55 38 6.3C38 8.05 37.3843 9.5375 36.1528 10.7625C34.9213 11.9875 33.4259 12.6 31.6667 12.6C30.8222 12.6 30.0306 12.4509 29.2917 12.1527C28.5528 11.8545 27.9019 11.4436 27.3389 10.92L12.5083 19.53C12.5787 19.775 12.623 20.0116 12.6413 20.2398C12.6596 20.468 12.6681 20.7214 12.6667 21C12.6653 21.2786 12.6568 21.5327 12.6413 21.7623C12.6259 21.9919 12.5815 22.2278 12.5083 22.47L27.3389 31.08C27.9019 30.555 28.5528 30.1441 29.2917 29.8473C30.0306 29.5505 30.8222 29.4014 31.6667 29.4C33.4259 29.4 34.9213 30.0125 36.1528 31.2375C37.3843 32.4625 38 33.95 38 35.7C38 37.45 37.3843 38.9375 36.1528 40.1625C34.9213 41.3875 33.4259 42 31.6667 42Z" fill="url(#paint0_linear_603_7963)"/>
<defs>
<linearGradient id="paint0_linear_603_7963" x1="19" y1="0" x2="19" y2="42" gradientUnits="userSpaceOnUse">
<stop stop-color="#7E8DF5"/>
<stop offset="1" stop-color="#B4BFFF"/>
</linearGradient>
</defs>
</svg>
